<?xml version="1.0" standalone="no"?>
<!DOCTYPE svg PUBLIC "-//W3C//DTD SVG 1.1//EN" "http://www.w3.org/Graphics/SVG/1.1/DTD/svg11.dtd" >
<svg xmlns="http://www.w3.org/2000/svg" xmlns:xlink="http://www.w3.org/1999/xlink" version="1.1">
<metadata>
Created by FontForge 20170924 at Thu Oct  7 17:59:03 2021
 By www
Copyright (c) 2021 by Vilogsign. All rights reserved.
</metadata>
<defs>
<font id="CallindaDEMORegular" horiz-adv-x="0" >
  <font-face 
    font-family="Callinda DEMO"
    font-weight="400"
    font-stretch="normal"
    units-per-em="1000"
    panose-1="0 0 0 0 0 0 0 0 0 0"
    ascent="750"
    descent="-250"
    x-height="344"
    cap-height="716"
    bbox="-288 -226.727 945.5 887.615"
    underline-thickness="50"
    underline-position="-100"
    unicode-range="U+0020-203A"
  />
    <missing-glyph />
    <glyph glyph-name="space" unicode=" " horiz-adv-x="375" 
 />
    <glyph glyph-name="exclam" unicode="!" horiz-adv-x="329" 
d="M328 647q1 -5 -1.5 -10.5t-5.5 -10.5l-36 -63l-16 -30l-16 -30q-29 -50 -53 -101t-45 -105q-8 -20 -14.5 -41.5t-14.5 -41.5q-2 -8 -5 -16t-5 -16q-1 -1 -1 -1.5t-1 -1.5q-8 -19 -22 -14q-15 5 -10 24q2 9 5 18.5t6 18.5q20 79 51 153t69 146q11 21 22.5 42t23.5 41
q7 11 14.5 22t15.5 22q5 6 11 11q9 6 18 2q10 -5 10 -18zM94 113q-2 -10 -3 -19.5t-4 -19.5q-1 -8 -10 -17q-7 -7 -15 -4t-10 12q-3 7 -1 14q3 13 7 24t10 22q9 14 17 9q5 -2 6.5 -6t1.5 -9v-6h1z" />
    <glyph glyph-name="quotedbl" unicode="&#x22;" horiz-adv-x="247" 
d="M83 598l-5 5l-4 4q-13 14 -1 29q14 15 30 7q9 -4 14.5 -14.5t4.5 -21.5q-1 -9 -5 -20q-12 -29 -35 -49q-7 -7 -15 -8q-10 -2 -14 5q-5 7 2 15q5 7 9.5 13t8.5 14q5 7 10 21zM161 597q-6 4 -9 9q-6 8 -5.5 16t6.5 14t14.5 7t15.5 -4q14 -9 14 -24q0 -6 -0.5 -12.5
t-2.5 -11.5q-7 -19 -18.5 -33.5t-25.5 -27.5q-2 -2 -4.5 -3t-4.5 -3q-6 -2 -11 3t-3 11q4 8 6 11q4 7 8 13t9 13q3 5 5.5 10.5t5.5 11.5z" />
    <glyph glyph-name="numbersign" unicode="#" horiz-adv-x="384" 
d="M117 414q5 12 9 22.5t9 20.5q4 8 7.5 16t7.5 16q4 7 10 13q7 7 17 4q10 -4 10 -15q-1 -5 -1.5 -9t-2.5 -9q-2 -8 -5.5 -16.5t-6.5 -16.5q-2 -5 -3 -9t-3 -10q27 2 53.5 4.5t52.5 4.5q2 5 4.5 11t4.5 11q8 14 14.5 29t14.5 29q4 7 11 14q6 6 15 3t9 -13q-1 -6 -1.5 -12
t-2.5 -12q-4 -11 -7.5 -21.5t-8.5 -21.5q-2 -4 -3.5 -8.5t-3.5 -9.5q11 -2 20 -2.5t18 -2.5q5 -1 9 -2t9 -3q12 -6 10 -21q-3 -18 -22 -11q-14 6 -28.5 6.5t-28.5 1.5q-5 -9 -11 -23t-11 -28t-9 -27t-5 -19q5 -2 10.5 -1.5t11.5 -0.5q8 -1 15 -1t15 -2q7 -2 14 -8
q12 -9 5 -22q-6 -10 -20 -7q-14 5 -28.5 5.5t-28.5 0.5q-2 0 -4 -0.5t-5 -0.5q-1 -4 -2.5 -7t-2.5 -6l-10 -40l-10 -40q-2 -4 -1.5 -8t-0.5 -8q0 -4 -2 -12q-3 -12 -15 -12q-5 -1 -10.5 2.5t-7.5 8.5q-3 10 -2 19q2 24 6 46q2 10 5 19t5 19q1 4 1.5 8t2.5 9q-26 2 -49.5 -1
t-47.5 -5q-5 -11 -6.5 -22t-2.5 -22v-10t-1 -10v-6.5t-1 -5.5q-3 -14 -16 -14q-14 -2 -18 14q-2 7 -1 12q0 11 0.5 21.5t1.5 21.5q0 3 0.5 6t0.5 6q-5 3 -8.5 1.5t-7.5 -1.5q-5 -1 -8.5 -1.5t-8.5 -1.5t-9 -1.5t-9 -0.5q-7 0 -12 4.5t-5 10.5q-2 12 11 17q7 4 14 5
q11 2 22 4.5t22 4.5q8 0 11 8q5 20 11 39.5t11 39.5q0 -1 -2 5q-7 -2 -13.5 -3t-14.5 -1q-5 -1 -10 -0.5t-10 1.5q-10 2 -10 14q-2 10 9 14q5 2 10 3l10 2q11 2 22.5 3.5t22.5 3.5zM124 293q25 2 49 3l48 2q3 5 8 18.5t10.5 28.5t9.5 28.5t5 18.5q-2 2 -3 2l-46 -4l-46 -4
q-8 0 -11 -10l-12 -36t-11 -36q-1 -3 -1 -11z" />
    <glyph glyph-name="ampersand" unicode="&#x26;" horiz-adv-x="329" 
d="M167 320q8 -20 21.5 -42.5t26.5 -35.5q7 8 11 16.5t7 17.5q2 5 4 9.5t5 8.5q4 6 10 6.5t11 -4.5q13 -15 7 -33q-7 -16 -14 -27l-10 -16t-11 -16q8 -14 18.5 -25.5t25.5 -18.5q7 -4 10.5 -2.5t8.5 8.5l2 4t3 4q5 7 12.5 6t10.5 -9q8 -22 -6 -39q-9 -11 -20.5 -15.5
t-25.5 -0.5q-35 8 -56 32q-4 4 -7.5 8t-8.5 9q-5 -4 -9 -7l-8 -6q-22 -18 -45 -33.5t-49 -27.5q-16 -8 -31 -11q-26 -5 -43 9t-17 40q0 11 2 20.5t5 19.5q5 14 12 27.5t15 26.5q14 21 29 40.5t32 39.5q7 10 17 20q-2 5 -4 13q-22 68 28 115q16 17 35 29t40 20q10 3 20 5
t21 1q20 -2 29.5 -16t3.5 -33q-6 -16 -16 -29q-6 -9 -13 -17t-15 -16l-57 -57q-4 -5 -8 -9zM181 199q-12 20 -23 39t-22 37l-2 2h-3q-1 -1 -2.5 -2t-2.5 -3q-17 -20 -32.5 -41t-29.5 -44q-10 -19 -17 -35q-2 -5 -3 -11.5t-2 -12.5q-1 -5 2.5 -8.5t8.5 -1.5q8 2 15 4.5
t14 5.5q20 10 38 22.5t35 26.5q7 5 13 10.5t13 11.5zM244 468h-10q-46 -13 -76 -51q-14 -18 -12 -42q0 -5 3 -9q15 13 30 27.5t28 28.5t23 26t14 20z" />
    <glyph glyph-name="quotesingle" unicode="'" horiz-adv-x="173" 
d="M83 598l-5 5l-4 4q-13 14 -1 29q14 15 30 7q9 -4 14.5 -14.5t4.5 -21.5q-1 -9 -5 -20q-12 -29 -35 -49q-7 -7 -15 -8q-10 -2 -14 5q-5 7 2 15q5 7 9.5 13t8.5 14q5 7 10 21z" />
    <glyph glyph-name="parenleft" unicode="(" horiz-adv-x="277" 
d="M1 142q0 91 20.5 175t59.5 165q25 52 57 98.5t74 87.5q5 5 10.5 9.5t10.5 9.5q6 5 16 9q11 3 19 -2q7 -4 8.5 -11t-5.5 -12q-11 -9 -19 -19t-17 -21q-30 -36 -55.5 -75t-47.5 -80q-19 -35 -32 -71t-24 -73q-31 -102 -31 -211q-1 -17 1 -33t4 -33t8.5 -32.5t15.5 -30.5
q2 -4 4 -7.5t4 -8.5q3 -11 -3 -17t-17 -3q-5 1 -14 8q-14 12 -21 30q-8 16 -13 32.5t-8 33.5q-6 43 -5 82z" />
    <glyph glyph-name="parenright" unicode=")" horiz-adv-x="282" 
d="M281 528q-3 -72 -19.5 -152t-48.5 -159q-26 -64 -61.5 -121.5t-80.5 -109.5q-12 -14 -26 -26q-3 -3 -7 -5.5t-9 -4.5q-9 -4 -21 3q-11 6 -6 18q4 8 12 16q59 62 103 138q25 42 43 85.5t32 90.5q14 48 24.5 96t15.5 97q2 24 3.5 48t1.5 48q1 41 -14 81q-2 3 -2.5 6t-1.5 5
q-3 11 7 19q10 7 21 -3q2 -3 4.5 -5.5t4.5 -5.5q5 -8 8.5 -16.5t5.5 -17.5q7 -23 9.5 -51t1.5 -74z" />
    <glyph glyph-name="asterisk" unicode="*" horiz-adv-x="165" 
d="M59 547q-5 -4 -10.5 -8t-10.5 -9q-3 -2 -6.5 -5t-8.5 -5q-13 -7 -20 4q-7 10 2 19q2 4 5.5 7t6.5 6q11 9 21 17.5t20 16.5q-2 7 -6 9.5t-7 6.5q-5 5 -8.5 9.5t-7.5 9.5q-5 8 0 16q7 9 17 4q9 -5 16 -10q5 -2 9 -5t9 -7q2 6 4 11.5t5 10.5q4 9 12 19q8 8 15 2q6 -4 6 -12
q0 -6 -2 -14q3 -3 5.5 -2t4.5 2q3 2 9 4q11 3 20 -3q5 -3 5.5 -8.5t-3.5 -9.5l-12 -9q-8 -6 -16.5 -11.5t-18.5 -12.5q3 -4 6 -7t5 -6q5 -5 9.5 -10.5t9.5 -11.5q4 -5 5 -11q3 -7 -3 -13q-6 -4 -12 -1q-5 2 -9 5t-8 5t-7 5t-6 5q-5 -2 -5 -5t-1 -6q-2 -8 -4.5 -17t-4.5 -17
t-4 -11q-6 -13 -19 -9t-11 16q0 6 1 12l2 12q2 5 2.5 10t2.5 10z" />
    <glyph glyph-name="plus" unicode="+" horiz-adv-x="327" 
d="M199 373q13 -1 23 -1t21 -1q5 0 9 -1t9 -2q3 -1 6 -2.5t5 -3.5q7 -7 4 -17q-1 -10 -12 -12q-9 -1 -17 0q-15 1 -30 0.5t-30 -2.5q-4 -8 -6 -13q-14 -44 -21 -88q0 -6 -4 -16q-5 -13 -18 -11t-16 14q-2 10 -2 17q1 16 3.5 31.5t6.5 31.5q3 12 6 27q-5 0 -8 0.5t-7 -0.5
q-11 -2 -20.5 -4t-19.5 -4q-8 -2 -12 -2q-13 2 -17 11q-5 10 4 19q7 7 15 10q18 10 43 13q9 1 17.5 1.5t17.5 2.5q2 5 3.5 10t3.5 10q7 17 13.5 33t14.5 33q2 5 5.5 9.5t7.5 9.5q8 8 19 4q11 -5 10 -16q0 -5 -0.5 -9t-1.5 -9q-4 -11 -7.5 -22.5t-8.5 -22.5q-2 -6 -4 -12.5
t-5 -15.5z" />
    <glyph glyph-name="comma" unicode="," horiz-adv-x="209" 
d="M89 168q-2 2 -4.5 3.5t-4.5 3.5q-12 17 0 34q5 8 15 11t19 0t15 -10t4 -18q-1 -17 -8 -35q-10 -26 -33 -44q-12 -8 -22 -11q-3 -2 -7 -1t-6 2q-5 2 -6.5 8t3.5 10q2 2 4.5 2.5t4.5 2.5q11 7 17.5 16.5t8.5 25.5z" />
    <glyph glyph-name="hyphen" unicode="-" horiz-adv-x="193" 
d="M24 300q-20 0 -23 14q-4 16 12 22q14 6 31 9q29 5 57 8.5t57 8.5q9 1 16 0q15 -1 18 -15q2 -13 -14 -18q-3 -2 -6 -2t-6 -1q-32 -3 -63.5 -9.5t-63.5 -13.5q-5 -1 -9 -1.5t-6 -1.5z" />
    <glyph glyph-name="period" unicode="." horiz-adv-x="190" 
d="M50 161q0 17 8 28.5t22 20.5q9 5 19.5 1t13.5 -15q2 -7 1 -12q-3 -30 -26 -46q-12 -9 -23.5 -4t-13.5 19q0 2 -0.5 4t-0.5 4z" />
    <glyph glyph-name="slash" unicode="/" horiz-adv-x="465" 
d="M0 -24q1 3 2 6.5t2 8.5q15 49 35 96q19 42 41 83t45 81q11 18 29.5 47.5t40.5 65.5t46.5 74.5t47 74t41.5 65t30 46.5t23.5 33.5t25.5 32.5q4 5 8 8.5t9 7.5q2 2 3 2.5t3 2.5q8 4 15 3.5t12 -5.5q10 -10 1 -26q-3 -5 -6 -8.5t-6 -8.5q-13 -16 -32.5 -44t-42.5 -62
t-48 -71.5t-47.5 -72.5t-40.5 -64t-29 -46q-44 -71 -84 -144q-26 -44 -45.5 -90t-36.5 -94q-3 -10 -10 -19q-7 -11 -18 -8q-11 4 -13 17q0 4 -1 8z" />
    <glyph glyph-name="zero" unicode="0" 
 />
    <glyph glyph-name="one" unicode="1" 
 />
    <glyph glyph-name="two" unicode="2" 
 />
    <glyph glyph-name="three" unicode="3" 
 />
    <glyph glyph-name="four" unicode="4" 
 />
    <glyph glyph-name="five" unicode="5" 
 />
    <glyph glyph-name="six" unicode="6" 
 />
    <glyph glyph-name="seven" unicode="7" 
 />
    <glyph glyph-name="eight" unicode="8" 
 />
    <glyph glyph-name="nine" unicode="9" 
 />
    <glyph glyph-name="colon" unicode=":" horiz-adv-x="150" 
d="M71 208q-1 -32 -24 -56q-14 -15 -30 -10q-9 4 -12.5 11.5t-4.5 16.5q0 11 3.5 19t11.5 13q11 8 17 20q2 4 4 5q7 9 20 8q9 -3 14 -14q1 -3 1 -6.5v-6.5zM82 406q0 34 27 45q3 1 5 2t5 2q19 6 27 -11q6 -16 1 -28l-7.5 -15t-8.5 -14q-9 -14 -21.5 -13t-21.5 15q-3 5 -4 10
t-2 7z" />
    <glyph glyph-name="semicolon" unicode=";" horiz-adv-x="159" 
d="M39 183q-2 2 -4.5 3.5t-4.5 3.5q-12 17 0 34q5 8 15 11t19 0t15 -10t4 -18q-1 -17 -8 -35q-10 -26 -33 -44q-12 -8 -22 -11q-3 -2 -7 -1t-6 2q-5 2 -6.5 8t3.5 10q2 2 4.5 2.5t4.5 2.5q11 7 17.5 16.5t8.5 25.5zM94 405q0 17 8 28.5t22 20.5q9 5 19.5 1t13.5 -15
q2 -7 1 -12q-3 -30 -26 -46q-12 -9 -23.5 -4t-13.5 19q0 2 -0.5 4t-0.5 4z" />
    <glyph glyph-name="less" unicode="&#x3c;" horiz-adv-x="323" 
d="M102 341q8 -12 13.5 -22.5t12.5 -20.5q14 -21 29 -42.5t29 -42.5q2 -4 8 -12q8 -19 -7 -29q-13 -10 -28 3q-6 8 -9 11q-16 22 -32 43t-31 44q-8 11 -15 23.5t-15 25.5q-4 5 -5 11q-7 24 16 36q11 5 21 9t20 9q35 18 65 41.5t57 51.5l6 6t7 5q13 8 23 0q10 -9 3 -22
q-2 -4 -4 -7.5t-4 -7.5q-16 -22 -40 -41q-22 -17 -45.5 -32.5t-49.5 -27.5q-5 -2 -11 -5z" />
    <glyph glyph-name="equal" unicode="=" horiz-adv-x="304" 
d="M159 265q-15 -2 -33 -3t-36 -3h-23q-12 2 -15 12q-2 5 -0.5 11t6.5 9q8 7 17 8q33 9 66.5 10t68.5 -4q3 -1 6.5 -2t6.5 -3q11 -5 9 -17q0 -13 -13 -16q-5 -1 -10 -1.5t-10 -0.5q-9 -1 -18.5 -0.5t-21.5 0.5zM202 428h27q3 -1 6.5 -1.5t6.5 -1.5q6 -3 9 -8t3 -10
q-2 -13 -15 -16q-4 -1 -12 -1q-27 0 -53.5 -2.5t-53.5 -6.5q-14 -3 -28 -3q-7 -1 -16 2q-6 1 -9.5 6.5t-3.5 10.5q0 11 11 16q3 2 9 4q7 1 13 2l12 2q23 2 46.5 4t47.5 4v-1z" />
    <glyph glyph-name="greater" unicode="&#x3e;" horiz-adv-x="295" 
d="M197 340q-6 6 -10.5 11.5t-9.5 10.5q-28 29 -49 64q-7 10 -13 25q-3 12 2 20q5 10 14 11t16 -7q18 -23 37 -49q12 -16 23.5 -31t23.5 -31q1 -2 2 -2.5t2 -2.5q19 -24 -2 -45l-15 -12q-35 -29 -67.5 -61.5t-64.5 -67.5q-6 -6 -9 -8q-11 -7 -19 0q-9 5 -7 18q1 2 1.5 4
t1.5 4q4 6 6 8q20 22 38.5 43.5t38.5 42.5q9 11 19.5 19.5t20.5 18.5q5 4 9.5 8t10.5 9z" />
    <glyph glyph-name="question" unicode="?" horiz-adv-x="442" 
d="M340 635q-18 0 -32.5 -4.5t-27.5 -12.5q-29 -18 -52.5 -42t-39.5 -55q-2 -5 -3.5 -9t-3.5 -8q-4 -8 -7 -11q-7 -10 -20 -7q-11 3 -13 16v10.5t2 10.5q3 8 6.5 16t8.5 15q47 72 127 107q20 8 40 11.5t41 -0.5q26 -4 50 -23q17 -14 22 -33t3 -40q-3 -26 -17 -48l-18 -30
t-20 -29q-14 -17 -28.5 -33.5t-29.5 -32.5q-23 -23 -46.5 -45.5t-46.5 -45.5q-14 -14 -27.5 -28t-27.5 -28q-18 -20 -33.5 -41.5t-26.5 -46.5q-2 -4 -4 -7.5t-5 -6.5q-4 -6 -10 -7t-12 1q-12 5 -9 20q7 26 21 49q21 33 47 62q16 17 31.5 33t31.5 32q20 20 39.5 38.5
t39.5 37.5q26 24 48.5 50.5t40.5 57.5q14 24 20 49q6 34 -24 49q-9 5 -18 7t-17 2zM95 104q-2 -12 -4.5 -25t-9.5 -25l-6 -6q-8 -5 -15.5 -2t-9.5 12v4q2 14 6.5 27.5t13.5 25.5q8 10 16 5q9 -4 9 -16z" />
    <glyph glyph-name="at" unicode="@" horiz-adv-x="401" 
d="M167 223q-10 -8 -18.5 -14t-16.5 -12q-7 -5 -16 -10q-21 -10 -34 11q-2 4 -3.5 9t-3.5 10q-2 8 0 16q5 30 17.5 56t35.5 46q12 10 28 19q8 5 16 6t17 1q23 -2 38 -20.5t12 -41.5q-2 -6 -5 -13q-2 -4 -7 -4.5t-7 3.5q-3 2 -5.5 5.5t-4.5 7.5q-11 20 -23 20t-25 -11
q-17 -15 -28 -33.5t-17 -40.5q-1 -1 1 -5q7 2 12 6t10 9q9 8 18 17.5t19 18.5q2 2 4.5 4t4.5 4q8 6 17 2t11 -14q2 -6 0.5 -11.5t-3.5 -10.5q-3 -8 -5 -16t-1 -17q0 -2 1 -5t2 -7q3 1 5.5 1t4.5 2q4 3 8 6.5t7 7.5q23 29 34 62.5t13 69.5q1 15 -2.5 29.5t-9.5 28.5
q-7 16 -19 26.5t-28 17.5q-11 5 -22 3.5t-22 -6.5q-19 -9 -35.5 -20.5t-30.5 -27.5q-12 -14 -23 -29t-20 -31q-17 -29 -28.5 -59.5t-16.5 -63.5q-2 -20 -2 -39t4 -39q4 -18 14 -36q19 -32 58 -29q25 2 44 15q12 10 23.5 19.5t18.5 25.5q1 3 3.5 6t4.5 5q11 11 19 -2
q9 -12 4 -25q-3 -10 -9 -17q-14 -16 -30.5 -30t-36.5 -23q-20 -8 -40 -10t-41 5q-31 9 -49 38q-10 16 -15.5 32.5t-8.5 34.5q-9 49 4 101q21 96 82 170q35 43 83 63q8 3 15.5 5.5t15.5 4.5q42 6 75 -22q50 -42 51 -106q0 -95 -58 -168q-11 -14 -25 -21q-17 -10 -32.5 -4.5
t-22.5 24.5q-2 5 -2.5 9.5t-2.5 10.5z" />
    <glyph glyph-name="A" unicode="A" horiz-adv-x="725" 
d="M511 340q-9 0 -41.5 -4t-70.5 -9t-71 -10.5t-42 -8.5q-2 -4 -3 -7q-12 -34 -26 -67t-30 -65q-23 -49 -48.5 -96t-54.5 -92q-5 -9 -11.5 -17.5t-13.5 -17.5q-9 -12 -23 -8q-17 5 -17 23q0 8 1 14.5t3 14.5q5 28 13.5 55t19.5 53q17 46 36.5 90.5t42.5 87.5q4 8 5 12v3h-13
q-21 -2 -41.5 -4.5t-40.5 -4.5q-13 -2 -25 -2t-24 3q-5 2 -10 3.5t-9 4.5q-22 12 -15 37q3 10 9 19q7 10 17 20q63 54 147 77q23 6 45.5 4.5t43.5 -12.5q6 2 8.5 6.5t5.5 9.5q21 32 45 62t50 59q21 24 44.5 44.5t49.5 38.5q10 8 21 14t22 11q20 10 46 7q29 -3 41 -29
q3 -7 4.5 -14t3.5 -14q5 -24 4 -48t-6 -48q-6 -35 -12.5 -69t-12.5 -69q-1 -3 -1 -6t-1 -7h17q20 0 39 0.5t39 0.5q13 0 27 -3q17 -3 24 -18q5 -10 -0.5 -19.5t-16.5 -10.5q-8 -2 -13 5q-4 6 -14 8q-53 4 -114 -2q-2 -8 -4 -14.5t-4 -13.5q-17 -58 -35.5 -114t-38.5 -113
l-18 -46t-19 -46l-6 -12t-7 -11q-2 -4 -5.5 -7t-7.5 -6q-10 -10 -23 -2q-10 5 -12 20q0 7 4 9q10 7 14 16.5t8 19.5q20 50 36 97q17 50 32 100t29 101q2 6 4 17zM288 412q2 -9 3.5 -17.5t3.5 -16.5t0 -16t0 -17q20 3 38.5 6t37.5 6q20 3 38.5 5.5t37.5 5.5t37.5 4.5
t37.5 6.5l15 63q8 35 14.5 70.5t10.5 70.5q1 11 1.5 23t-0.5 23q-2 19 -9.5 23.5t-26.5 -0.5q-24 -7 -45 -23q-47 -33 -86 -74q-56 -60 -102 -134q-2 -2 -3.5 -4.5t-2.5 -4.5zM40 317q16 -4 29.5 -3.5t27.5 2.5q14 1 27 2t27 3t27 4.5t27 4.5q9 17 18 32t18 31q1 2 1 8
q-6 2 -8 3q-14 4 -27 2.5t-26 -5.5q-35 -11 -65.5 -27t-59.5 -38l-8 -8t-8 -11zM109 19q2 3 3.5 5t3.5 4q11 17 21.5 34t19.5 34q27 54 51 108q9 21 16.5 42t15.5 43q1 2 1 5t1 8q-5 -1 -11 -1l-9 -3q-16 -26 -34.5 -65t-35 -80t-28.5 -77.5t-15 -56.5zM248 337q1 2 1.5 2.5
t1.5 2.5q0 2 -2 2l-3 -3z" />
    <glyph glyph-name="B" unicode="B" horiz-adv-x="658" 
d="M312 407q12 1 23.5 1.5t22.5 1.5q15 1 30 -2t29 -8q57 -24 61 -85q1 -7 0.5 -13.5t-1.5 -13.5v-11q10 1 18 4q23 5 47 10t48 9q42 6 81 2q4 0 10 -2q11 -3 11 -16q-1 -5 -4 -9.5t-9 -5.5q-6 -2 -14 0q-71 0 -138 -15q-15 -3 -30 -6.5t-29 -8.5q-2 -4 -3.5 -7.5t-2.5 -7.5
q-14 -45 -39 -81.5t-59 -68.5q-22 -20 -44.5 -38t-47.5 -34q-63 -42 -136 -60q-12 -2 -23.5 -3.5t-23.5 0.5q-16 3 -29 11q-22 15 -16 40q2 7 4.5 13.5t5.5 13.5q8 17 19 31t24 27q83 83 190 133q32 16 65 29.5t68 23.5l6 2t5 2q5 10 7 19.5t3 19.5q3 34 -20 54
q-4 3 -7.5 5.5t-8.5 4.5q-20 8 -44 10q-25 0 -49 -4t-47 -12q-12 -4 -24 -7.5t-23 -8.5q-5 -2 -8.5 -3t-7.5 -2q-12 -2 -18 9q-5 11 1 17q8 11 18 17q15 11 30.5 21.5t30.5 21.5l52 36t52 37q19 14 36 30t31 35q5 8 10.5 16.5t10.5 16.5q19 38 -19 59q-24 13 -51 15
q-148 6 -248 -100q-17 -17 -29.5 -36t-23.5 -39q-14 -26 -19 -52.5t-3 -55.5q0 -5 2 -13q2 -6 4 -11l4 4l4 4q23 35 51 66.5t57 61.5q29 29 66 52q9 6 20 9q7 3 14 -3q10 -7 3 -16q-4 -5 -6 -7q-3 -3 -11 -9q-42 -30 -76 -68.5t-66 -79.5q-9 -12 -17.5 -24.5t-17.5 -24.5
q-10 -16 -5 -33q14 -37 11 -76q-2 -20 -8.5 -38t-18.5 -35q-4 -5 -7.5 -9t-8.5 -8q-11 -8 -22.5 -7t-19.5 12q-4 5 -6.5 11.5t-4.5 12.5q-5 17 -3.5 34t6.5 34q10 35 27 70q2 4 4 7.5t4 7.5q4 8 1 18q-2 5 -3 11t-3 11q-20 75 15 144q27 54 67.5 96t95.5 70q85 45 183 37
q22 -2 42 -8.5t37 -22.5q29 -27 20 -64q-2 -11 -6.5 -21t-9.5 -19q-25 -40 -58 -69q-23 -22 -49.5 -41t-52.5 -37q-2 -2 -5.5 -4t-3.5 -7zM417 226q-6 -2 -10 -2.5t-8 -2.5q-38 -13 -74.5 -28.5t-71.5 -35.5q-37 -21 -71 -45.5t-63 -55.5q-21 -21 -34 -44q-2 -5 -4.5 -9.5
t-4.5 -9.5q-5 -14 10 -18q8 -3 15 -3t14 2l16 4t16 5q46 17 86 41.5t78 55.5q47 40 82 93q8 11 13.5 24t10.5 29zM61 263q-11 -20 -15.5 -38t-6.5 -38q-1 -5 -1.5 -10.5t4.5 -10.5q16 14 21 40.5t-2 56.5z" />
    <glyph glyph-name="C" unicode="C" horiz-adv-x="525" 
d="M1 91q-1 20 1.5 38.5t7.5 37.5q29 134 91 248t157 213q15 15 31 29t35 25q18 11 35 17q31 11 54 -12q7 -7 12 -21q6 -19 4 -37.5t-7 -36.5q-2 -8 -5 -15.5t-6 -15.5q-16 -45 -35.5 -87t-43.5 -83q-5 -8 -10.5 -15.5t-10.5 -15.5q-2 -3 -5 -6.5t-6 -5.5q-11 -8 -21 -1
q-11 8 -6 21q2 5 4.5 9t5.5 9q23 36 44 73t38 77q5 13 10 25.5t10 26.5q3 8 5.5 17.5t4.5 18.5q2 8 0 16t-5 16q-5 14 -18 8q-8 -2 -15 -7q-11 -8 -21.5 -15t-20.5 -15l-27.5 -27.5t-26.5 -27.5q-93 -105 -150 -234q-44 -96 -63 -199q-9 -44 -2 -85q4 -30 21 -54
q15 -21 41 -20q22 1 48 11q31 13 60 29t56 36q6 4 11.5 8t11.5 9q46 33 87.5 70.5t80.5 78.5l34 36l34 36q5 5 7 6q7 3 14 -1q8 -8 4 -15q-7 -12 -15 -20q-10 -11 -19.5 -21t-20.5 -21q-27 -27 -53.5 -54t-54.5 -53q-74 -71 -160 -126q-23 -14 -47 -25.5t-51 -17.5
q-8 -2 -15.5 -3t-15.5 -1q-40 -3 -69 32q-31 40 -34 92v25z" />
    <glyph glyph-name="D" unicode="D" horiz-adv-x="637" 
d="M458 293q5 0 9.5 0.5t9.5 0.5q41 5 81.5 7t82.5 0q9 0 18 -3q11 -5 9 -17q-2 -11 -14 -13h-8.5t-8.5 1q-25 2 -49.5 0.5t-49.5 -3.5q-17 -1 -32.5 -2.5t-32.5 -3.5h-6q-11 -1 -17 -2t-10 -3.5t-7.5 -8t-8.5 -14.5q-73 -125 -189 -205q-27 -19 -57 -33.5t-61 -27.5
q-7 -3 -14.5 -4.5t-15.5 -3.5q-21 -4 -34 7t-14 33q0 20 10 42q8 14 16 27t19 24q26 27 53 50q50 40 104 71t114 53l18 6t18 5q13 5 18 15q13 26 26 51.5t25 51.5q26 54 38 112q9 50 1 97q-5 22 -16.5 37t-29.5 29q-20 15 -42 21t-46 9q-59 6 -115 -20q-14 -6 -27.5 -14
t-27.5 -16q-42 -26 -70.5 -63.5t-46.5 -82.5q-8 -17 -10 -35t-1 -37q1 -10 1.5 -20.5t5.5 -21.5q7 5 9 8q12 19 24 37t24 37q26 38 57.5 71.5t68.5 62.5q7 5 16 10q8 2 12 2q11 0 15 -10q2 -6 -3 -15q-5 -5 -8 -7q-33 -26 -59.5 -58t-50.5 -66q-21 -30 -40.5 -61t-36.5 -63
q-9 -15 -3 -31q1 -2 1.5 -5t1.5 -5q8 -18 7 -36t-5 -35q-6 -26 -17 -49.5t-25 -45.5q-4 -5 -7.5 -9t-8.5 -8q-8 -6 -16.5 -5t-14.5 9q-4 4 -6 8.5t-4 9.5q-7 25 -4 45q7 47 26 92q6 14 11.5 29t11.5 29t0 28q-17 48 -14 96q2 38 16 70q45 98 134 156q20 14 42 25t45 18
q52 14 103 9.5t94 -30.5q60 -37 69 -105q4 -27 1.5 -53t-8.5 -52q-11 -46 -27.5 -89.5t-37.5 -85.5q-2 -5 -5.5 -10.5t-3.5 -13.5zM377 236q-2 0 -3 0.5t-2 0.5q-4 -2 -7.5 -2.5t-8.5 -2.5q-122 -45 -222 -131q-8 -8 -16.5 -17t-16.5 -18q-8 -8 -14 -18.5t-10 -21.5
q-4 -12 -6 -26q0 -12 11 -10q7 2 13.5 3.5t12.5 3.5l39 19.5t38 20.5q21 11 39 26l36 30q35 29 62.5 62.5t50.5 71.5q2 3 4 9zM41 161q2 2 3.5 3t2.5 3q11 17 18 35.5t12 38.5q2 7 1.5 13.5t-0.5 13.5q2 4 -3 6q-6 -6 -12 -20t-11 -31t-8 -34t-3 -28z" />
    <glyph glyph-name="E" unicode="E" horiz-adv-x="551" 
d="M161 372h-19q-20 1 -31 12.5t-12 31.5q0 8 2 16t5 16q14 32 36 61q75 96 181 161q45 29 102 40q15 3 28 2q44 -8 54 -49q9 -35 -1 -69q-6 -21 -14.5 -40.5t-20.5 -37.5q-8 -12 -16.5 -24t-17.5 -23q-3 -4 -7 -7t-9 -6t-11 -2t-10 5q-9 11 -2 21q4 6 8 11.5t9 10.5
q26 29 44 65q7 12 11.5 25.5t5.5 27.5q2 13 -1 24q-6 36 -41 30q-14 -2 -27.5 -6.5t-26.5 -9.5q-9 -5 -18 -9.5t-17 -9.5q-48 -29 -90 -65t-77 -80q-9 -11 -17 -22.5t-14 -24.5q-2 -5 -6 -13q-1 -5 -3 -10t2 -10t9 -4l10 2q23 5 43.5 12.5t41.5 15.5q4 2 7.5 3t8.5 3
q11 2 17 -8q3 -4 4 -8.5t-2 -8.5q-3 -5 -6.5 -8.5l-7.5 -7.5q-8 -7 -17 -13t-17 -14q-57 -49 -98.5 -108t-70.5 -128q-9 -24 -14.5 -48t-3.5 -50q1 -17 6 -33q5 -14 16 -20.5t26 -4.5q17 3 32 9q59 22 113.5 51.5t105.5 66.5q35 24 67.5 50.5t63.5 55.5l38 34l38 34
q3 2 5.5 4.5t5.5 4.5q6 4 9 5q10 3 17 -6t0 -17q-4 -7 -11 -12q-26 -20 -49 -41.5t-46 -42.5q-49 -45 -101 -83.5t-109 -70.5q-30 -17 -61 -33t-63 -29q-13 -5 -25.5 -9.5t-25.5 -6.5q-27 -5 -50 7t-34 37q-8 20 -10.5 40t-0.5 40t7 39t11 38q19 51 47.5 96.5t63.5 87.5
q5 7 11 13.5t12 13.5q2 2 3.5 4z" />
    <glyph glyph-name="F" unicode="F" horiz-adv-x="404" 
d="M60 250q-2 -3 -4 -5.5t-4 -4.5q-4 -8 -10.5 -10t-11.5 0q-7 2 -11 8.5t-3 14.5q3 13 12 24q5 4 9.5 7.5t9.5 8.5q5 3 8.5 6t8.5 6q1 42 -4 83t-22 80q-8 20 -16 39.5t-13 40.5q-1 3 -1.5 6.5t-2.5 7.5q-4 15 0 28t14 25q8 8 17.5 14.5t19.5 11.5q41 21 86 33
q38 11 75.5 19.5t75.5 14.5q25 4 49.5 8t50.5 6q55 7 109.5 7.5t109.5 -9.5q6 -1 12 -3l12 -4q18 -9 17 -30q-3 -32 -28 -51q-5 -4 -11 -5q-7 -4 -13 2q-5 5 1 13q2 4 4.5 7t4.5 6q4 6 7 12t3 14q-3 2 -6 3.5t-7 2.5q-19 3 -38 5.5t-39 3.5q-53 2 -104.5 -2.5t-102.5 -13.5
q-8 -1 -15 -2t-15 -2q1 -4 1.5 -7t0.5 -6q3 -13 -7 -23q-7 -7 -11 -14.5t-9 -15.5q-35 -58 -64.5 -117.5t-55.5 -122.5q-2 -5 -4.5 -9t-1.5 -11q5 2 8 3t6 3q64 31 136 45q6 1 11.5 1.5t11.5 0.5q25 -2 25 -28q-1 -14 -6.5 -25.5t-13.5 -22.5q-4 -4 -7 -5q-5 -3 -10 -0.5
t-5 8.5q-1 5 1 16q1 5 2.5 9t-1.5 10q-8 0 -13 -1q-37 -5 -71 -17.5t-66 -30.5q-12 -6 -18.5 -10t-10.5 -9t-7 -12t-8 -19q-12 -29 -18.5 -58.5t-11.5 -60.5q-5 -35 -12 -70l-14 -70q-2 -8 -5 -16.5t-6 -16.5q-2 -3 -4.5 -6.5t-5.5 -6.5q-7 -6 -15.5 -3.5t-11.5 10.5
q-4 16 -1 29q5 36 12 71q8 40 19 79t24 77q2 5 2.5 9t1.5 9q1 1 -1 8zM252 667q-5 -1 -8.5 -1h-5.5q-14 -4 -27 -6.5t-27 -6.5q-26 -7 -52 -15t-51 -20q-8 -5 -16 -9.5t-15 -9.5q-11 -8 -13 -14.5t3 -19.5q8 -23 15.5 -46t15.5 -46q5 -16 9.5 -32t6.5 -33t2.5 -34t1.5 -34
q0 -5 5 -5q33 85 70.5 167.5t85.5 164.5z" />
    <glyph glyph-name="G" unicode="G" horiz-adv-x="652" 
d="M49 149q8 -4 17 0l14 6t15 6q36 17 68 39.5t63 47.5q34 26 67 51.5t66 51.5q11 8 22.5 15.5t23.5 13.5q9 5 19 8.5t20 6.5q5 1 10 1.5t10 -0.5q31 -3 34 -36q0 -10 -2 -19.5t-5 -19.5q-6 -15 -11.5 -30t-11.5 -30q-2 -4 -2.5 -7.5t-2.5 -8.5q5 -2 8.5 0t7.5 4
q41 18 82.5 32.5t84.5 25.5q11 4 20 5q6 0 16 -2q9 -3 11 -14q0 -13 -10 -17q-5 -2 -9 -3t-9 -3q-13 -3 -25.5 -6t-24.5 -6q-14 -5 -28 -9t-28 -9q-28 -9 -54.5 -20.5t-52.5 -25.5q-11 -5 -14 -16q-5 -14 -10 -28.5t-10 -28.5q-11 -31 -24 -61t-30 -58q-32 -56 -84 -97
q-42 -34 -91 -43q-6 -2 -8 -2q-23 -3 -36.5 9t-11.5 35q0 16 6 31q8 24 21 49q14 26 32 49.5t39 45.5q36 35 75.5 66t84.5 56l12 6t6 4.5t3.5 6.5t5.5 12q10 24 19 47.5t17 47.5q2 8 4.5 15t1.5 15q-5 4 -10 3.5t-9 -2.5l-22 -10t-21 -12q-23 -14 -44.5 -30t-42.5 -34
q-32 -27 -64.5 -53t-67.5 -51q-39 -27 -80 -49q-11 -5 -21.5 -9t-21.5 -5q-45 -3 -53 41q-6 32 2 64q5 19 11.5 37t14.5 35q20 44 46 84t57 77q27 33 55 65t57 64q28 31 60.5 56.5t67.5 48.5q20 12 40.5 21.5t43.5 14.5q12 4 24.5 4.5t24.5 -1.5q21 -2 36 -15q18 -16 18 -39
q-1 -9 -1.5 -18t-0.5 -18q4 -3 5.5 -1.5l3.5 3.5q13 10 25 20t26 20q9 6 19 11q4 2 12 4q11 2 17 -7t-1 -19q-5 -5 -9.5 -9t-9.5 -8q-23 -17 -44.5 -36t-41.5 -39q-11 -11 -18.5 -22.5t-11.5 -26.5q-2 -8 -5 -14.5t-6 -14.5q-2 -5 -5.5 -8.5t-6.5 -7.5q-9 -10 -19 -6
q-13 5 -12 18v11t2 11q6 24 20 48q8 10 11 25q3 18 5.5 36.5t5.5 37.5q0 2 0.5 3t0.5 3q-1 14 -15 18q-20 3 -41 -3q-17 -5 -32.5 -13t-30.5 -18q-33 -20 -62.5 -44.5t-56.5 -52.5q-28 -29 -54.5 -58.5t-51.5 -61.5q-30 -38 -56 -77.5t-48 -83.5q-8 -16 -14 -32t-11 -33
q-3 -13 -4 -25.5t4 -25.5zM171 -98q9 -2 17 1l16 6q18 7 34 17.5t30 23.5q37 34 63 80q17 29 29.5 58.5t23.5 60.5q1 2 0.5 4.5t0.5 7.5q-15 -8 -22 -13q-32 -22 -61.5 -46t-55.5 -53q-32 -34 -55 -76q-6 -12 -11.5 -25t-8.5 -27q-2 -5 -2.5 -9.5t2.5 -9.5z" />
    <glyph glyph-name="H" unicode="H" horiz-adv-x="764" 
d="M259 341q-8 -46 -24.5 -87t-31.5 -83q-13 -34 -28.5 -67t-32.5 -65q-2 -5 -4.5 -8.5t-4.5 -7.5q-5 -6 -9 -9q-9 -7 -18.5 -3.5t-11.5 14.5q-3 11 0 23q4 20 7.5 40t8.5 40q11 45 24.5 88.5t30.5 86.5q1 3 2 6.5t3 8.5q-8 0 -11 -1q-23 -5 -44.5 -9.5t-44.5 -9.5
q-8 -2 -15 -2t-15 -1q-10 0 -15 1q-15 2 -21 13t-1 25q3 7 7 13.5t9 12.5q31 40 79 65q8 3 15 6.5t15 6.5q23 9 46 11.5t47 -8.5q2 3 3.5 6t3.5 6q10 20 20 40.5t20 40.5q8 17 16.5 34.5t17.5 34.5q8 18 18 32q5 9 13 12q10 6 20 1t11 -16q3 -22 -15 -34q-4 -3 -7 -5.5
t-5 -7.5q-21 -42 -43 -83t-40 -85v-3q2 -8 4 -16.5t4 -16.5q3 -2 6 -1.5t6 1.5q55 14 110.5 25t112.5 20q11 2 21.5 3t21.5 3q10 2 14 2q5 5 7 11l4 12q17 48 37 93t42 90q8 16 16.5 31t17.5 30q5 9 13 16q8 6 16 5.5t14 -5.5q14 -11 6 -28q-3 -5 -7 -11q-14 -20 -26 -41.5
t-22 -44.5q-15 -32 -30 -65l-30 -66q-2 -5 -4.5 -9.5t-0.5 -10.5q7 -2 13.5 -1t13.5 1q20 2 40 2.5t40 1.5q11 1 24 -2q18 -3 23.5 -15t-2.5 -27q-3 -7 -7 -13t-9 -11q-6 -6 -13 -7q-8 -2 -12.5 3t-2.5 13q2 5 3 8.5t3 7.5q-3 5 -6.5 5h-6.5q-29 -2 -58.5 -3.5t-59.5 -5.5
q-2 -4 -4 -7.5t-4 -8.5q-24 -65 -44 -130t-34 -132q-5 -21 -9 -42t-6 -43q-2 -13 -2 -25.5t-1 -25.5q-1 -5 0.5 -10t3.5 -10q4 -8 -3 -15q-8 -6 -16 -1q-12 7 -17 22q-2 6 -2.5 12.5t-1.5 12.5q-1 25 2 49.5t8 48.5q13 71 31 140t42 138q1 4 2 7t2 7v5q-3 0 -6.5 0.5
t-7.5 -0.5q-66 -9 -132 -21t-132 -28zM149 123q5 2 6 5.5t3 7.5q17 38 31.5 76.5t27.5 78.5q2 8 3.5 15t3.5 15q1 2 0.5 5t-0.5 5q-6 -1 -7 -4.5t-3 -6.5q-38 -89 -63 -181q-1 -4 -1 -8t-1 -8q-1 -1 -1.5 -1t-1.5 -1q0 -1 2 -3l1 1v4zM37 327q17 2 27 4q7 1 13.5 2.5
t13.5 3.5q22 5 43.5 10t42.5 10q13 4 15 12q3 8 6.5 16.5t7.5 16.5q1 2 0.5 3.5t-0.5 3.5q-11 5 -21.5 5.5t-21.5 -1.5q-37 -9 -67.5 -28.5t-55.5 -48.5z" />
    <glyph glyph-name="I" unicode="I" horiz-adv-x="430" 
d="M612 670q-5 2 -8 3t-7 2q-37 5 -73.5 5t-74.5 -3q-2 -1 -3.5 -1t-3.5 -1l-30 -50t-27 -51q-20 -42 -38.5 -83.5t-37.5 -83.5q-4 -9 -6.5 -18.5t-4.5 -18.5q-17 -75 -40.5 -148t-53.5 -144q-9 -21 -21 -42q0 -1 -2 -7q6 -2 11.5 -1t11.5 2q20 2 40.5 3t41.5 -1q13 0 26 -5
q28 -9 19 -39q-6 -16 -19 -23q-6 -3 -12 0q-6 5 -3 11q1 6 6 17q-3 2 -5.5 3t-5.5 2q-12 1 -23 0q-61 -2 -119 -13.5t-115 -36.5l-15 -6q-9 -1 -16 7q-7 9 -2 17q4 7 11 12q6 4 12.5 7.5t13.5 5.5q23 10 47.5 16.5t49.5 11.5q4 1 13 4q-6 14 -3.5 28.5t5.5 28.5q9 44 23 85
t30 83q15 40 30.5 79t32.5 78q11 25 11 49q2 29 -4 54q-3 16 -15 28q-17 19 -37 33t-45 20q-16 4 -27 9q-15 8 -16.5 20.5t12.5 21.5q6 5 13 8t15 6q26 9 52.5 16.5t53.5 14.5q74 17 147.5 25t148.5 6q9 0 18.5 -1t18.5 -3l8 -2l8 -2q18 -8 21 -24.5t-12 -30.5q-5 -5 -10 -6
q-8 -3 -13 1t-4 12q0 5 1 10zM198 624q38 -14 68.5 -40t46.5 -66q3 3 3 2q17 36 31 72.5t34 71.5q0 1 -0.5 2t-0.5 2q-15 0 -42 -5t-54.5 -12t-51.5 -14t-34 -13z" />
    <glyph glyph-name="J" unicode="J" horiz-adv-x="635" 
d="M448 308q8 1 13.5 1t10.5 1q35 6 70.5 6.5t70.5 -1.5q8 -1 16.5 -1t16.5 -1q12 -2 18 -4q10 -3 12 -15q1 -11 -12 -18q-5 -3 -11 -3h-11q-18 1 -35.5 1.5t-35.5 1.5q-32 2 -62.5 -1t-61.5 -7l-6 -2t-7 -2q-2 -4 -3.5 -7.5t-2.5 -7.5q-11 -29 -23.5 -58t-26.5 -58
q-11 -22 -23 -42t-26 -40q-32 -43 -80 -76q-12 -9 -25.5 -15t-27.5 -12q-10 -3 -19.5 -6t-18.5 -6q-21 -8 -42.5 -9.5t-43.5 0.5q-22 1 -37 11t-23.5 24t-10.5 30t2 30q15 50 48 89q26 28 54.5 51.5t61.5 41.5q52 28 106 51t111 38q4 1 12 5q2 3 4 9q22 58 43 116l42 116
q11 29 17.5 58.5t12.5 58.5q2 9 2 17.5t-2 18.5q-4 0 -7 0.5t-5 -0.5q-24 -7 -44 -24q-10 -9 -19 -17.5t-18 -18.5q-42 -47 -72 -99q-8 -14 -17 -27.5t-17 -27.5q-12 -18 -13 -35q-1 -13 -5.5 -25t-10.5 -24q-6 -16 -20 -22q-12 -6 -21.5 -0.5t-9.5 18.5q0 6 2 12.5t4 11.5
q5 12 11 23.5t12 22.5q9 16 9 32v30t-1 31l-2 20t-3 21v9t2 9q2 8 8.5 9t11.5 -6q6 -9 9 -20q2 -11 3.5 -22.5t3.5 -22.5q2 -8 2 -12q6 0 7.5 3.5t3.5 6.5q36 56 77 103q17 20 35.5 36.5t41.5 29.5q8 4 16 7.5t17 5.5q17 5 31 -2.5t19 -24.5q6 -18 3 -37q-2 -11 -3.5 -21.5
t-4.5 -21.5q-7 -28 -14 -55.5t-17 -54.5l-34 -96l-34 -96q-1 -2 -1.5 -5t-2.5 -8zM379 252q-4 -1 -7 -1t-5 -1q-48 -15 -94.5 -34t-91.5 -43q-29 -16 -54 -36.5t-48 -45.5q-22 -23 -36 -55q-2 -5 -3.5 -11t-3.5 -11q-5 -17 6 -33t32 -18q20 -1 39.5 0.5t38.5 9.5
q14 6 27.5 12t27.5 12q9 4 19 12q38 27 64 62q29 39 50.5 82t37.5 90q1 2 0.5 3.5t0.5 5.5z" />
    <glyph glyph-name="K" unicode="K" horiz-adv-x="528" 
d="M77 233q-4 -7 -5 -14q-8 -32 -13 -65t-9 -66q-2 -11 -3 -22.5t-3 -23.5q-2 -17 -2.5 -34.5t3.5 -35.5q2 -7 0 -14q-2 -10 -10.5 -13.5t-15.5 2.5q-6 5 -10 14q-2 9 -4.5 18t-3.5 18q-1 13 -1 26t2 26q4 41 9.5 80.5t14.5 79.5q4 19 8 37t9 36q2 7 2 13t-3 13q-9 19 9 28
q10 6 13 18q11 27 20.5 54t20.5 53q48 114 114 219q4 8 9 14.5t10 12.5q14 17 31 12q10 -2 14.5 -9.5t6.5 -16.5q3 -11 4 -23t-2 -24q-2 -11 -5 -22l-6 -22q-3 -8 -8 -17q-4 -6 -14 -4q-8 3 -8 11q0 6 2 16q2 8 3.5 16t3.5 16q4 12 0 22q-2 -2 -3.5 -2.5t-3.5 -2.5
q-4 -6 -5 -9q-38 -69 -72 -138.5t-60 -143.5q-3 -5 -4 -14q9 0 12 1q20 8 38.5 18.5t36.5 22.5q20 15 39 32.5t37 34.5q79 75 147 159q13 15 25.5 30t26.5 29l12 12t13 11q5 3 10.5 5.5t11.5 4.5q8 3 18 -4q6 -5 7 -12.5t-5 -12.5q-26 -21 -47 -46.5t-43 -51.5
q-34 -39 -68 -77t-72 -74q-13 -12 -25.5 -24t-26.5 -24q-47 -39 -105 -67q-9 -4 -19 -7l-20 -6l-6 -2t-7 -2q1 -2 1 -4.5t1 -4.5q16 -38 33 -75t37 -73q4 -7 8.5 -13.5t9.5 -11.5q18 -18 39 -14q10 2 19 3.5t18 5.5q54 23 101 57q39 28 77.5 56t75.5 58q5 4 9.5 7.5t9.5 5.5
q8 6 17 -3t1 -19q-7 -9 -16 -16q-39 -31 -78.5 -61t-81.5 -58q-23 -15 -45.5 -29.5t-47.5 -25.5q-11 -5 -23 -9t-24 -7q-23 -5 -41.5 1.5t-34.5 22.5q-7 7 -13 15t-11 16q-14 25 -28.5 50t-29.5 51q-1 2 -2 4.5t-6 1.5z" />
    <glyph glyph-name="L" unicode="L" horiz-adv-x="527" 
d="M138 46l4 -2h38.5t38.5 1q9 0 18.5 1t18.5 3q17 2 31.5 7.5t29.5 13.5q38 19 69 46t57 60q19 24 37 48.5t36 49.5q4 5 7 9.5t7 9.5q7 7 15 10q5 2 10 -1t5 -9q0 -8 -1 -12q-4 -8 -6 -11q-20 -27 -40 -54.5t-41 -53.5q-14 -17 -28 -32.5t-29 -31.5q-20 -20 -42.5 -36
t-48.5 -29q-23 -11 -47.5 -17.5t-50.5 -8.5q-13 -1 -25.5 -1h-25.5q-19 -1 -38 0q-26 2 -40 -19q-5 -7 -11 -13t-12 -11q-11 -9 -22 -14.5t-25 -4.5q-15 0 -22.5 10t-2.5 24q2 8 6.5 14t10.5 11q12 10 25 17.5t29 12.5q17 6 24 21l14 30t13 30q18 47 34 93t30 94
q4 14 8.5 27t8.5 27q2 6 4 17q-8 -2 -14 -3l-12 -2q-17 -5 -34.5 -6t-35.5 3q-37 7 -57 41q-8 15 -7 28q3 13 14 17t20 -7q6 -8 8 -12q9 -18 23.5 -25.5t34.5 -8.5q33 0 68 16q5 2 6.5 5l3.5 7q2 7 4.5 13t4.5 13q16 54 39.5 104t51.5 98q18 32 40 56q6 7 13 12.5t16 10.5
q17 7 28 3t20 -15q5 -6 8 -12.5t4 -14.5q2 -14 2 -27.5t-5 -27.5q-3 -8 -5.5 -16.5t-6.5 -16.5q-20 -42 -45.5 -79.5t-59.5 -69.5q-9 -9 -19 -17t-21 -16q-7 -5 -14 -9.5t-15 -9.5q-10 -6 -12 -15q-2 -6 -3.5 -12t-3.5 -12q-16 -48 -31 -95.5t-31 -95.5q-10 -30 -20.5 -59
t-24.5 -58q-2 -2 -2 -5t-1 -6zM276 448q11 4 14 6q8 7 16 13t16 14q56 53 91 128q4 9 7.5 18t5.5 19q3 15 1 35q0 14 -11 20q-7 -2 -11.5 -6.5t-8.5 -9.5q-25 -29 -41 -62q-18 -36 -35 -72t-33 -73q-2 -6 -4.5 -13t-6.5 -17z" />
    <glyph glyph-name="M" unicode="M" horiz-adv-x="852" 
d="M181 116q6 4 8 8.5t4 9.5q11 23 22.5 47t22.5 47q62 130 138 256q18 31 38.5 60.5t42.5 58.5q11 14 23.5 28t26.5 26q6 5 12.5 10t14.5 9q22 10 38 1t20 -32q2 -9 2.5 -19t-0.5 -20q-1 -30 -6.5 -60t-13.5 -59q-14 -50 -27 -98.5t-27 -97.5q-2 -6 -3 -11.5t0 -11.5
q2 3 3.5 5.5t3.5 5.5q23 38 48.5 72t53.5 67q10 11 19.5 21.5t20.5 20.5q5 5 11 9t13 7q15 7 27 1t14 -23q3 -16 0 -33q-4 -19 -8 -37t-8 -37q-5 -20 -10.5 -40.5t-10.5 -41.5q-13 -46 -10 -90q1 -11 3 -21t4 -21q3 -16 17 -17q8 -2 12 -4q9 -3 9 -12q0 -8 -9 -13
q-15 -6 -32 -1t-27 19q-7 13 -10 22q-9 25 -9 53q-1 36 4 70.5t15 69.5l24 90q2 7 3 16l-6 -3t-4 -3l-18 -18q-32 -35 -60.5 -73.5t-51.5 -80.5q-4 -7 -7.5 -13.5t-7.5 -14.5q-31 -54 -51 -110q-2 -6 -4.5 -12t-6.5 -12q-6 -13 -21 -10q-14 2 -16 19v9t1 9q6 29 11.5 58.5
t12.5 58.5q11 52 24 103t25 103q9 38 17 76.5t16 76.5q5 24 2 46q-2 -1 -4.5 -1t-4.5 -2q-22 -13 -40 -35q-15 -19 -29.5 -37t-28.5 -38q-24 -35 -45.5 -71.5t-41.5 -73.5q-28 -54 -54.5 -107.5t-52.5 -108.5q-12 -26 -24.5 -51t-24.5 -51l-27 -60l-6 -12t-7 -11
q-10 -16 -26 -12q-16 5 -16 24q0 8 0.5 14.5t1.5 14.5q7 45 19 89t26 88q20 63 41 125.5t41 125.5q10 29 19.5 59t18.5 60q6 19 10 38t5 39v13.5t-3 12.5q-6 3 -11.5 2t-10.5 -3l-15 -7.5t-14 -8.5q-20 -14 -36 -30q-39 -42 -69.5 -88.5t-49.5 -100.5q-6 -18 -12.5 -36
t-12.5 -36q-5 -17 -9.5 -34.5t-5.5 -35.5q-2 -23 -22 -23q-9 0 -15.5 8t-6.5 19q0 4 2 12q13 48 29 93.5t37 90.5q21 44 49 82.5t60 74.5q15 17 33 31.5t40 24.5q7 3 14 5.5t15 4.5q21 5 38.5 -6t23.5 -32q3 -11 3.5 -22.5t-0.5 -22.5q-2 -21 -6 -42t-11 -41l-42 -123
q-24 -71 -48.5 -141.5t-48.5 -142.5q-4 -9 -7 -23z" />
    <glyph glyph-name="N" unicode="N" horiz-adv-x="706" 
d="M159 43q7 3 9 7t4 7q14 28 27.5 55.5t27.5 55.5q44 85 92.5 165.5t102.5 158.5q37 54 87 96q21 18 42 29q3 2 6 2.5t6 2.5q26 11 45 -0.5t22 -40.5q1 -20 -2 -45q-3 -23 -8.5 -46t-12.5 -46q-10 -35 -20 -70.5t-20 -70.5q-20 -71 -25 -150q-3 -36 7 -69q2 -8 6 -13.5
t13 -7.5q3 -1 9 -5q9 -6 8 -13q-2 -9 -11 -11q-10 -3 -20 -2q-26 3 -40 29q-6 12 -9.5 25.5t-6.5 27.5q-4 23 -4 46t2 46q4 43 13 84t20 83q10 32 19.5 63.5t17.5 63.5q5 14 7.5 28t5.5 28q4 14 0 25q-8 0 -11 -2q-20 -7 -37 -21q-20 -17 -37 -34t-32 -37
q-16 -22 -31.5 -43.5t-30.5 -44.5q-45 -69 -85.5 -139t-75.5 -145q-12 -26 -24.5 -52t-25.5 -52q-3 -6 -5.5 -11.5t-6.5 -10.5q-5 -8 -10 -13q-14 -13 -29.5 -9t-21.5 21t-3 35q1 11 2 21.5t3 21.5q6 41 16.5 80.5t24.5 78.5q24 75 51 148.5t56 147.5q10 26 19 52t14 54
q0 5 1 9.5t1 9.5q0 14 -5 18t-19 1q-19 -3 -35 -16q-38 -27 -64 -60q-27 -34 -48 -70t-38 -75q-14 -32 -25 -65t-19 -68l-4 -24t-1 -25q2 -8 -3 -14q-5 -10 -16 -10t-18 10t-5 22q2 6 2 12t2 12q14 51 29.5 100.5t40.5 97.5q11 22 23 43.5t26 41.5q41 63 101 107
q26 18 55 24q26 5 44.5 -9t22.5 -41q1 -6 1 -12.5v-13.5q-3 -38 -17 -79q-6 -20 -13 -39.5t-15 -39.5q-23 -63 -47 -124t-47 -124q-14 -40 -26 -79.5t-20 -81.5q-1 -5 -1.5 -10t-2.5 -12z" />
    <glyph glyph-name="O" unicode="O" horiz-adv-x="599" 
d="M71 113l-5 5q-17 10 -27 24t-18 31q-24 61 -20 123q9 104 54 188t124 151q54 47 126 62q54 12 107 -6q19 -6 34 -17.5t27 -26.5q33 -42 40 -92q4 -23 4 -51q0 -42 -3.5 -82.5t-16.5 -80.5q-16 -51 -37 -100t-48 -95q-20 -34 -45 -64t-53 -58q-27 -26 -59 -41t-68 -23
q-59 -12 -92 41q-13 24 -18 52q-2 8 -2.5 15t-1.5 15t-1 15t-1 15zM123 104q-1 -20 1 -38.5t9 -35.5q14 -35 52 -31q2 1 4 1t4 1q23 6 45 16t41 26q9 8 17.5 16.5l16.5 16.5q42 47 73 99.5t54 110.5q20 53 29.5 106t7.5 110l-2 20t-3 20q-5 21 -14 40t-23 35q-19 21 -42 28
q-42 13 -84 3q-28 -7 -52.5 -20.5t-46.5 -31.5q-30 -24 -54.5 -53t-45.5 -61q-60 -96 -64 -206q-3 -55 22 -101q2 -2 4 -4.5t5 -6.5q2 5 2.5 9t1.5 7q8 30 19 58t27 54q10 17 20 31.5t24 28.5q5 5 11.5 9.5t12.5 9.5q12 5 22 5q11 1 16 -7.5t-1 -19.5q-5 -8 -11 -14
q-5 -7 -10.5 -12.5t-10.5 -12.5q-24 -33 -41 -68t-27 -74q-2 -6 -2.5 -11.5t-2.5 -11.5q3 -1 6 -1t5 -1q5 -1 10 -1t10 -2q9 -4 10.5 -12.5t-6.5 -13.5q-8 -6 -18 -8q-5 -2 -9.5 -1.5t-11.5 -0.5z" />
    <glyph glyph-name="P" unicode="P" horiz-adv-x="647" 
d="M152 195l-4 -14t-4 -15q-9 -38 -22 -74t-28 -72q-7 -16 -15.5 -30t-21.5 -26q-10 -10 -20 -14q-11 -5 -20 -0.5t-13 15.5q-2 5 -3 11.5t0 12.5q0 20 5 45q5 21 11 42t14 41q16 48 35.5 93t41.5 90q4 9 6.5 14t2.5 9.5t-2 10t-6 14.5q-19 40 -25 87q-7 42 2.5 80.5
t36.5 70.5q40 47 88.5 79t110.5 46q30 7 61 6.5t61 -8.5q44 -13 73 -40t43 -72q12 -39 12.5 -78t-9.5 -79q-11 -38 -25 -74.5t-34 -71.5q-27 -49 -64.5 -88t-82.5 -71q-24 -17 -50.5 -25.5t-55.5 -10.5q-11 0 -20 0.5t-19 2.5q-23 6 -38.5 23.5t-17.5 41.5q-1 7 -0.5 14
t0.5 14h-4zM501 416l1.5 3l1.5 3q15 45 18 93q2 20 -0.5 39.5t-10.5 39.5q-12 31 -34 51.5t-55 27.5q-15 3 -30 5.5t-30 1.5h-13t-13 -2q-101 -18 -172 -98q-9 -9 -19 -24q-27 -44 -24 -90q1 -44 18 -84q1 -2 2 -4.5t3 -5.5q5 7 8 12q17 26 33 53l32 54q31 49 69 89
q12 14 24 23q4 3 8.5 5t9.5 4q11 2 19.5 -3t11.5 -14q5 -17 -9 -23q-7 -2 -12 -7l-10 -10q-13 -16 -25.5 -31t-23.5 -32q-59 -85 -112 -178q-7 -15 -6 -30q3 -27 -2 -59q-1 -3 -1 -7t-1 -10q24 55 62.5 95t85 66t97 38t99.5 9zM487 380q-9 0 -16.5 0.5t-14.5 0.5
q-31 -1 -63 -11q-112 -31 -175 -122q-10 -14 -17 -28.5t-10 -31.5q-2 -13 1 -24q7 -25 32 -28h15.5t15.5 2q22 2 41 10.5t36 22.5q100 75 152 196q1 2 1 5t2 8zM123 218q-2 0 -3 1q-2 -3 -3.5 -6l-3.5 -7q-14 -32 -27 -64t-26 -65q-7 -18 -11.5 -36.5t-9.5 -37.5
q-1 -2 -1.5 -5t3.5 -5q2 2 3.5 4t3.5 4q9 14 14 27q20 42 34 85.5t25 88.5q2 4 2 8v8z" />
    <glyph glyph-name="Q" unicode="Q" horiz-adv-x="585" 
d="M335 79q6 -10 11 -19l10 -18q5 -8 11.5 -13.5t17.5 -6.5q9 0 11 -6.5t-3 -13.5q-12 -16 -35 -13q-16 3 -27 17q-5 5 -8.5 11t-8.5 12q-3 5 -5.5 9t-5.5 8q-6 0 -9.5 -3.5t-7.5 -5.5q-29 -23 -59.5 -40t-65.5 -28q-14 -5 -26.5 -7.5t-26.5 -3.5q-29 -2 -49.5 13t-29.5 37
q-5 11 -7.5 22.5t-4.5 23.5q-5 41 6 82q4 15 -2 31q-27 62 -18 129q6 54 24.5 103t46.5 95q43 71 109 128q33 27 70 46.5t79 29.5q21 5 41.5 7t42.5 1q35 -2 60.5 -19t42.5 -46q24 -44 25 -95q1 -24 -2 -48t-8 -48q-7 -38 -18.5 -73t-26.5 -70q-7 -14 -13.5 -27.5
t-13.5 -27.5q-23 -46 -52 -86t-64 -76q-3 -2 -5.5 -5t-5.5 -6zM307 102l4.5 3t3.5 3q134 134 179 317q6 26 10 52.5t3 53.5q-1 23 -6.5 45.5t-17.5 42.5q-27 49 -82 47q-22 0 -43.5 -3t-42.5 -11q-64 -24 -113 -70q-109 -104 -146 -247q-14 -47 -9 -96q0 -3 0.5 -6.5
t5.5 -5.5q1 3 5 9q18 38 42.5 72.5t53.5 65.5q9 10 19 19t21 17q5 5 12 8.5t14 7.5q11 6 24 3q16 -2 18 -16q4 -16 -13 -21q-14 -5 -24.5 -13t-20.5 -18q-35 -35 -63 -75q-19 -27 -33.5 -55.5t-25.5 -60.5q-2 -4 -2.5 -7.5t-1.5 -6.5q10 -14 23.5 -21.5t30.5 -10.5t35 -5
t36 -1q27 0 52.5 -2.5t51.5 -13.5zM271 71q-15 6 -29.5 7t-28.5 2t-26.5 1t-26.5 1q-24 2 -47 7t-44 17q0 1 -4 -1q-4 -15 -3.5 -30.5t3.5 -31.5q2 -13 7 -24q5 -14 17.5 -21t26.5 -5q5 1 10 1.5t10 2.5q37 9 69 26.5t61 41.5q1 1 5 6z" />
    <glyph glyph-name="R" unicode="R" horiz-adv-x="551" 
d="M283 228l12 -8q24 -15 33 -42q4 -11 7 -22.5t5 -22.5q2 -9 4 -18.5t5 -17.5q4 -16 14 -32q9 -17 27 -25.5t40 -1.5q4 1 7 1.5t7 1.5q8 0 14 -8q4 -7 -1 -15q-5 -9 -13 -12.5t-17 -5.5q-63 -9 -102 41q-21 25 -30 58q-2 11 -5 22l-6 22q-1 3 -1 5.5t-1 4.5
q-7 22 -19.5 32.5t-35.5 11.5q-11 1 -22.5 0t-22.5 -2q-5 0 -9.5 -1t-9.5 0q-7 0 -13 3q-10 6 -10.5 16t9.5 16q5 3 10 4.5t11 3.5q17 3 33.5 8.5t32.5 12.5q58 23 107 57.5t92 78.5q24 26 38.5 56t22.5 64q12 61 -24 109q-34 47 -94 53q-26 2 -51 -3.5t-49 -16.5
q-79 -38 -129 -107q-21 -29 -37 -61.5t-24 -67.5q-5 -23 -4 -45t3 -45q1 -8 2 -16.5t3 -16.5q0 -1 4 -9q2 4 3.5 6.5t3.5 5.5q23 45 49.5 87.5t53.5 85.5q6 10 13 18.5t15 17.5q2 3 6 6t8 5q13 7 27 -1q8 -5 10 -13t-3 -16q-2 -3 -4 -5t-4 -5q-46 -54 -86 -111t-72 -121
q-3 -6 -4.5 -12t1.5 -13q9 -28 9 -56t-5 -57q-6 -33 -18 -65t-26 -63q-4 -7 -8.5 -14t-10.5 -13q-10 -11 -22.5 -10t-20.5 13q-11 14 -11 35q0 22 1.5 43t8.5 42q11 35 23.5 69.5t28.5 67.5q7 14 2 31q-13 38 -16.5 77.5t0.5 79.5q1 26 12 52q21 55 53 101.5t79 83.5
q29 23 60 38.5t66 23.5q84 20 154 -25q21 -13 37 -32t26 -41.5t14 -47t0 -48.5q-14 -88 -76 -150q-74 -75 -169 -120q-5 -2 -9.5 -4.5t-11.5 -5.5zM38 -5q18 18 35 80q7 28 8.5 51t-2.5 37q-9 -14 -16.5 -36t-13.5 -45.5t-9 -46.5t-2 -40z" />
    <glyph glyph-name="S" unicode="S" horiz-adv-x="531" 
d="M270 134q5 -15 8.5 -29t3.5 -28q-1 -38 -21 -71q-10 -14 -20.5 -27t-24.5 -24q-19 -15 -40 -25t-45 -14q-28 -5 -53 1q-23 6 -32.5 23t-1.5 40q2 5 4.5 10t5.5 10q8 14 18 27t21 24q23 23 48 43.5t52 37.5q4 2 7.5 4.5t6.5 4.5q1 0 1.5 1t2.5 2q-2 2 -3.5 5t-3.5 5
q-15 14 -33 24.5t-36 21.5t-36.5 22t-36.5 23q-15 11 -28 24t-21 31q-22 51 -3 103q5 14 11.5 26t14.5 24q17 25 36.5 47.5t42.5 42.5q93 85 205 134q55 23 119 34q14 3 31 1q23 -2 37 -16.5t16 -37.5q1 -17 -2.5 -34t-8.5 -33q-9 -29 -21 -57t-26 -54q-7 -14 -14.5 -27.5
t-15.5 -27.5q-4 -10 -14 -18q-3 -4 -10 -6q-11 -4 -19.5 2.5t-6.5 17.5q0 7 6 15q6 10 14 20q23 32 41 66.5t29 72.5q4 11 5.5 21t3.5 21q1 5 1 15q-1 12 -6 16.5t-17 4.5q-5 0 -9 -0.5t-9 -1.5q-48 -9 -93 -25.5t-87 -42.5q-28 -18 -55 -37t-53 -41q-51 -43 -86 -96
q-8 -12 -14.5 -25t-9.5 -27q-11 -51 26 -85q17 -16 37 -29t40 -24q21 -11 41 -23t37 -28q6 -5 12 -10.5t12 -11.5q5 2 9 4.5t9 5.5q32 16 63 32.5t63 32.5q28 13 56 24.5t57 22.5q8 4 15.5 6t15.5 4q10 2 15 1q12 0 14 -13q3 -12 -8 -17q-4 -2 -8 -3.5t-9 -3.5
q-69 -23 -134 -54t-128 -66q-3 -2 -5.5 -4t-5.5 -4zM233 112q-4 -2 -6 -2.5t-4 -1.5q-32 -19 -60.5 -41t-52.5 -49q-8 -9 -14.5 -18.5t-13.5 -20.5q-2 -3 -3 -7l-2 -8q-1 -7 6 -10q2 -1 8 -3q13 -1 26.5 0t26.5 6q8 5 17.5 9t17.5 9q20 14 35.5 31.5t23.5 41.5q9 33 -5 64z
" />
    <glyph glyph-name="T" unicode="T" horiz-adv-x="343" 
d="M676 660q-5 8 -11 10.5t-12 4.5q-8 2 -15.5 3t-15.5 2q-35 3 -70 4.5t-70 0.5q-13 0 -25.5 0.5t-25.5 0.5q-22 -1 -44 -1.5t-44 -1.5q-1 -4 0.5 -4.5t3.5 -2.5q24 -16 9 -36q-15 -21 -27 -43t-23 -45q-37 -69 -67 -141t-59 -145q-4 -9 -5 -18.5t-3 -19.5
q-8 -51 -21 -100.5t-29 -98.5q-4 -14 -8.5 -26.5t-9.5 -26.5q-6 -15 -13 -25q-3 -8 -9 -11q-7 -6 -15 -4t-12 10q-5 11 -3 27q3 17 6 33t7 33q14 54 30.5 105.5t35.5 102.5q4 11 7.5 21.5t7.5 21.5q7 17 7 32q0 25 0.5 49.5t-0.5 49.5q0 30 -7.5 58.5t-18.5 57.5
q-3 10 -11 19q-11 14 -22 26.5t-24 23.5q-9 8 -19 12.5t-21 7.5q-4 1 -8 1.5t-8 2.5q-12 5 -13 17q-2 14 11 20q5 2 9.5 3.5t9.5 3.5q26 8 51.5 13t51.5 9t52 7.5t52 6.5q14 2 28.5 3t28.5 2q29 2 57.5 4t57.5 3q46 2 91.5 1.5t91.5 -2.5q19 -2 37.5 -4.5t35.5 -7.5
q15 -5 26 -12q9 -6 15 -15q16 -24 -7 -43q-5 -5 -11.5 -8t-12.5 -7q-4 -2 -8 -2q-10 -2 -13 5q-3 6 2 13q2 3 8 9q3 2 5.5 5t5.5 6zM328 678q-13 2 -46.5 -0.5t-72 -7.5t-73 -11.5t-48.5 -11.5q2 -4 4 -6q4 -4 7 -6.5t7 -6.5q24 -23 41.5 -50t25.5 -61q5 -26 9 -51.5
t4 -51.5q0 -4 0.5 -5.5t3.5 -6.5q2 5 4 8.5t4 8.5q20 53 43.5 104t50.5 101q8 14 15.5 28.5t20.5 25.5z" />
    <glyph glyph-name="U" unicode="U" horiz-adv-x="787" 
d="M335 702q-5 3 -9.5 2.5t-8.5 -2.5q-11 -5 -21 -9.5t-20 -10.5q-75 -47 -125 -118q-32 -46 -56 -95.5t-41 -103.5q-5 -17 -7.5 -33.5t-4.5 -33.5q0 -7 -1 -10q-2 -13 -15 -15q-12 -3 -20 7q-6 10 -5 19q1 11 2 21t4 20q4 15 9 29.5t11 28.5q12 31 26.5 61.5t30.5 59.5
q26 48 60 88.5t76 75.5q17 15 36 27.5t39 21.5q19 10 36 11q28 1 43 -23q9 -17 9 -35q0 -11 -2 -21.5t-5 -21.5q-16 -62 -45 -121q-27 -57 -52.5 -115t-49.5 -117q-15 -36 -28 -73t-21 -75q-8 -32 -11 -65t0 -66l2 -14t6 -14q3 1 7 1t6 2q8 7 16.5 13.5t16.5 14.5
q46 46 87 99q37 50 73 99.5t70 101.5q36 55 74.5 107.5t80.5 103.5q17 23 37 42.5t41 39.5q8 7 16.5 12.5t16.5 11.5q14 8 27 2t16 -23q1 -13 -2 -27q-4 -13 -7.5 -25.5t-8.5 -25.5l-54 -129q-20 -47 -39.5 -94t-34.5 -96q-7 -22 -12.5 -43.5t-7.5 -44.5q-1 -15 0 -31
q0 -4 6 -10q6 -7 6.5 -12t-3.5 -11q-4 -7 -11 -9.5t-14 0.5q-13 4 -20 19q-8 21 -8 38q-2 40 7 76q11 50 28 97.5t37 95.5q14 32 29 64.5t29 64.5q6 14 11.5 29t11.5 29q1 2 1.5 5t2.5 8l-16 -12q-50 -45 -88 -95q-36 -48 -71 -96t-68 -99q-31 -49 -65 -95t-69 -92
q-20 -26 -42 -51t-45 -48q-7 -8 -14.5 -14.5t-15.5 -12.5q-13 -10 -26 -14q-31 -11 -49 18q-5 8 -7.5 17t-4.5 18q-5 23 -4.5 47t2.5 47q4 42 13.5 81t23.5 77q23 66 51 130.5t57 127.5q13 27 25 54.5t24 54.5q5 13 8.5 25.5t7.5 25.5q2 8 3 16t-4 15z" />
    <glyph glyph-name="V" unicode="V" horiz-adv-x="669" 
d="M107 279q-9 -5 -16 -8q-9 -5 -17.5 -9.5t-17.5 -7.5q-14 -7 -33 -4q-15 3 -21 18q-4 10 3 19q4 4 9 5.5t10 -2.5q10 -7 19 -5t18 6q26 11 52 32q5 20 9 39.5t9 39.5q19 76 51 152q8 17 16.5 33t19.5 31q6 8 13.5 16t15.5 13q14 9 26 5.5t18 -17.5q5 -10 5 -20v-16t-2 -16
q-23 -107 -83 -192q-10 -14 -21 -27.5t-22 -27.5q-10 -11 -11 -24q-5 -27 -9 -53.5t-6 -54.5q-1 -33 1 -66t9 -65q4 -21 14 -43q3 -6 7 -12l8 -12q11 -13 28 -8q21 4 42 17q9 6 18.5 12.5t17.5 14.5q35 29 66 63t57 72q29 42 52.5 85t41.5 91q11 27 21 54.5t20 55.5
q14 36 21.5 73t12.5 75q2 13 1.5 26t-1.5 27q-2 18 -14 29q-7 5 -12 16q-6 14 9 23q13 9 27 3q15 -6 24 -19q7 -9 9.5 -19.5t3.5 -21.5q2 -26 -1.5 -52t-8.5 -52q-14 -66 -39 -128q-6 -16 -12.5 -32t-12.5 -33q-15 -42 -34 -81t-41 -77q-33 -57 -74 -105.5t-90 -91.5
q-16 -14 -33 -26t-37 -20q-15 -7 -33 -10q-29 -6 -51 16q-9 9 -16 19t-11 22q-5 12 -9 24.5t-8 26.5q-19 88 -10 182q1 5 1 10t1 12zM257 597q-10 -13 -23.5 -42t-25.5 -61t-20 -60.5t-8 -39.5q17 18 34 51t31 78q10 29 12 44t0 30z" />
    <glyph glyph-name="W" unicode="W" horiz-adv-x="778" 
d="M715 657q8 -40 3 -84.5t-13 -86.5q-23 -115 -72.5 -222.5t-118.5 -201.5q-26 -35 -53.5 -65.5t-67.5 -47.5q-15 -6 -32.5 -7.5t-34.5 2t-31 13t-21 25.5q-18 38 -20.5 74.5t-0.5 78.5q2 31 5 58.5t7 58.5q-15 -28 -27 -47.5t-28 -46.5q-14 -23 -28.5 -49t-31.5 -50.5
t-36.5 -46.5t-42.5 -36q-23 -15 -40 -11.5t-27.5 17.5t-16 34.5t-6.5 39.5q-1 42 4.5 87t14.5 86q-26 -20 -52 -34t-52 -6q-8 3 -10.5 9.5t-1 13.5t7.5 11.5t14 1.5q9 -3 19 0.5t20 9t19 12t15 11.5q10 8 18 15t18 15q5 16 10.5 32t10.5 32q15 42 32.5 83.5t38.5 82.5
q14 29 33.5 60.5t45.5 53.5q18 16 38.5 18.5t31.5 -16.5q14 -24 8 -49t-17 -48q-30 -69 -75 -130t-99 -112q-5 -5 -10 -9.5t-10 -9.5q-2 -9 -5.5 -21t-5.5 -20q-11 -48 -19 -101t1 -101q3 -16 9 -23t13.5 -7t16.5 6t18 16q17 18 30.5 36.5t27.5 38.5q45 68 87 139.5
t74 145.5q4 8 9 10t9.5 -0.5t7.5 -8t2 -12.5q-13 -80 -24.5 -160.5t-4.5 -161.5q1 -10 3 -21.5t6.5 -22t12.5 -18t22 -9.5q21 -3 39.5 7t34.5 23q26 22 46 46.5t39 52.5q48 71 85.5 146.5t60.5 157.5q10 35 17.5 70t10.5 71q2 15 3 29.5t0 29.5q0 5 -0.5 18t-3.5 25
t-10.5 18.5t-22.5 -2.5q-8 -5 -15 -2t-10.5 9t-2.5 13t9 12q15 9 30 9.5t27.5 -6.5t22 -20.5t12.5 -30.5zM143 502q-40 -79 -68 -158q69 72 115 157q8 16 16.5 32.5t13.5 33.5q2 6 3.5 15.5t0.5 17t-6 8.5t-15 -10q-19 -20 -33.5 -45.5t-26.5 -50.5z" />
    <glyph glyph-name="X" unicode="X" horiz-adv-x="652" 
d="M341 426q5 3 8 8q38 48 78.5 92t82.5 88q34 36 73 64q18 13 34 21q15 8 30 7q18 -1 27 -16.5t1 -31.5q-5 -9 -14.5 -10.5t-15.5 6.5l-4 6t-4 7q-8 -1 -13.5 -4.5t-10.5 -7.5q-14 -11 -27.5 -22t-26.5 -23q-61 -58 -115 -120.5t-103 -130.5q-12 -15 -12 -33q-1 -44 -2 -87
t3 -87q2 -20 3.5 -40.5t6.5 -40.5q5 -17 10 -34.5t14 -33.5q3 -5 5.5 -9.5t9.5 -6.5q9 3 16.5 8.5t14.5 12.5q12 13 24 25t23 26q34 39 66.5 78.5t66.5 78.5q15 18 30.5 35.5t30.5 35.5q2 2 4.5 4t5.5 4q2 2 7 4q9 2 13 -4q7 -5 2 -13q-3 -8 -9 -14q-36 -45 -72.5 -89.5
t-73.5 -89.5q-22 -27 -45 -52.5t-49 -49.5q-8 -8 -16.5 -14t-16.5 -11q-27 -17 -49 5q-11 11 -17 23q-12 23 -19.5 46.5t-12.5 48.5q-8 43 -11 86t-3 88v16q0 1 -0.5 1t-0.5 1q-3 2 -4 0.5t-3 -3.5q-48 -68 -92.5 -137t-82.5 -143q-5 -11 -9.5 -22t-6.5 -23q0 -2 -2 -6
q-5 -14 -18 -14q-7 0 -12.5 4t-7.5 12q-1 4 -1.5 8.5t0.5 9.5q2 10 4.5 19.5t6.5 18.5q6 14 13 27t15 26q30 54 64 105t69 101q16 23 31.5 45t32.5 45q9 12 9 27q3 45 9 88t11 88q3 19 3.5 38t2.5 38v11.5t-2 11.5q-6 32 -38 23q-15 -4 -31 -12q-26 -14 -45 -33
q-46 -45 -79 -104q-20 -38 -38.5 -76t-33.5 -79q-7 -19 -12.5 -38t-9.5 -39q-1 -5 -1.5 -9t-2.5 -7q-3 -6 -9 -8q-8 -2 -12 6q-7 12 -5 29q3 21 9 40q20 70 51 134t74 123q17 24 37.5 45t46.5 37q14 8 27.5 14t28.5 9q24 6 48 -4.5t31 -42.5q2 -12 3.5 -24.5t0.5 -24.5
q0 -31 -3.5 -60.5t-8.5 -59.5q-2 -16 -4.5 -32t-4.5 -32q2 0 2.5 -0.5t1.5 -0.5z" />
    <glyph glyph-name="Y" unicode="Y" horiz-adv-x="784" 
d="M561 497q-11 -2 -18.5 -7t-13.5 -11q-12 -9 -23.5 -19t-21.5 -21q-51 -52 -97 -106q-34 -39 -67 -78.5t-66 -78.5q-39 -45 -83 -79q-15 -12 -35 -11q-16 0 -26 15q-10 16 -11 35q-3 44 6 89q5 23 11.5 45t14.5 45q21 61 49.5 118.5t61.5 113.5q12 20 24 39.5t23 39.5
q5 9 9 18.5t8 18.5q1 2 1 5t1 7q-8 1 -14.5 -1.5t-11.5 -6.5q-8 -5 -16 -11t-15 -13q-11 -11 -20.5 -21.5t-18.5 -22.5q-54 -71 -93 -150q-14 -29 -28.5 -58.5t-28.5 -58.5q-8 -17 -14 -34t-8 -35q-2 -15 -16 -17q-6 -2 -12 2t-9 12q-4 10 -1 22q5 14 9 28t10 27
q33 73 71.5 142t86.5 134q22 30 52 59q12 12 25 21.5t30 15.5l16 4t16 0q28 -5 30 -32q2 -19 -2 -33q-3 -11 -7.5 -20.5t-9.5 -19.5q-9 -17 -18.5 -33.5t-19.5 -33.5q-20 -33 -37 -62q-31 -53 -55 -108t-44 -112q-9 -29 -14 -57t-5 -58q0 -6 0.5 -12.5t5.5 -11.5q2 1 4.5 1
t4.5 2q7 5 14 10.5t13 12.5q16 16 31.5 32t29.5 33q39 47 77.5 93t77.5 92q17 20 35 38.5t36 37.5q27 29 59 50q7 5 14 9t15 6q35 11 46 -23q2 -6 3 -13t1 -13q1 -18 -1 -36t-6 -35q-8 -49 -18 -98t-23 -97q-1 -2 -1 -8q5 -2 7.5 -0.5t5.5 3.5q23 11 44.5 21t44.5 21
q53 23 114 37q7 1 13.5 2t13.5 2q5 2 10 0q13 -3 16 -15q2 -14 -11 -20q-6 -2 -14 -4q-20 -5 -39.5 -8.5t-39.5 -10.5q-38 -12 -73 -28t-70 -33l-36 -21q-3 -10 -6.5 -19.5t-6.5 -19.5q-13 -40 -26.5 -80t-32.5 -78l-18 -36t-20 -35q-20 -32 -47 -57t-60 -43q-14 -7 -27 -10
q-34 -6 -49 23q-10 17 -10 34q-1 12 1 23.5t6 23.5q15 51 47 99q17 26 36 49.5t41 45.5q23 23 47.5 42.5t51.5 36.5l12 8t13 8q11 6 12 18q7 29 13.5 56.5t12.5 56.5q9 38 17 76.5t13 76.5l2 18t-1 20zM482 123h-5q-7 -3 -14 -8q-54 -37 -94 -83.5t-71 -103.5
q-5 -11 -9.5 -22.5t-9.5 -23.5q-3 -9 -5 -18.5t-1 -19.5q0 -10 3 -17q3 -13 16 -8q7 3 14 6.5t13 8.5q32 21 55 49t41 61q21 41 37 83t30 87v9z" />
    <glyph glyph-name="Z" unicode="Z" horiz-adv-x="675" 
d="M234 340q6 4 12.5 7t12.5 7q56 35 122 49q25 6 52 4q30 0 46 -27q17 -25 14 -54q-2 -19 -6.5 -37t-9.5 -35q-2 -5 -3 -8.5t1 -9.5q4 2 7.5 2.5t7.5 2.5l111 42q20 7 40.5 10t41.5 5q6 2 14 0q15 -2 17 -16q0 -14 -12 -18q-6 -2 -10 -2q-28 -4 -55.5 -10t-53.5 -16
q-29 -10 -56.5 -20t-56.5 -21q-18 -6 -26 -24q-27 -50 -56.5 -95.5t-58 -83.5t-53.5 -67t-42 -45q-18 -17 -38 -32.5t-40 -29.5q-31 -21 -72 -32q-11 -4 -22.5 -4.5t-22.5 1.5q-14 2 -25 13.5t-13 28.5q-3 17 3 35q6 21 20 41q15 23 33 43.5t38 39.5q28 25 56 49t58 45
q27 20 54 39l54 38q41 29 89 51q13 6 19 20q8 21 15 41.5t12 41.5q2 6 2.5 12t1.5 13q0 13 -5 22q-8 15 -23 15q-9 -1 -17.5 -0.5t-16.5 -1.5q-23 -5 -45.5 -12t-44.5 -18q-46 -22 -84 -50l-42 -32t-43 -32q-16 -12 -30 -26t-28 -30q-6 -8 -9 -11q-5 -5 -12.5 -5.5
t-12.5 3.5q-11 10 -3 25q2 3 4.5 5.5t4.5 5.5q60 66 117 131.5t114 133.5q22 26 41.5 52.5t39.5 52.5q19 24 29 49q4 10 6 24q3 24 -22 26q-5 0 -10 -0.5t-10 -1.5q-12 -4 -23 -7.5t-22 -8.5q-115 -51 -199 -144q-9 -10 -18 -19.5t-17 -19.5q-7 -9 -13 -18l-12 -18
q-7 -9 -16 -8q-11 2 -14 13q-2 6 0 13q1 7 6 15l6 10t8 10q17 20 34 39.5t37 36.5l7.5 7.5t7.5 6.5q42 42 90.5 70.5t102.5 49.5q13 5 26.5 8.5t27.5 3.5q19 0 38 -11q23 -14 26 -42q2 -21 -6 -41q-12 -34 -34 -62q-30 -40 -61.5 -78.5t-64.5 -75.5q-11 -11 -20 -23t-20 -23
zM398 160q-7 -2 -10.5 -3.5t-5.5 -2.5q-15 -9 -30 -17.5t-29 -18.5q-34 -23 -66.5 -46.5t-64.5 -49.5q-24 -20 -47.5 -41t-47.5 -43q-27 -24 -49 -59q-3 -6 -6.5 -12.5t-6.5 -13.5q-5 -13 -2 -26q3 -11 14 -11q14 -2 29 3q33 10 63 30q38 25 72 59q42 40 87.5 100.5
t99.5 151.5z" />
    <glyph glyph-name="bracketleft" unicode="[" horiz-adv-x="316" 
d="M93 -39q-6 0 -12 -0.5t-12 0.5q-17 2 -30 6q-39 17 -38 58q0 11 1.5 22.5t3.5 22.5q11 54 25 105.5t28 103.5q14 51 26.5 101t29.5 99q8 24 16.5 48t16.5 47q6 17 13 32t17 29q10 15 19 24q16 17 36 23.5t43 4.5q5 0 9 -0.5t9 -1.5q8 -2 12 -4q10 -3 10 -14t-10 -14
q-8 -3 -15 -5.5t-15 -3.5q-44 -4 -63 -45q-8 -15 -15 -30t-12 -30q-23 -59 -41 -118t-34 -120q-11 -44 -23 -86.5t-23 -86.5q-5 -20 -9.5 -40t-9.5 -40l-3 -24q-1 -9 7 -14q12 -8 29 -8q14 -1 27 -1h27q6 0 16 -2q14 -4 14 -16q0 -5 -3.5 -10t-8.5 -7q-3 -2 -6 -2t-7 -1
l-45 -3v1z" />
    <glyph glyph-name="backslash" unicode="\" horiz-adv-x="69" 
d="M22 483q1 34 1 67.5v67.5q1 18 0.5 36t-0.5 36v10.5t2 10.5q2 11 14 13t18 -11q2 -5 4 -15q2 -11 3 -20.5t2 -20.5q3 -59 2 -117.5t-4 -117.5q-2 -33 -3 -66t-3 -65l-4 -70l-4 -70q-2 -24 -2.5 -48t-2.5 -49q-1 -13 -1.5 -25.5t-2.5 -25.5q-2 -17 -12 -25q-8 -7 -15.5 -5
t-9.5 13q-2 5 -3 11.5t-1 12.5q0 16 0.5 31.5t1.5 32.5q3 69 6.5 138t7.5 139q2 48 3 77t3 55z" />
    <glyph glyph-name="bracketright" unicode="]" horiz-adv-x="341" 
d="M296 652q-10 1 -18.5 2t-17.5 2q-8 1 -15.5 1t-15.5 1q-5 0 -10 1t-10 3t-7.5 6.5t-2.5 9.5q2 12 13 15q2 0 4 0.5t4 0.5q21 0 41.5 -0.5t41.5 -4.5q3 -1 6.5 -1.5t6.5 -1.5q19 -8 22 -26q3 -14 2 -26q-5 -27 -12 -54q-14 -44 -27.5 -87t-27.5 -88q-19 -63 -37.5 -126
t-36.5 -126q-11 -36 -21 -71.5t-21 -71.5q-2 -6 -4.5 -12.5t-5.5 -11.5q-8 -18 -27 -20q-23 -3 -46.5 -7.5t-47.5 -2.5q-4 1 -7.5 1t-6.5 1q-9 4 -11 12.5t4 16.5q7 8 20 10q11 0 16 1q31 3 61 9q8 0 11 9q1 5 5 15q18 60 36.5 119t37.5 119q14 44 27 87.5t26 87.5
q11 35 21 71t20 71q5 16 7.5 32t2.5 34z" />
    <glyph glyph-name="asciicircum" unicode="^" horiz-adv-x="260" 
d="M149 591q-6 -5 -9.5 -9t-7.5 -8l-36 -33q-7 -5 -18 -11q-2 -2 -5.5 -2h-6.5q-5 -1 -9 2.5t-6 8.5q-1 9 7 16q4 2 7.5 4t6.5 4q23 17 43 36.5t35 44.5q5 7 10.5 11.5t14.5 2.5q17 -3 17 -24q1 -13 1.5 -25t1.5 -24q0 -21 10 -38q4 -6 4 -11q2 -12 -7 -18q-12 -7 -20 -1
q-9 5 -13 12q-11 16 -14 34q-2 6 -3 12.5t-3 15.5z" />
    <glyph glyph-name="underscore" unicode="_" horiz-adv-x="398" 
d="M197 109l-141 -12l-33 -3q-8 0 -12 2q-8 2 -10 11q-2 11 8 16q5 2 10.5 3.5t10.5 1.5q33 3 65 5t65 5q25 2 50 2.5t50 -0.5q8 0 18 -2q5 -2 8.5 -6.5t2.5 -9.5q-2 -12 -13 -14q-3 -1 -6 -0.5t-7 0.5q-8 0 -15.5 0.5t-15.5 0.5h-35z" />
    <glyph glyph-name="grave" unicode="`" horiz-adv-x="204" 
d="M71 659q6 1 11.5 -1.5t10.5 -6.5q11 -9 21 -19t18 -23q5 -6 8.5 -12.5t7.5 -13.5q4 -8 5 -13q3 -9 -5 -16q-10 -5 -17 2q-8 5 -15 14q-11 14 -23 24.5t-26 21.5q-9 5 -13 12q-7 11 -1.5 21t18.5 10z" />
    <glyph glyph-name="a" unicode="a" horiz-adv-x="344" 
d="M118 259q-5 -7 -9 -11l-8 -8q-10 -11 -19.5 -23t-20.5 -23q-16 -18 -31 -30q-11 -10 -23 -14q-11 -5 -21.5 -1.5t-17.5 14.5q-5 9 -7 24q0 11 1 22.5t4 22.5q11 38 33 67t58 47q20 11 43 11q37 -2 46 -37q2 -10 5 -13q8 -9 8 -23q0 -6 -0.5 -12.5t-0.5 -12.5v-20.5
t2 -20.5q6 -52 55 -30q14 8 25 16q12 9 24 18.5t25 18.5q14 11 28 22.5t25 25.5q6 7 14 12q4 4 9.5 3t9.5 -4q7 -10 1 -19q-2 -3 -7 -8q-28 -26 -56.5 -51t-60.5 -47q-14 -9 -28 -14.5t-31 -7.5q-39 -3 -58 30q-8 13 -10.5 26t-4.5 27q0 5 -0.5 10t-1.5 13zM119 305
q-10 8 -15 10t-15 -2q-26 -8 -44 -29q-14 -17 -24 -36t-15 -40q-2 -5 -2.5 -9.5t1.5 -9.5q3 2 6 2.5t5 2.5l16 14t16 15q17 18 33 36.5t32 37.5q2 2 3 4t3 4z" />
    <glyph glyph-name="b" unicode="b" horiz-adv-x="367" 
d="M15 190q2 4 8 12q13 17 25.5 35.5t26.5 35.5q11 13 22.5 24.5t24.5 22.5t27 17q17 8 32.5 2t22.5 -24q2 -7 3 -14t2 -15q1 -7 0.5 -14.5t-0.5 -15.5q3 1 5.5 1t4.5 2q38 15 76.5 25t78.5 18q2 1 5.5 1h6.5q6 0 10.5 -4.5t4.5 -9.5q1 -5 -3.5 -9t-10.5 -6q-17 -2 -33.5 -5
t-33.5 -7q-28 -6 -54.5 -15t-52.5 -20q-3 -2 -11 -6q-2 -8 -4.5 -16t-4.5 -16q-14 -42 -40 -74q-9 -12 -19.5 -22t-24.5 -17q-7 -4 -14 -6.5t-15 -3.5q-17 -2 -27.5 7.5t-8.5 26.5q0 16 10 31q6 9 13 18t15 17q15 17 32.5 30.5t35.5 25.5q12 8 14.5 11.5t4.5 17.5q2 10 3 20
t1 21q0 32 -27 14q-19 -13 -34 -29q-25 -24 -44.5 -51.5t-36.5 -57.5q-8 -15 -15 -30t-15 -31q-1 -2 -1 -2.5t-2 -2.5q-5 -10 -15 -8q-10 3 -13 13v18q1 33 5.5 65t12.5 64q2 9 4 18.5t5 18.5q17 50 36 98.5t44 95.5q11 20 22.5 38.5t23.5 37.5q14 20 32 34q14 9 25 10
q27 3 34 -22q3 -8 3 -16.5t-1 -16.5q-4 -42 -26 -82q-26 -50 -60 -93t-79 -78q-8 -7 -14 -14.5t-8 -18.5q-5 -18 -9 -36t-9 -35q2 -2 4 -3zM55 336q1 0 1.5 0.5t1.5 0.5h1q4 2 7 5q32 28 57 62t44 72q5 12 9.5 24.5t9.5 25.5q6 18 3 38q0 2 -4 10q-4 -3 -7.5 -5t-5.5 -5
q-6 -8 -12.5 -15t-11.5 -15q-30 -45 -51.5 -93t-40.5 -98q0 -4 -1 -7zM152 192q-22 -14 -39.5 -31t-31.5 -37q-6 -9 -9 -20q-1 -2 0 -4.5t1 -5.5q15 4 25.5 11.5t18.5 18.5q11 14 19 28.5t15 29.5q1 2 1 10z" />
    <glyph glyph-name="c" unicode="c" horiz-adv-x="302" 
d="M102 343q-4 -2 -7 -3t-5 -3q-15 -9 -26 -22t-20 -27q-22 -31 -29 -66q-4 -15 1 -32q7 -26 35 -31q17 -3 37 2q17 5 33.5 11.5t32.5 16.5q32 18 62 39.5t59 45.5q8 7 16 13l16 12q6 5 11 6q9 4 16 -5q6 -8 0 -16q-2 -2 -4.5 -5t-5.5 -5q-34 -25 -68 -49.5t-69 -48.5
q-45 -33 -103 -44q-11 -2 -21.5 -2.5t-21.5 0.5q-36 6 -52 36q-16 29 -13 56q8 52 33 92t73 65q14 8 27 8q14 0 22 -8t9 -22q0 -20 -8 -35q-2 -3 -3.5 -5.5t-3.5 -4.5q-7 -7 -14 -4q-6 3 -8 11v11.5t-1 12.5z" />
    <glyph glyph-name="d" unicode="d" horiz-adv-x="384" 
d="M108 177q-8 -8 -14.5 -14t-12.5 -12q-10 -8 -20 -14.5t-22 -10.5q-5 -2 -10 -3t-10 -1q-21 -1 -34 19q-8 14 -10 31q-5 45 6.5 84.5t37.5 74.5q17 21 43 32q37 15 68 -14q3 -3 5.5 -6.5t5.5 -6.5q4 3 5 7t3 9q14 42 32.5 81t41.5 77q10 16 20.5 31t22.5 29q6 6 12 11.5
t12 10.5q3 3 6 4.5t6 3.5q19 11 32.5 3t15.5 -29q0 -15 -3 -28q-9 -31 -20.5 -60.5t-28.5 -57.5q-23 -38 -47.5 -74.5t-53.5 -70.5l-16 -20l-16 -20q-6 -8 -9 -16q-6 -26 -9 -51t1 -51q2 -11 5 -21t10 -19q5 -7 9 -8t12 1q7 3 13.5 6t12.5 7q9 7 18 13.5t17 14.5
q16 17 31.5 33t30.5 33q16 19 31.5 38t31.5 39q5 7 10.5 14.5t10.5 14.5q6 7 12 12q5 3 11 -0.5t4 -9.5q-1 -5 -3 -9l-4 -8q-13 -18 -29 -35q-26 -31 -52 -61t-53 -60q-24 -28 -55 -50q-17 -11 -34 -18q-13 -6 -24.5 -3t-21.5 12q-5 5 -8.5 10.5t-7.5 10.5q-13 23 -16 51
q0 5 -0.5 10.5t-0.5 10.5q-1 5 -1 10v13zM23 159q20 3 37 17q12 11 24.5 22t23.5 22q9 9 11 21t1 23q-1 7 -2.5 13.5t-3.5 12.5q-3 10 -8 21q-10 20 -31 10q-14 -8 -26 -25q-25 -42 -32 -85q-1 -9 -1 -18.5v-18.5q0 -10 7 -15zM316 566q-3 -3 -5.5 -5t-4.5 -4
q-8 -11 -15 -20.5t-15 -20.5q-17 -25 -30.5 -51.5t-25.5 -53.5q-11 -23 -19.5 -45.5t-17.5 -45.5q-2 -2 -1.5 -5t0.5 -7q4 3 5 3q29 36 54.5 73.5t45.5 79.5q10 20 17 40.5t12 42.5q1 4 2 8.5t-2 10.5z" />
    <glyph glyph-name="e" unicode="e" horiz-adv-x="254" 
d="M29 262q-8 -14 -11 -27.5t1 -28.5q2 -8 5.5 -11.5t12.5 -4.5q13 0 24 3q26 8 50 19.5t47 26.5q23 14 46 29t46 29q13 10 27 7q8 -2 10.5 -8t-2.5 -12q-6 -6 -13 -10q-38 -28 -79.5 -51.5t-83.5 -45.5q-31 -17 -64 -20q-39 -4 -57 31q-14 27 -9 56q7 46 42 82
q11 11 23.5 17t29.5 6q23 0 34.5 -18t2.5 -40q-7 -16 -19 -24q-21 -18 -46 -11q-4 2 -8 3t-9 3zM45 288l7 -3.5t7 -2.5q10 -2 17.5 4t9.5 17q1 4 -1 7t-6 2q-5 -1 -8.5 -2t-7.5 -3q-11 -5 -18 -19z" />
    <glyph glyph-name="f" unicode="f" horiz-adv-x="317" 
d="M129 322q2 -5 3.5 -9t3.5 -8q2 0 2.5 -1t2.5 -1q37 -4 74.5 -4.5t75.5 1.5q9 0 18 1.5t18 3.5q3 0 6.5 0.5t5.5 0.5q9 -1 12 -11q2 -9 -7 -16q-6 -2 -10 -3q-8 -2 -16 -3l-16 -2q-35 -4 -69 -5t-69 1q-11 0 -16 -1q-1 0 -5 -2q-2 -11 -2.5 -22.5t-2.5 -23.5
q-18 -131 -66 -252q-8 -20 -17.5 -39.5t-18.5 -39.5q-10 -17 -20 -31q-5 -8 -12 -13.5t-18 -2.5q-12 3 -15.5 11.5t-4.5 18.5q-1 22 0 43q2 34 9 67t15 65q14 53 31 104.5t37 102.5l6 15q0 3 -1 5q-10 2 -19.5 4.5t-19.5 5.5q-10 2 -15 6q-8 5 -9.5 14t5.5 16q6 6 14 9
q27 15 61 17h15q2 5 3.5 8l3.5 7q6 14 12 27.5t12 27.5q2 5 3 8.5t-2 8.5q-2 5 -0.5 9t5.5 6q9 5 13 12.5t9 15.5q11 23 23 45t25 44q5 8 10.5 15t11.5 14q9 9 23 8q19 0 19 -18q0 -6 -1 -13t-3 -12q-10 -23 -21 -41q-18 -30 -44 -56l-7.5 -7.5t-5.5 -8.5q-14 -31 -27.5 -61
t-27.5 -61zM4 -101q4 4 7 10q8 15 16 30.5t15 31.5q23 52 37 105.5t24 109.5q4 33 6 68q1 2 0.5 4.5t-4.5 3.5q-4 -8 -6 -11q-5 -14 -11 -28.5t-11 -29.5q-23 -59 -41 -119t-29 -123q-2 -13 -3.5 -25.5t0.5 -26.5z" />
    <glyph glyph-name="g" unicode="g" horiz-adv-x="403" 
d="M177 324q10 9 18 15q5 5 10.5 9t10.5 8q13 7 24 1t12 -20t-2 -31q-5 -18 -10.5 -36t-11.5 -36q-1 -4 -2.5 -8t-0.5 -9q10 4 14 6q28 14 55.5 29t55.5 29q14 7 27.5 12.5t27.5 11.5q9 3 20 3q9 1 12 -9q4 -11 -5 -16q-3 -3 -7 -4.5t-8 -3.5q-50 -21 -98 -44.5t-95 -50.5
q-2 -2 -4 -2q-17 -9 -26 -28q-18 -42 -41.5 -81t-49.5 -77q-38 -54 -91 -95q-16 -13 -33 -23t-36 -17q-16 -6 -34 -9q-11 -3 -24 -1q-17 2 -26 14t-5 29q4 16 9 27q8 17 18.5 31t22.5 28q22 23 44.5 44.5t48.5 39.5q38 28 75.5 54.5t75.5 53.5q16 9 21 24l30 90q2 3 2 6t1 9
q-6 -5 -10 -8.5t-8 -6.5q-20 -18 -40.5 -36.5t-40.5 -36.5q-17 -14 -33 -26.5t-33 -26.5q-13 -10 -31 -15q-20 -4 -34.5 7t-15.5 31q-1 12 2 26q21 88 90 147q12 11 25 18t30 9q46 5 65 -35q2 -5 4.5 -9.5t4.5 -10.5zM-114 -119q5 0 9 -0.5t7 0.5q27 4 52 20q26 17 50 37
t44 45q46 59 83 129q2 3 3 10q-5 -2 -7 -3.5t-4 -3.5q-31 -23 -61.5 -45.5t-60.5 -45.5q-38 -30 -68 -63q-11 -12 -20.5 -25t-17.5 -28q-3 -6 -5.5 -12.5t-3.5 -14.5zM-1 180q8 0 14 3t11 7q33 23 61 49q14 13 28.5 26t29.5 27q1 2 2 3t2 3q-3 16 -16 31q-8 11 -20 8
q-9 0 -17 -5q-13 -8 -24 -19q-24 -23 -40.5 -51t-27.5 -60q-2 -5 -3.5 -10t0.5 -12z" />
    <glyph glyph-name="h" unicode="h" horiz-adv-x="427" 
d="M-11 111q8 8 12.5 14.5t9.5 13.5q21 33 44 64t49 59q11 12 23 23.5t25 22.5q12 10 25.5 17t29.5 9q8 2 16 0q22 -4 25 -29q3 -20 -2 -43q-2 -14 -4.5 -27.5t-3.5 -27.5q-1 -17 2 -37q3 -13 17 -10q25 5 41 17q11 8 20.5 15t18.5 16q20 18 39.5 37t39.5 38q5 4 8.5 8
t8.5 7q7 5 13 5q8 2 12.5 -4.5t1.5 -14.5q-3 -6 -8 -11q-26 -25 -52 -49l-52 -48q-13 -12 -26.5 -22t-28.5 -18q-18 -9 -37 -12q-36 -3 -51 27q-5 9 -7 18.5t-4 19.5q-2 22 -0.5 43t6.5 43l3 12l-2 4q-3 -2 -6.5 -2.5t-6.5 -2.5q-10 -8 -19.5 -15.5t-19.5 -15.5
q-17 -17 -32.5 -34.5t-29.5 -37.5q-22 -31 -44 -61.5t-44 -61.5q-3 -4 -5.5 -7t-5.5 -6q-10 -10 -20.5 -7.5t-15.5 16.5q-4 12 -4 28q1 11 1.5 21.5t2.5 21.5q12 92 49 174q27 60 58.5 116.5t72.5 108.5q14 17 28 32.5t31 27.5q8 7 19 13q19 9 33 0t13 -29q-1 -9 -2.5 -17.5
t-4.5 -16.5q-4 -11 -8 -21.5t-9 -20.5q-21 -42 -46 -79t-57 -70q-19 -19 -39 -35.5t-43 -29.5q-11 -6 -15 -16q-29 -67 -43 -142v-11zM69 337q6 2 8 3q8 8 15.5 15t14.5 15q15 19 29.5 37.5t28.5 37.5q8 10 14 21t11 22q4 9 7 18.5t6 19.5q1 2 0.5 4.5t-0.5 5.5
q-14 -11 -34 -36.5t-40.5 -55.5t-37 -59.5t-22.5 -47.5z" />
    <glyph glyph-name="i" unicode="i" horiz-adv-x="253" 
d="M-28 203q3 60 37 110q5 8 13 13q10 9 23 3q14 -8 12 -22q-2 -10 -4 -16q-4 -9 -7.5 -17.5t-6.5 -16.5q-6 -15 -10.5 -30t-6.5 -31q0 -7 0.5 -13.5t1.5 -13.5q3 -11 13 -11q5 1 10.5 1t10.5 2q12 2 23.5 7t22.5 10q41 20 76.5 47t67.5 58q4 3 11 10q2 2 8 6q10 3 17 -3
q8 -8 1 -19l-4.5 -4.5l-4.5 -4.5q-20 -20 -43 -37.5t-46 -34.5q-20 -15 -41 -29t-44 -25q-14 -8 -27.5 -13.5t-28.5 -7.5q-49 -8 -67 38q-4 11 -5 21.5t-2 22.5zM42 380q2 17 8.5 32t16.5 29q8 12 21 9q8 -2 13 -8t4 -14q0 -6 -3 -10q-13 -22 -28 -45q-2 -3 -4.5 -5t-4.5 -4
q-7 -5 -13.5 -2.5t-8.5 10.5q0 6 -1 8z" />
    <glyph glyph-name="j" unicode="j" horiz-adv-x="219" 
d="M12 269q-2 1 -4.5 1.5t-4.5 2.5q-17 9 -5 24q2 3 8 9q17 14 28 38q1 3 2 5.5t3 5.5q8 8 19 6q12 -3 13 -15v-11t-2 -11q-3 -18 -9 -36q-5 -18 -11.5 -36t-12.5 -36q-1 -3 -1.5 -7t-2.5 -9q5 2 8.5 3.5t6.5 3.5q35 22 70.5 41t71.5 38q8 4 16 7t16 7q3 1 6.5 2t7.5 1
q13 1 18 -11q3 -13 -9 -19q-2 -2 -3.5 -2.5t-3.5 -1.5q-48 -14 -90.5 -39t-84.5 -51q-11 -7 -20.5 -13.5t-20.5 -13.5t-17 -20q-12 -29 -24 -59t-25 -59t-29 -55.5t-36 -51.5q-32 -38 -75 -59q-11 -5 -21.5 -8t-21.5 -5q-9 -2 -18 -1.5t-17 4.5q-23 8 -25 32q0 16 4 28
q3 13 9 24t14 22q20 30 43.5 57t50.5 52q28 26 58 48.5t62 44.5q25 17 33 42q5 17 11 33t12 33zM-49 102q-5 -4 -7 -5l-4 -2q-16 -13 -31 -24.5t-31 -24.5q-26 -22 -50 -46t-44 -51q-15 -20 -27 -42q-4 -6 -6 -12.5t-4 -13.5q-2 -5 1 -7.5t7 -1.5q15 1 30 6q37 13 67 46
q23 26 40 54t32 58q7 15 13.5 30.5t13.5 35.5zM54 411q2 10 5 21t9 22q5 6 12 10q9 4 16 -1t8 -14q1 -7 -2 -16q-7 -15 -17 -32q-1 -3 -6 -8q-9 -7 -17 -3t-8 14v7z" />
    <glyph glyph-name="k" unicode="k" horiz-adv-x="356" 
d="M-4 138q6 6 8 9q5 7 10.5 13t10.5 13t9.5 13.5t5.5 16.5q0 8 4 14t9 11q12 14 24 23q23 17 47 32.5t50 29.5l8 4t9 3q13 5 20 -6q6 -11 -2 -23l-6 -6t-7 -5q-13 -10 -25.5 -19t-25.5 -19q-11 -7 -20.5 -14t-20.5 -15l-10 -8t-8 -12q2 -14 10.5 -23.5t19.5 -17.5
q21 -11 46 -3q8 2 15.5 5.5t15.5 7.5q55 28 103 70q15 13 29.5 26t29.5 26q10 10 20 14q6 2 11 -1.5t4 -10.5q-1 -4 -2.5 -7.5t-3.5 -7.5q-4 -6 -10 -10q-36 -32 -73 -63t-79 -57q-25 -17 -53 -26q-61 -17 -107 30q-2 2 -3.5 4t-3.5 4t-3.5 4t-3.5 4q-2 -2 -4 -3.5t-4 -3.5
l-57 -81q-3 -4 -5 -7.5t-4 -8.5q-2 -2 -2.5 -4.5t-2.5 -4.5q-5 -7 -13 -6t-12 9q-3 5 -3 10.5t1 11.5q7 70 29 143q17 57 40 110t51 105q32 57 73 110q15 19 36 40q11 11 22 18q20 11 35.5 3.5t16.5 -30.5q1 -10 0.5 -20t-2.5 -19q-4 -21 -11 -40t-18 -37
q-24 -40 -54.5 -74.5t-65.5 -65.5q-11 -10 -23.5 -18.5t-24.5 -17.5q-4 -3 -7 -6t-5 -8q-12 -30 -22 -61.5t-18 -63.5l1 -1q0 -1 1 -2zM211 563q-11 -11 -18 -19.5t-14 -17.5q-23 -32 -43.5 -64t-39.5 -66q-5 -11 -10.5 -21t-11.5 -21q-1 -2 -2 -4.5t2 -4.5q2 0 6 2
q27 21 50.5 45.5t41.5 53.5q11 17 20 34t14 36q2 11 4.5 22t0.5 25z" />
    <glyph glyph-name="l" unicode="l" horiz-adv-x="294" 
d="M-53 87q1 32 5.5 60t12.5 54q17 57 40 110q21 47 45.5 91t52.5 87q17 27 36.5 52t42.5 48q7 6 13 12t13 11q14 11 30 14q14 4 24 -2t15 -19q4 -11 2 -27q-3 -26 -13 -47q-9 -22 -20.5 -42.5t-24.5 -40.5q-38 -56 -87 -102q-17 -16 -34.5 -30.5t-34.5 -29.5q-8 -8 -15 -12
q-11 -5 -16 -12.5t-9 -17.5q-12 -31 -21 -62t-14 -63q-6 -39 -2 -76q1 -18 11 -35q7 -12 21 -8q7 3 13.5 5.5t11.5 7.5q14 10 26.5 20t25.5 21q23 20 43 41.5t40 44.5q29 34 57 69.5t54 72.5q3 3 5.5 6.5t4.5 6.5q5 5 11 5t10 -3q11 -7 4 -21q-1 -2 -2 -3.5t-2 -3.5
q-28 -35 -55 -69t-55 -69q-24 -29 -50.5 -56.5t-54.5 -53.5q-12 -11 -24.5 -21t-26.5 -18q-8 -4 -16 -7.5t-16 -5.5q-31 -9 -51 18q-9 13 -14 26.5t-7 28.5q-2 13 -3 25t-2 20zM242 582q-8 -1 -15 -10q-11 -11 -21.5 -23t-21.5 -25q-33 -42 -59.5 -87t-52.5 -92q-3 -5 -1 -7
h4q3 2 5.5 3.5t4.5 3.5q28 22 52 47t45 53q14 18 25 36t20 38q4 10 7.5 19.5t6.5 19.5q5 12 1 24z" />
    <glyph glyph-name="m" unicode="m" horiz-adv-x="541" 
d="M281 270l-21 -14q-25 -18 -44 -40.5t-34 -49.5q-2 -3 -4 -6.5t-5 -7.5q-8 -9 -20 -6q-13 5 -13 17q-1 11 2 26q3 13 7 25.5t7 25.5l18 70l18 70q1 4 1 14q-7 -1 -10.5 -4.5t-7.5 -6.5q-42 -39 -71 -85q-14 -20 -26 -41.5t-24 -43.5q-11 -19 -21 -38.5t-21 -39.5
q-4 -8 -7 -12q-8 -12 -21 -9q-15 5 -16 18q-1 7 -0.5 14t1.5 14q2 10 3.5 19t3.5 17q6 26 12 51.5t12 51.5q3 9 6.5 18t7.5 18q2 5 4.5 8.5t5.5 7.5q8 8 18.5 5t13.5 -14q2 -8 0 -17t-4.5 -18.5t-5.5 -18.5q-2 -8 -4 -15t-4 -15q7 4 9.5 8.5t5.5 9.5q20 34 43 64.5t49 59.5
q7 8 15 15.5t16 14.5q11 9 25 14q12 5 22.5 0t15.5 -18q4 -8 4 -22q2 -12 -0.5 -23.5t-5.5 -22.5q-5 -19 -10.5 -37t-10.5 -37q-1 -8 -6 -22l12 8q10 8 19.5 15.5t19.5 15.5q5 3 10.5 6t11.5 4q14 5 24 -0.5t15 -19.5q2 -8 2.5 -15.5t1.5 -15.5q2 -11 2 -22.5t2 -22.5
q2 -16 10 -26q12 -18 33 -18q8 0 15 1t15 5q10 4 14 8q26 18 51.5 37t48.5 42q6 8 13 14.5t14 14.5q2 2 5.5 4.5t8.5 2.5q9 0 14.5 -7t1.5 -15q-2 -4 -8 -10q-28 -27 -57.5 -52t-61.5 -48q-10 -8 -20.5 -13t-21.5 -10q-19 -9 -42 -7q-35 0 -56 29q-19 25 -22 59
q-1 8 -1 15.5t-1 15.5q0 2 -0.5 5t-1.5 8z" />
    <glyph glyph-name="n" unicode="n" horiz-adv-x="442" 
d="M38 273q5 6 8.5 10t7.5 8q20 24 41 47t47 42q5 5 13 10q13 8 24.5 3.5t16.5 -18.5q2 -10 2 -15q-1 -8 -1 -17t-2 -17q-3 -20 -3.5 -39t1.5 -39q2 -9 3.5 -17.5t4.5 -16.5q8 -18 19 -25.5t31 -5.5q14 1 26.5 5t24.5 10l34 18t34 20q18 12 35 25t34 27q3 2 5.5 4t6.5 4
q14 9 22 -1q9 -11 -2 -22q-3 -4 -11 -10q-30 -21 -59.5 -43t-61.5 -42q-35 -21 -70 -29q-21 -6 -43 -3q-29 4 -49 27q-13 17 -19.5 36t-9.5 40q-4 21 -3 42t6 42q1 4 1.5 8t1.5 10q-5 -2 -11 -6q-9 -8 -19 -16.5t-18 -17.5q-28 -30 -51.5 -63t-44.5 -68q-4 -7 -7 -14t-7 -14
q-2 -2 -3 -5t-3 -5q-9 -9 -19 -5q-13 3 -13 17q0 8 2 12q9 32 18 63t19 63q5 17 17 37q4 8 13 15t20 1q10 -7 7 -18q-2 -6 -3.5 -11.5t-3.5 -11.5q-2 -7 -5 -13.5t-4 -17.5z" />
    <glyph glyph-name="o" unicode="o" horiz-adv-x="324" 
d="M113 208q-5 -8 -9.5 -15t-9.5 -14q-14 -20 -36 -29q-21 -8 -40 -2.5t-30 25.5q-2 4 -3.5 7.5t-2.5 8.5q-6 31 -1.5 60t23.5 57q16 25 45 38q30 14 57 -1q22 -12 22 -38v-9t2 -9q2 -3 2 -7v-9q-1 -32 31 -39q32 -6 65 3q17 4 32 11t29 18q9 8 19 15t20 15q8 6 12 8
q9 5 15 -2q6 -5 3 -13q0 -2 -1 -3.5t-2 -3.5q-2 -2 -2.5 -3.5t-2.5 -3.5q-21 -19 -42.5 -36t-47.5 -27q-39 -14 -76 -17q-35 -3 -63 11q-2 1 -4 1.5t-4 2.5zM94 289q-8 11 -14.5 13t-16.5 -4q-11 -7 -20 -19q-20 -33 -15 -70q0 -4 1 -7t3 -7q5 -14 20 -6q8 3 13 10
q5 8 10 16.5t9 16.5q5 8 3 18q0 11 1 20.5t6 18.5z" />
    <glyph glyph-name="p" unicode="p" horiz-adv-x="423" 
d="M233 280q22 5 42.5 9t40.5 9q26 5 53 8.5t55 2.5q11 0 16 -1q8 -2 12 -5q5 -4 5 -10.5t-5 -11.5t-10.5 -5.5t-11.5 -1.5q-13 -1 -25.5 -1t-25.5 -2q-38 -5 -75 -12.5t-74 -18.5q-3 -1 -5.5 -2t-5.5 -2q-2 -5 -6 -13q-11 -26 -26.5 -49t-33.5 -44q-11 -13 -24 -23t-29 -16
q-7 -2 -13.5 -4t-14.5 -3q-17 -2 -29.5 8.5t-14.5 27.5q-2 21 10 37q8 12 17.5 22t20.5 19q20 16 42 29.5t45 24.5q16 7 20 24t6 35t1 36q0 5 -1 9.5t-6 8.5q-4 -1 -7.5 -2t-7.5 -3q-8 -5 -16 -9.5t-16 -11.5q-70 -58 -116 -135q-14 -23 -24 -45.5t-18 -48.5
q-14 -46 -28 -91t-25 -92q-3 -11 -4.5 -21.5t-3.5 -21.5l-2 -10t-3 -10q-5 -10 -12.5 -10.5t-14.5 8.5q-9 16 -8 31q2 12 3 24t3 23q10 45 22 88t26 87q17 55 38 108.5t44 106.5q9 21 19.5 40.5t24.5 38.5q7 10 17 20q7 7 19 7q11 -1 17 -9t1 -19l-4 -6l-4 -6
q-11 -21 -21.5 -42t-21.5 -42q-2 -2 -1.5 -4.5t-1.5 -7.5q6 7 9.5 10.5t7.5 8.5q14 17 29.5 32.5t32.5 29.5q6 5 13 9.5t14 8.5q10 5 22 7q31 5 45 -25q7 -16 9 -35q0 -11 -1 -21l-2 -20q0 -6 -1 -11.5t-2 -13.5zM64 121q6 1 10 1t7 2q8 5 15 9.5t13 10.5q14 12 24 26t18 29
q1 2 0.5 3t-0.5 3q-17 -7 -36.5 -21.5t-31.5 -28.5q-9 -9 -13 -18q-2 -2 -3 -6t-3 -10z" />
    <glyph glyph-name="q" unicode="q" horiz-adv-x="384" 
d="M243 321q-4 -5 -7.5 -9.5t-5.5 -9.5q-19 -34 -37.5 -67.5t-36.5 -67.5q-2 -5 -4 -9l-5 -10q4 1 6.5 1t4.5 1q45 10 86 33q15 9 30 17.5t29 17.5q20 12 38 27.5t34 32.5q8 10 20 18t20 -3q5 -7 2 -14q-6 -8 -9 -11q-21 -22 -44.5 -41t-49.5 -36q-11 -7 -22.5 -13.5
t-23.5 -14.5q-28 -17 -58 -28t-61 -21q-6 -2 -11 -4q0 -8 1 -12q4 -62 -13 -126q-10 -35 -23.5 -68.5t-33.5 -63.5q-7 -12 -15 -19q-11 -10 -22.5 -7.5t-17.5 16.5q-5 11 -6.5 23t0.5 23q3 17 6 33.5t7 33.5q18 69 44.5 133t58.5 127q4 6 7 12.5t7 12.5q-4 3 -5.5 1.5
t-2.5 -3.5l-18 -18t-18 -17q-11 -10 -22 -18.5t-24 -14.5q-53 -28 -69 30q-5 15 -4.5 30.5t4.5 30.5q17 61 62 105q11 11 24 19t28 14q29 10 50.5 -1t31.5 -31q2 -4 4 -7.5t4 -8.5q3 3 5 4.5t4 3.5q8 10 16.5 20t17.5 21q3 3 6 6.5t7 6.5q11 6 22 0q12 -7 8 -21
q-1 -5 -2.5 -8.5t-3.5 -7.5q-4 -8 -8 -15.5t-8 -15.5q-2 -3 -2.5 -6t-2.5 -7zM26 191q4 2 6.5 2t4.5 2q8 5 15 9t14 9q20 17 39 35t36 38q8 11 9 16.5t-5 16.5q-2 4 -5 7t-5 6q-13 14 -28 6q-8 -4 -14.5 -8t-12.5 -9q-40 -37 -54 -91q-3 -9 -3.5 -18.5t3.5 -20.5zM47 -130
q8 4 11 9t5 11q17 39 30 76q7 19 10 39t4 40v3.5t-4 2.5q-2 -2 -2 -3q-17 -38 -30.5 -77t-21.5 -81q-1 -5 -1 -10t-1 -10z" />
    <glyph glyph-name="r" unicode="r" horiz-adv-x="380" 
d="M153 356q-2 -2 -4.5 -3.5t-4.5 -3.5q-11 -12 -22 -23.5t-21 -23.5q-58 -72 -100 -151q-5 -8 -9.5 -17t-9.5 -17q-6 -8 -9 -11q-8 -7 -17.5 -3t-10.5 14q-1 4 -0.5 8t1.5 8q11 45 24.5 87.5t32.5 84.5q4 8 8.5 16t11.5 15q8 10 19 10q9 0 14.5 -6.5t3.5 -14.5
q-1 -5 -2.5 -8.5t-3.5 -8.5q-5 -11 -9.5 -21t-8.5 -24q7 5 10 9t6 9q20 26 40 51.5t43 48.5l12 12t12 13q4 2 7 5t6 5q16 10 28.5 3.5t13.5 -25.5q0 -6 -2 -15.5t-4 -15.5q-6 -33 -3.5 -53.5t10 -32.5t17.5 -16.5t19 -4.5q27 0 55.5 8t47.5 17q8 5 15 9t15 8q2 1 4.5 2
t4.5 2q13 5 19 -5q3 -4 2 -9t-5 -9q-3 -3 -7 -5q-30 -15 -53.5 -23.5t-55.5 -19.5q-11 -4 -26 -5.5t-26 -0.5q-35 1 -52.5 20.5t-23.5 53.5q-2 14 -3 26t-2 20.5t-2.5 11.5t-4.5 -1z" />
    <glyph glyph-name="s" unicode="s" horiz-adv-x="307" 
d="M76 193q5 2 8.5 4.5t7.5 4.5q88 54 189 91q8 2 14.5 4.5t14.5 4.5q12 3 23 -1q7 -2 8.5 -8t-3.5 -11q-6 -8 -16 -11q-5 -3 -11 -4.5t-11 -3.5q-51 -17 -99.5 -40t-95.5 -51q-7 -5 -13 -9t-11 -8q-2 -9 -2.5 -16.5t-1.5 -15.5q-10 -67 -73 -99q-11 -5 -20 -7t-20 1
q-34 10 -20 41q4 8 9 14.5t10 12.5q12 16 26.5 29.5t29.5 27.5q4 3 8 6.5t8 6.5q2 11 -1 21.5t-7 20.5t-8 19t-9 19q-12 25 -11 52q1 15 6.5 28t14.5 24q14 15 28.5 28.5t31.5 24.5q11 8 23.5 14.5t24.5 13.5q8 4 13 6t14 0q16 -2 21 -14q8 -15 -6 -23q-2 -2 -4.5 -2.5
t-4.5 -2.5q-27 -11 -50.5 -27t-44.5 -36q-5 -5 -8.5 -10.5t-7.5 -10.5q-10 -14 -5 -32q3 -9 7 -17q5 -14 11 -28.5t13 -30.5zM28 105q-12 -9 -22.5 -19.5t-18.5 -24.5q32 13 41 44z" />
    <glyph glyph-name="t" unicode="t" horiz-adv-x="225" 
d="M398 550q1 9 7 11.5t12.5 1t11.5 -7t4 -14.5q-4 -29 -29 -43.5t-57.5 -20.5t-65.5 -5.5t-53 0.5q-26 0 -50.5 1t-50.5 3q-2 -3 -3.5 -6t-3.5 -6q-37 -74 -69 -148.5t-58 -152.5q-19 -55 -25 -115q-1 -11 -0.5 -20t4.5 -18q3 -7 6.5 -8.5t11.5 3.5q12 7 26 19
q11 11 22 22.5t22 22.5q21 23 41 47t38 50q21 31 42.5 61.5t43.5 61.5q3 6 8 11q7 7 15 2q7 -4 4 -14q-2 -7 -6 -11q-38 -56 -76 -110t-81 -106q-11 -13 -22 -25.5t-23 -24.5q-8 -8 -16 -14.5t-17 -14.5q-4 -3 -8 -5.5t-8 -4.5q-40 -17 -57 16q-6 11 -8.5 23t-3.5 26
q0 28 4 51q6 35 16.5 69t23.5 68q23 59 47.5 117.5t51.5 116.5q1 2 1.5 4t2.5 6q2 6 2 11q-10 1 -20 1.5t-20 1.5q-18 2 -45.5 7t-55 7t-52 -3.5t-36.5 -24.5q-5 -8 -12 -8.5t-13 2.5t-8.5 9.5t2.5 14.5q19 30 50.5 38.5t64.5 4.5q42 -5 82.5 -9t82.5 -7q2 2 2.5 4t2.5 4
q8 14 16 29t17 29q4 7 9.5 12.5t10.5 11.5q8 8 17 6q14 -2 13 -15q-1 -4 -2.5 -8.5t-3.5 -8.5l-12 -24t-13 -25q-2 -3 -3 -6.5t-3 -8.5q-1 -1 -1 -1.5t-1 -1.5q18 -2 43.5 -4t53 -2.5t54.5 1t49.5 6.5t37 14t16.5 24z" />
    <glyph glyph-name="u" unicode="u" horiz-adv-x="362" 
d="M154 272q-5 -6 -8.5 -10t-6.5 -8l-42 -54q-8 -8 -15.5 -16t-15.5 -16q-5 -4 -9.5 -7.5t-9.5 -5.5q-15 -8 -29.5 -4.5t-24.5 18.5q-13 20 -11 47q0 22 4 41q9 39 32 78q3 5 6.5 9.5t7.5 9.5q6 6 14 9q10 4 16.5 -2.5t4.5 -16.5q-2 -5 -3.5 -8.5t-3.5 -8.5
q-9 -18 -17.5 -37t-14.5 -39q-3 -12 -5.5 -24t-1.5 -24q1 -6 1 -12t7 -8q5 -2 9.5 1t8.5 6q9 8 17.5 16t16.5 17q14 18 28.5 36t28.5 37l8 10t9 10q10 10 20.5 6.5t13.5 -16.5q2 -5 1.5 -8.5t0.5 -8.5q1 -8 1.5 -16t2.5 -16q1 -5 3 -9l4 -8q7 -14 25 -16h10t10 2l20 6t19 8
q20 11 38.5 24t34.5 30q5 6 11 11q14 11 22 1q9 -9 -1 -22q-2 -3 -4.5 -5t-4.5 -4q-21 -18 -43.5 -34.5t-46.5 -30.5q-17 -9 -34.5 -13.5t-37.5 -2.5q-35 3 -51 33q-2 6 -4 11.5t-4 11.5q-2 5 -3.5 9.5t-3.5 12.5z" />
    <glyph glyph-name="v" unicode="v" horiz-adv-x="366" 
d="M136 218q-4 -5 -7 -9t-5 -8q-25 -36 -52 -63q-11 -11 -21 -18q-4 -2 -8.5 -4.5t-9.5 -4.5q-40 -14 -54 26q-7 19 -5 44q1 68 32 132q3 7 7.5 14t9.5 13q6 6 14 9t15 -3.5t5 -14.5q-2 -5 -3.5 -8l-3.5 -7q-31 -60 -40 -129q-2 -17 0 -33q1 -21 20 -12q12 6 20 14
q20 18 36 37.5t30 41.5q-1 2 -1 3.5t-1 3.5q-13 23 -13.5 47.5t7.5 50.5q12 36 38 65q8 11 20 17q12 7 22.5 1.5t12.5 -19.5q2 -20 -1 -35q-9 -48 -32 -93q-4 -7 -7.5 -13.5t-7.5 -14.5q5 -7 11 -9t14 -2q28 -3 55 6q12 4 24.5 8t23.5 9q22 11 43.5 21.5t43.5 21.5
q5 3 10 4.5t10 3.5q8 4 11 -3q2 -2 1.5 -5.5t-0.5 -6.5q-2 -4 -5 -7q-2 -2 -4.5 -3.5t-5.5 -3.5q-32 -18 -65 -35t-68 -28q-10 -3 -20 -5.5t-20 -4.5q-19 -2 -38 -2t-38 11zM173 381q-7 -6 -7 -7q-16 -23 -24 -52q-2 -8 -3 -17t-2 -17q-2 -6 5 -6q12 22 20 46t11 53z" />
    <glyph glyph-name="w" unicode="w" horiz-adv-x="400" 
d="M133 142q8 1 13 5t9 9q13 14 23 29q17 31 30 65l-2 4q-13 15 -17.5 32.5t-4.5 36.5q-2 37 15 72l6 10t8 10q11 8 22.5 5.5t16.5 -15.5t5 -30q1 -21 -1.5 -42t-7.5 -42q-2 -5 -2.5 -9.5t-2.5 -9.5q4 -5 7.5 -6t7.5 -2q37 -4 76 8q33 10 59 28q5 3 9.5 6t9.5 5q4 2 12 2
q6 -2 9 -7.5t-1 -10.5q-4 -7 -9 -10q-26 -17 -53.5 -30.5t-58.5 -19.5q-18 -3 -36 -3.5t-36 4.5h-7l-6 -12q-7 -14 -13 -27t-13 -27q-11 -21 -28 -37q-5 -4 -9 -7.5t-9 -6.5q-31 -15 -51 11q-13 19 -18 44q-2 11 -2.5 22.5t-1.5 22.5v16q-4 2 -5 0t-3 -4q-8 -12 -15.5 -24.5
t-15.5 -24.5l-12 -16t-14 -15q-15 -14 -27.5 -10t-16.5 24q-3 17 -2 31q7 68 44 131q5 9 14 18q4 4 13 6t15 -4t4 -15q-2 -5 -4.5 -9t-4.5 -9q-29 -50 -42 -105q-1 -5 -1.5 -8.5t-1.5 -7.5v-10q6 2 7 3q5 7 10 13.5t9 13.5q14 23 27.5 46t27.5 46q2 2 2.5 4.5t2.5 4.5
q10 13 22 8q12 -3 12 -17v-16t-1 -16q-2 -11 -3 -21.5t-3 -21.5q-2 -17 -2 -33t5 -33q2 -6 3.5 -11.5t7.5 -10.5zM223 310q2 11 4.5 22.5t-0.5 25.5q-5 -14 -5.5 -25.5t1.5 -22.5z" />
    <glyph glyph-name="x" unicode="x" horiz-adv-x="326" 
d="M53 267q4 5 7.5 8t6.5 7q23 25 45.5 48.5t48.5 44.5q10 10 19 15q15 9 22 -3q9 -12 -3 -22q-4 -4 -7 -6q-23 -17 -44.5 -37t-41.5 -42q-10 -11 -19.5 -22t-20.5 -22q-9 -11 -5 -23q6 -21 17 -39q10 -17 23.5 -22.5t34.5 -0.5q29 6 59 23q22 14 42 31t39 35q14 14 26 28
t25 28l7 7t7 6q6 3 14 0q8 -6 5 -15q-2 -8 -6 -12q-28 -30 -55.5 -60t-59.5 -54q-22 -16 -44.5 -28.5t-48.5 -19.5q-12 -4 -24 -4.5t-25 1.5q-25 5 -37 20q-15 18 -24 34q-5 6 -11 17q-11 -13 -20 -25.5t-17 -25.5q-2 -2 -3 -4.5t-3 -4.5q-7 -7 -15 -4q-9 2 -11 13
q-1 11 7 21q16 24 36 48q2 5 5.5 8.5t6.5 7.5v8q-3 16 -6 31.5t-5 31.5q-1 9 -2 18.5t-5 17.5q-5 12 4 21q10 9 24 2q8 -7 12 -14q8 -11 11 -23t4 -25q0 -5 0.5 -9.5t1.5 -9.5q0 -1 3 -4z" />
    <glyph glyph-name="y" unicode="y" horiz-adv-x="421" 
d="M190 293q-11 -9 -18 -15.5t-15 -13.5q-25 -21 -49 -42.5t-49 -41.5q-7 -5 -13.5 -10t-14.5 -9q-18 -9 -33 -2t-21 27q-4 15 -1 33q2 9 3.5 18t4.5 18q8 29 20.5 55.5t28.5 52.5q5 8 11 15t12 15t17 8q10 1 16 -6.5t2 -16.5q-2 -5 -4 -8.5t-4 -7.5q-17 -29 -31.5 -58
t-25.5 -61q-2 -8 -4 -15t-4 -15q-2 -5 -2.5 -10t1.5 -11q8 2 12 4q10 6 20 14l72 60t69 63q6 7 14 12q10 5 19 1.5t12 -14.5q1 -5 1 -10v-10q-2 -24 -7.5 -47t-12.5 -46q-1 -4 -3 -14l2 -2q6 1 11 4q42 23 84.5 44.5t86.5 41.5q7 3 14 6.5t14 5.5q5 1 10.5 1.5t10.5 -0.5
q7 -2 9 -8.5t-3 -11.5q-2 -2 -5 -4.5t-6 -4.5q-4 -2 -8 -3.5t-8 -3.5q-51 -23 -100 -46t-97 -49q-16 -8 -27 -18.5t-14 -28.5q-13 -30 -25.5 -60.5t-26.5 -60.5q-16 -35 -38.5 -65.5t-51.5 -56.5q-14 -14 -30 -24.5t-35 -17.5q-18 -7 -34 -8q-19 0 -30.5 11t-12.5 29
q0 14 5 29q7 18 16 33q21 40 56 76q38 40 78.5 75.5t86.5 67.5q18 11 22 30q5 23 10.5 46t11.5 46q1 3 1 15zM141 115q-2 2 -3 2q-2 -2 -4 -2.5t-4 -2.5q-77 -56 -142 -129q-11 -13 -21.5 -27t-18.5 -29q-4 -7 -7.5 -14t-5.5 -14q-2 -5 -2 -11v-12q0 -5 3.5 -7.5t7.5 -1.5
q5 1 9 2t9 3q22 8 42 25q61 52 95 121q11 22 20 43.5t19 44.5z" />
    <glyph glyph-name="z" unicode="z" horiz-adv-x="361" 
d="M97 230q7 -1 13.5 -1h14.5q13 -1 25 -13q5 -5 9 -11t9 -12q5 2 9 5t8 5q42 27 85.5 50t88.5 44q8 4 19 6q13 1 17 -9q5 -12 -9 -19q-2 -1 -3.5 -1.5t-3.5 -1.5q-48 -17 -91 -40t-85 -49q-7 -4 -13 -8t-13 -9q-1 -1 -1.5 -2t-2.5 -2q-2 -12 -3.5 -24t-4.5 -23
q-10 -47 -28 -89.5t-44 -82.5q-21 -33 -50 -59t-62 -48q-14 -9 -28.5 -14t-31.5 -9q-6 -1 -12.5 -1.5t-13.5 0.5q-17 1 -26 11.5t-7 26.5q3 19 10 32q8 18 18 34.5t21 32.5q48 64 106 118q23 22 47 42t47 41q9 6 16 13q2 4 1 6q-2 17 -8.5 21.5t-22.5 1.5q-11 -2 -20.5 -6
t-19.5 -10q-10 -5 -19 -12t-18 -13q-4 -2 -7 -4t-7 -4q-9 -5 -17 3q-9 9 -4 19q3 5 6 9l6 8q24 29 48.5 56.5t48.5 55.5q8 11 16 21.5t16 21.5q2 2 5 10q-7 0 -12 -3t-10 -5q-20 -9 -36.5 -21.5t-32.5 -26.5q-5 -4 -9.5 -8t-9.5 -8q-14 -11 -22 -3q-12 10 -1 24q2 4 5.5 7.5
l6.5 6.5q24 22 51 38.5t56 30.5q14 7 32 7q31 -3 28 -33q-2 -11 -6 -20q-5 -8 -9.5 -15.5t-10.5 -15.5q-11 -15 -23 -30l-24 -30l-4.5 -4.5t-2.5 -7.5zM-106 -155q3 0 5 -0.5t4 0.5q5 0 15 2q21 5 39 17q39 26 71 58.5t52 76.5q6 12 12 24.5t12 25.5q6 14 10.5 29.5
t8.5 31.5q1 4 1 14l-6 -3t-4 -3q-46 -36 -87 -76.5t-77 -87.5q-14 -19 -25.5 -38t-21.5 -39q-3 -8 -6 -15t-3 -17z" />
    <glyph glyph-name="braceleft" unicode="{" horiz-adv-x="331" 
d="M98 343q13 -17 16 -33.5t-2 -34.5q-4 -14 -8 -26.5t-9 -26.5q-14 -38 -26 -76t-21 -77q-2 -7 -2.5 -13.5t-1.5 -13.5q-3 -39 36 -45l27 -3q4 -1 8 -1.5t8 -2.5q7 -3 8.5 -9t-2.5 -11q-3 -3 -6 -5.5t-7 -4.5t-14 -2q-11 1 -22.5 1.5t-22.5 2.5q-25 5 -40.5 24.5
t-16.5 45.5q0 22 5 47q9 40 20.5 78.5t26.5 76.5q5 12 8 24t7 23q2 3 2 6t1 6q1 11 -2 15.5t-14 6.5q-6 1 -12.5 1.5t-13.5 2.5q-5 1 -8.5 2t-7.5 3q-11 6 -11 18t11 19q4 2 8 3t9 3q8 2 16 4.5t16 4.5q40 11 56 48q6 14 11.5 29t10.5 31q8 24 15 48l14 48q8 23 17 45.5
t21 43.5q11 21 28 36t40 23q15 4 29 3q11 -2 20 -9q8 -7 7 -15.5t-11 -12.5l-8 -2t-8 -1q-15 -2 -26 -10t-20 -19q-4 -6 -7.5 -12.5t-7.5 -12.5q-10 -20 -17.5 -40.5t-14.5 -41.5q-9 -30 -18.5 -59.5t-19.5 -58.5q-2 -8 -5 -14.5t-6 -13.5q-18 -38 -51 -58q-3 -2 -5.5 -4
t-6.5 -4z" />
    <glyph glyph-name="bar" unicode="|" horiz-adv-x="296" 
d="M1 -59q2 20 6 43t9 46q16 75 37 147t44 144q19 61 38.5 120.5t42.5 119.5q14 36 27.5 71t29.5 70q10 21 24 43q2 5 6 8.5t8 6.5q7 6 15 1q9 -6 7 -14q-2 -7 -4 -13.5t-4 -12.5q-10 -26 -20 -51.5t-20 -51.5q-29 -74 -55.5 -147t-49.5 -148l-42 -138t-38 -139
q-8 -29 -14 -57.5t-8 -57.5l-2 -12t-6 -11q-14 -14 -25 1q-5 5 -6 11t0 21z" />
    <glyph glyph-name="braceright" unicode="}" horiz-adv-x="329" 
d="M218 309q-4 3 -10 7q-31 16 -29 53l2 18t3 18q10 46 30 90q10 23 20.5 46t21.5 46q20 44 32 89q2 3 2 11q-5 5 -11 6t-12 1q-11 0 -21.5 -0.5t-21.5 -0.5q-4 0 -7.5 0.5t-7.5 0.5q-10 3 -11 12q0 8 7 14q2 1 4 1.5t4 1.5q21 4 42 4.5t42 -4.5q35 -9 31 -46l-2 -12t-3 -12
q-11 -40 -28 -72q-16 -32 -31.5 -64t-26.5 -66q-6 -17 -11 -34t-8 -35q0 -3 -0.5 -5.5t-0.5 -4.5q-2 -17 4 -21.5t17 -4.5h11t11 -1h6.5t6.5 -1q10 -2 13.5 -11t-2.5 -17q-2 -4 -5 -6.5t-6 -5.5q-26 -20 -41 -45.5t-23 -55.5q-6 -24 -11.5 -48t-10.5 -48q-6 -27 -14 -53.5
t-18 -52.5q-10 -28 -29 -41t-47 -15q-13 -2 -25.5 -1.5t-25.5 1.5q-11 0 -19 5q-9 6 -8.5 15.5t9.5 14.5q10 5 24 3q12 -2 24 -1.5t23 2.5q26 3 35 28q5 17 10.5 34t10.5 35l10 46l10 46q2 11 4.5 20.5t5.5 19.5q7 24 17.5 45.5t27.5 41.5z" />
    <glyph glyph-name="asciitilde" unicode="~" horiz-adv-x="339" 
d="M223 284q-9 2 -18.5 4t-18.5 5q-7 2 -14 5t-13 7q-14 8 -27 6t-26 -11q-4 -2 -7 -5.5t-6 -6.5q-2 -3 -4 -5.5t-4 -4.5q-11 -11 -22 -5q-14 6 -12 20q0 8 7 17q25 36 67 42q24 4 48 -7q9 -5 18.5 -9t18.5 -8q27 -11 48 7q16 13 26 1q12 -12 -3 -28q-9 -10 -25 -16t-33 -8z
" />
    <glyph glyph-name="exclamdown" unicode="&#xa1;" horiz-adv-x="329" 
d="M51 72q-1 5 1.5 10.5t5.5 10.5l36 63l16 30l16 30q29 50 53 101t45 105q8 20 14.5 41.5t14.5 41.5q2 8 5 16t5 16q1 1 1 1.5t1 1.5q8 19 22 14q15 -5 10 -24q-2 -9 -5 -18.5t-6 -18.5q-20 -79 -51 -153t-69 -146q-11 -21 -22.5 -42t-23.5 -41q-7 -11 -14.5 -22t-15.5 -22
q-5 -6 -11 -11q-9 -6 -18 -2q-10 5 -10 18zM285 606q2 10 3 19.5t4 19.5q1 8 10 17q7 7 15 4t10 -12q3 -7 1 -14q-3 -13 -7 -24t-10 -22q-9 -14 -17 -9q-5 2 -6.5 6t-1.5 9v6h-1z" />
    <glyph glyph-name="currency" unicode="&#xa4;" horiz-adv-x="334" 
d="M72 146q-9 -10 -17 -19.5t-16 -20.5q-4 -5 -8 -9t-11 -6q-19 -7 -19 12q-2 13 8 23l33 42q2 2 4.5 4t4.5 5q-1 3 -1 6t-1 6q-8 24 -7.5 48.5t7.5 48.5q5 21 13.5 41t21.5 37q11 15 6 33q-2 11 -4.5 21t-4.5 21q-2 5 -2 10v10q0 13 12 15q12 3 18 -7q4 -9 7 -18t7 -18
q2 -5 3 -9.5t2 -9.5q7 4 12 6q7 4 14 7.5t14 5.5q26 8 50 -7q43 -25 42 -74q0 -12 -1 -23.5t-3 -23.5q-8 -35 -21 -68t-37 -62q-21 -26 -51 -36q-17 -6 -34 -6t-33 11q-2 2 -8 4zM228 336v9t-1 11q0 2 -1 5l-2 6q-8 20 -26 26.5t-36 -5.5q-16 -11 -27 -25
q-17 -20 -28.5 -43.5t-18.5 -49.5q-10 -37 -1 -71q12 -47 56 -27q20 8 33 22.5t23 32.5q13 25 20 51.5t9 57.5zM319 481q9 0 12.5 -5.5t1.5 -11.5q-2 -4 -4 -6q-11 -13 -22.5 -26t-23.5 -26q-2 -2 -5 -3.5t-5 -3.5q-8 -5 -16 1q-3 2 -4.5 7t0.5 10q2 3 3.5 6.5t3.5 5.5
q11 11 21 21.5t21 21.5q9 9 17 9zM231 111q1 -9 -2 -15t-8 -7q-13 -4 -20 12q-3 8 -5.5 17t-4.5 18q0 7 1 10q3 7 9.5 9.5t12.5 -2.5q5 -4 8 -9q9 -17 9 -33z" />
    <glyph glyph-name="dieresis" unicode="&#xa8;" horiz-adv-x="269" 
d="M50 593q0 15 8.5 27t21.5 15q5 2 10 0q14 -4 17 -19q4 -13 -5 -28.5t-21 -19.5q-22 -7 -28 14q-2 3 -2 6t-1 5zM160 597q2 4 3 8.5t3 9.5q7 17 27 19q11 0 18 -6t7 -17q1 -6 -1.5 -12.5t-6 -12.5t-9 -11t-10.5 -7q-10 -5 -18.5 -0.5t-10.5 15.5q-1 3 -1 6t-1 8z" />
    <glyph glyph-name="guillemotleft" unicode="&#xab;" horiz-adv-x="399" 
d="M101 356q9 -28 25 -48q9 -14 18 -27.5t18 -27.5q5 -6 9 -12.5t9 -12.5q6 -8 8 -12q8 -17 -6 -28q-5 -4 -13 -4t-14 5q-3 2 -9 8q-7 8 -13.5 16.5t-13.5 17.5q-8 10 -15 20t-15 21q-11 14 -19.5 29t-14.5 32q-2 6 -4 16q-3 24 18 36q10 5 19 11q33 22 61 43
q14 10 27.5 19.5t27.5 19.5q4 2 7 4t8 4q2 1 5.5 1h6.5q5 -1 7.5 -6t0.5 -10q-2 -2 -3.5 -5t-3.5 -5q-4 -4 -7.5 -8t-8.5 -8q-24 -19 -47.5 -39t-49.5 -37q-5 -3 -9 -6t-9 -7zM200 334q1 -4 2 -4q18 -24 36 -47.5t36 -47.5q3 -4 6.5 -7.5t6.5 -8.5q2 -2 3 -5t3 -5
q5 -16 -6 -25q-5 -5 -12.5 -4.5t-13.5 5.5q-4 1 -6 5q-13 15 -26 30.5t-26 31.5l-21 27q-11 13 -22 28q-3 4 -7 14q-9 22 10 37q35 26 69 52l68 52q5 3 9 6t8 5q6 4 14 6q10 3 16 -6q5 -8 -1 -15q-5 -8 -10 -13q-11 -10 -21.5 -20t-21.5 -19q-20 -16 -40.5 -31.5
t-40.5 -31.5q-3 -2 -5.5 -4.5t-6.5 -4.5z" />
    <glyph glyph-name="logicalnot" unicode="&#xac;" horiz-adv-x="441" 
d="M333 305q-19 -2 -35 -3l-32 -2l-36 -4t-36 -2q-28 -2 -55.5 -2h-55.5q-5 0 -9 1t-9 2q-7 2 -9 5q-6 5 -5 13t9 10q5 1 10 1.5t10 -0.5q35 -2 70 -1.5t70 2.5q37 2 73 5t73 8h6q11 1 16.5 -6.5t0.5 -17.5q-2 -4 -4 -6.5t-4 -5.5q-42 -47 -54 -108q-1 -2 -1.5 -5.5
t-2.5 -5.5q-5 -11 -15 -9q-12 3 -13 12q-1 5 -1 8.5v8.5q1 14 5 27t10 26q5 9 9 18t9 19q2 2 3 4.5z" />
    <glyph glyph-name="degree" unicode="&#xb0;" horiz-adv-x="227" 
d="M50 530q1 19 8.5 36t23.5 31q8 7 16.5 10t19.5 -1q3 -2 7 -1.5t9 0.5q22 0 33 -19q16 -25 5 -53q-11 -26 -28 -44q-26 -27 -61 -17q-19 6 -26 22q-3 8 -5 16.5t-2 19.5zM90 523v-5q2 -9 8 -12.5t14 1.5l6 4t5 5q5 7 8 14t7 15q2 2 2 8t-4 12t-10 8q-5 2 -12.5 -1
t-10.5 -8q-6 -8 -10 -17.5t-3 -23.5z" />
    <glyph glyph-name="plusminus" unicode="&#xb1;" horiz-adv-x="356" 
d="M228 406q13 -1 23 -1t21 -1q5 0 9 -1t9 -2q3 -1 6 -2.5t5 -3.5q7 -7 4 -17q-1 -10 -12 -12q-9 -1 -17 0q-15 1 -30 0.5t-30 -2.5q-4 -8 -6 -13q-14 -44 -21 -88q0 -6 -4 -16q-5 -13 -18 -11t-16 14q-2 10 -2 17q1 16 3.5 31.5t6.5 31.5q3 12 6 27q-5 0 -8 0.5t-7 -0.5
q-11 -2 -20.5 -4t-19.5 -4q-8 -2 -12 -2q-13 2 -17 11q-5 10 4 19q7 7 15 10q18 10 43 13q9 1 17.5 1.5t17.5 2.5q2 5 3.5 10t3.5 10q7 17 13.5 33t14.5 33q2 5 5.5 9.5t7.5 9.5q8 8 19 4q11 -5 10 -16q0 -5 -0.5 -9t-1.5 -9q-4 -11 -7.5 -22.5t-8.5 -22.5q-2 -6 -4 -12.5
t-5 -15.5zM89 155q-20 0 -23 14q-4 16 12 22q14 6 31 9q29 5 57 8.5t57 8.5q9 1 16 0q15 -1 18 -15q2 -13 -14 -18q-3 -2 -6 -2t-6 -1q-32 -3 -63.5 -9.5t-63.5 -13.5q-5 -1 -9 -1.5t-6 -1.5z" />
    <glyph glyph-name="twosuperior" unicode="&#xb2;" horiz-adv-x="231" 
d="M121 507q5 -2 7.5 -4t5.5 -4q11 -6 21 1q1 2 5 4q9 4 15 -4q3 -2 4.5 -6t-0.5 -8q-3 -8 -10 -13q-9 -5 -18.5 -7.5t-20.5 1.5q-8 3 -16 6.5t-17 8.5q-3 -2 -11 -6q-7 -5 -11 -6q-11 -5 -18.5 1.5t-5.5 17.5q2 12 10.5 21t20.5 12q8 0 12 1q11 11 18.5 22.5t13.5 25.5
q3 6 5.5 12.5t4.5 13.5q0 1 -2 7q-22 -7 -30 -23l-3 -6q-4 -6 -13 -4t-10 9q-4 10 3 22q8 12 20 20q16 11 34 14q15 3 25.5 -5.5t9.5 -23.5q0 -17 -8 -36q-7 -14 -14.5 -28t-18.5 -26q-2 -2 -3.5 -4.5t-4.5 -5.5z" />
    <glyph glyph-name="threesuperior" unicode="&#xb3;" horiz-adv-x="218" 
d="M136 533q-7 -2 -11.5 -4t-9.5 -3q-8 -3 -14 5q-6 6 -2 13q2 5 8 13q3 5 6 9.5t6 9.5q2 2 2 5q-2 2 -3.5 1t-3.5 -2q-3 -3 -5.5 -6t-5.5 -6q-9 -9 -16 -5q-12 5 -8 19q1 3 5 9q16 20 39 29q14 6 27 -4t9 -28q-2 -5 -4.5 -10.5t-4.5 -11.5q4 -4 6 -7q17 -14 10 -35
q-18 -49 -67 -61q-11 -3 -20.5 0t-17.5 10q-12 9 -10 24q2 11 11 19.5t20 10.5q7 1 13 -4q4 -7 1 -14l-4 -6t-5 -7q7 -2 10 -1q23 4 39 38z" />
    <glyph glyph-name="acute" unicode="&#xb4;" horiz-adv-x="208" 
d="M65 536q-5 0 -9.5 3t-4.5 8q-1 6 1 14q1 5 7 13q27 42 64 76q3 2 6 4.5t6 4.5q11 5 19 -3q7 -9 1 -19q-1 -3 -6 -8q-17 -15 -30.5 -32t-27.5 -35l-8 -10t-9 -10q-2 -2 -4.5 -3t-4.5 -3z" />
    <glyph glyph-name="mu" unicode="&#xb5;" horiz-adv-x="306" 
d="M177 294q-5 -4 -8.5 -8t-7.5 -8q-17 -17 -39 -27q-27 -15 -52 3q-2 1 -3.5 2t-3.5 3q-4 -2 -4.5 -5.5t-1.5 -6.5q-6 -23 -11.5 -44.5t-11.5 -43.5l-2 -8t-3 -8q-5 -9 -15 -7q-10 1 -12 10q-1 5 -1.5 9.5t0.5 9.5q2 14 4.5 28t6.5 28q16 64 34.5 126t41.5 124q2 5 4 9.5
t4 9.5q4 6 8 10q8 6 17 2t9 -13q0 -8 -3 -15l-24 -75q-7 -19 -12.5 -38t-7.5 -39q-2 -18 0 -35q2 -10 9 -14t16 1q8 5 15 9.5t14 9.5q14 12 24.5 25.5t20.5 28.5q11 18 22 35.5t22 35.5q5 8 8 15t7 15q11 23 25 47q3 8 9 14q10 12 22 5q11 -6 8 -21q-1 -4 -2 -7t-3 -7
q-3 -8 -6.5 -16t-6.5 -16q-14 -31 -27 -61.5t-25 -61.5q-16 -40 -28.5 -81t-20.5 -83q-4 -18 -6 -36.5t-4 -36.5q0 -8 -1 -12q-3 -13 -14 -13q-12 -2 -17 10q-2 2 -2 5t-1 6q-2 11 -2 22.5t1 22.5q2 26 8 51.5t13 51.5q4 13 8 25.5t8 25.5q2 6 3 10q-2 1 -3 2z" />
    <glyph glyph-name="paragraph" unicode="&#xb6;" horiz-adv-x="338" 
d="M54 326q-17 20 -20.5 41t0.5 44q6 45 30 82q5 6 9.5 11.5t9.5 10.5q20 19 44 7q2 -2 4.5 -2t4.5 -2q17 -11 35 -14.5t37 -4.5q17 -1 32.5 0t31.5 6q8 2 16.5 5.5t17.5 7.5q2 1 4.5 2.5t4.5 2.5q8 2 15.5 -3t7.5 -14q0 -7 -4 -15q-5 -9 -9.5 -17.5t-9.5 -16.5
q-18 -32 -34 -64t-30 -65q-14 -34 -25 -69l-22 -70q-8 -29 -15.5 -58.5t-12.5 -59.5q-1 -4 -2 -7.5t-3 -7.5q-7 -13 -21 -10q-12 3 -14 16v12t1 12l10 46t12 46q38 145 106 272q2 4 3.5 7.5t3.5 7.5v5q-32 -5 -64.5 -5t-65.5 8q-2 -4 -3 -7t-2 -5q-28 -81 -51 -161.5
t-43 -162.5q-2 -7 -3 -14t-3 -14q-3 -10 -7 -15q-4 -9 -16 -7q-11 3 -12 12q-2 5 -1.5 10.5t1.5 10.5l8 40t9 40q8 29 16 58.5t16 58.5q1 2 1 4.5t2 4.5z" />
    <glyph glyph-name="cedilla" unicode="&#xb8;" horiz-adv-x="268" 
d="M143 175q3 -2 6 -2.5t6 -2.5q19 -9 29 -26t8 -38q-3 -35 -21 -59.5t-47 -41.5q-10 -5 -22 -7q-11 -2 -21.5 2t-18 12t-10.5 19t1 22q3 7 6 13.5t8 11.5q8 7 16 8q9 3 16 -6q6 -8 0 -17q-3 -4 -6 -7.5t-5 -7.5q-1 -2 -1 -5v-5q2 -5 11 -5q2 1 4.5 1.5t4.5 1.5
q20 12 32.5 28.5t15.5 39.5q2 12 -4 22q-7 14 -22 10q-2 0 -4.5 -1t-5.5 -2q-9 -2 -16 4t-5 15q2 13 5.5 26t6.5 26q1 2 2 3.5t2 3.5q10 12 22 7q11 -4 11 -18l-2 -12t-2 -13z" />
    <glyph glyph-name="onesuperior" unicode="&#xb9;" horiz-adv-x="182" 
d="M80 568q-7 2 -11.5 2.5t-8.5 2.5q-8 3 -8 11t7 12q3 2 9 4l18 6t18 5q12 4 20 -2.5t7 -19.5q-1 -9 -5 -18q-10 -23 -19.5 -44.5t-20.5 -43.5q-3 -8 -9 -14q-8 -8 -19 -3q-9 4 -7 16q0 5 1 9t3 9q5 13 10 26.5t10 27.5l2 6t3 8z" />
    <glyph glyph-name="ordmasculine" unicode="&#xba;" horiz-adv-x="227" 
d="M50 530q1 19 8.5 36t23.5 31q8 7 16.5 10t19.5 -1q3 -2 7 -1.5t9 0.5q22 0 33 -19q16 -25 5 -53q-11 -26 -28 -44q-26 -27 -61 -17q-19 6 -26 22q-3 8 -5 16.5t-2 19.5zM90 523v-5q2 -9 8 -12.5t14 1.5l6 4t5 5q5 7 8 14t7 15q2 2 2 8t-4 12t-10 8q-5 2 -12.5 -1
t-10.5 -8q-6 -8 -10 -17.5t-3 -23.5z" />
    <glyph glyph-name="guillemotright" unicode="&#xbb;" horiz-adv-x="422" 
d="M323 344q-2 2 -3 4t-3 4q-42 45 -71 96q-2 3 -3.5 5.5t-2.5 5.5q-2 8 -2 12q1 9 8 13t14 -1q8 -6 14 -12.5t12 -13.5q8 -9 14.5 -19t14.5 -19q11 -13 21.5 -25t21.5 -25l4 -4t4 -5q13 -16 0 -32q-3 -4 -6.5 -7.5l-7.5 -7.5q-31 -27 -60.5 -55t-58.5 -58q-5 -5 -9 -10
t-9 -10q-5 -7 -13 -10q-10 -5 -18 1.5t-7 17.5q0 10 8 16q13 15 26 29t27 28q20 20 39.5 38t39.5 37q2 2 3 3.5t3 3.5zM195 342q-16 20 -31 37.5t-30 35.5q-3 5 -6.5 9t-6.5 9q-2 5 -4 8.5t-3 8.5q-2 8 1.5 14.5t10.5 9.5q14 7 25 -8q19 -24 37 -48.5t37 -49.5q3 -4 6.5 -7
t6.5 -7q11 -14 -1 -28l-7 -7q-38 -32 -71.5 -67t-68.5 -70q-2 -2 -5 -4.5t-5 -4.5q-10 -8 -22 -1q-12 8 -5 22q2 5 5 9l6 8q25 26 50 51.5t51 51.5q7 7 14.5 13.5t15.5 14.5z" />
    <glyph glyph-name="questiondown" unicode="&#xbf;" horiz-adv-x="442" 
d="M152 83q18 0 32.5 4.5t27.5 12.5q29 18 52.5 42t39.5 55q2 5 3.5 9t3.5 8q4 8 7 11q7 10 20 7q11 -3 13 -16v-10.5t-2 -10.5q-3 -8 -6.5 -16t-8.5 -15q-47 -72 -127 -107q-20 -8 -40 -11.5t-41 0.5q-26 4 -50 23q-17 14 -22 33t-3 40q3 26 17 48l18 30t20 29
q14 17 28.5 33.5t29.5 32.5q23 23 46.5 45.5t46.5 45.5q14 14 27.5 28t27.5 28q18 20 33.5 41.5t26.5 46.5q2 4 4 7.5t5 6.5q4 6 10 7t12 -1q12 -5 9 -20q-7 -26 -21 -49q-21 -33 -47 -62q-16 -17 -31.5 -33t-31.5 -32q-20 -20 -39.5 -38.5t-39.5 -37.5q-26 -24 -48.5 -50.5
t-40.5 -57.5q-14 -24 -20 -49q-6 -34 24 -49q9 -5 18 -7t17 -2zM397 614q2 12 4.5 25t9.5 25l6 6q8 5 15.5 2t9.5 -12v-4q-2 -14 -6.5 -27.5t-13.5 -25.5q-8 -10 -16 -5q-9 4 -9 16z" />
    <glyph glyph-name="Agrave" unicode="&#xc0;" horiz-adv-x="724" 
d="M510 340q-9 0 -41.5 -4t-70.5 -9t-71 -10.5t-42 -8.5q-2 -4 -3 -7q-12 -34 -26 -67t-30 -65q-46 -99 -102 -188q-6 -9 -12.5 -17.5t-12.5 -17.5q-9 -12 -24 -8q-17 5 -17 23q1 8 1.5 14.5t2.5 14.5q6 28 14.5 55t18.5 53q18 46 37.5 90.5t42.5 87.5q2 3 2.5 6t2.5 6
q-1 0 -1 1v2q-3 0 -6.5 0.5t-6.5 -0.5q-20 -2 -41 -4.5t-41 -4.5q-12 -2 -24.5 -2t-24.5 3t-19 8q-22 13 -14 37q1 9 8 19q8 12 18 20q63 54 146 77q23 6 45.5 4.5t44.5 -12.5q5 2 8 6.5t5 9.5q22 32 45.5 62t49.5 59q21 24 44.5 44.5t49.5 38.5q20 14 43 25q20 10 46 7
q30 -3 42 -29l4 -14t3 -14q5 -24 4 -48t-5 -48q-6 -35 -12.5 -69t-13.5 -69q-1 -4 -1 -13h17q19 0 38.5 0.5t39.5 0.5q12 0 26 -3q17 -3 24 -18q5 -10 -0.5 -19.5t-16.5 -10.5q-8 -2 -13 5q-4 7 -14 7q-28 3 -56 2.5t-57 -3.5q-2 -8 -4.5 -14.5t-4.5 -13.5q-17 -58 -35 -114
t-39 -113q-8 -23 -17.5 -46t-19.5 -46q-2 -6 -5.5 -12t-7.5 -11q-4 -7 -12 -13q-11 -9 -24 -3q-11 6 -11 21q0 7 3 9q10 7 14 16.5t9 19.5l18 48t17 49q17 50 32.5 100t29.5 101q1 4 1.5 8t1.5 9zM287 411q2 -8 4 -16.5t3 -16.5q2 -8 0.5 -16t0.5 -17q20 3 38.5 6t37.5 6
t37.5 5.5t37.5 5.5t37.5 4.5t38.5 6.5q4 16 7.5 31.5t6.5 31.5q8 35 15 70t10 71q1 11 1.5 22.5t-0.5 22.5q-2 20 -9.5 24.5t-26.5 -0.5q-23 -7 -45 -23q-23 -17 -44 -35.5t-41 -38.5q-29 -31 -54.5 -64.5t-48.5 -69.5q-2 -2 -3 -5t-3 -5zM40 317q15 -5 29 -4t28 3
q14 1 26.5 2t26.5 3t27 4.5t27 4.5q10 16 19 31.5t18 31.5q1 2 0.5 4t-0.5 4q-2 1 -4 1.5t-4 1.5q-14 4 -26.5 2.5t-25.5 -5.5q-35 -11 -65.5 -27.5t-59.5 -37.5q-5 -4 -9 -8t-7 -11zM108 19q2 3 4 5t3 4l22 34t20 34q14 27 26.5 54t23.5 54q9 21 16.5 42t15.5 43q2 2 2 5
t1 7h-12l-9 -3q-15 -26 -33.5 -65t-35 -80t-29 -77.5t-15.5 -56.5zM248 337q2 4 2 5q-1 0 -1 2q-1 -1 -2 -1.5t-2 -2.5zM628 733q-1 -3 -1 -8q-2 -5 -5.5 -8.5t-7.5 -3.5q-9 0 -13 9q-2 2 -2 3q-5 21 -14.5 39.5t-21.5 36.5q-2 3 -3.5 6t-3.5 6q-5 10 4 17q8 8 18 1
q3 -1 8 -6q30 -36 41 -84q0 -5 1 -8z" />
    <glyph glyph-name="Aacute" unicode="&#xc1;" horiz-adv-x="725" 
d="M511 340q-9 0 -41.5 -4t-70.5 -9t-71 -10.5t-42 -8.5q-2 -4 -3 -7q-12 -34 -26 -67t-30 -65q-23 -49 -48.5 -96t-54.5 -92q-5 -9 -11.5 -17.5t-13.5 -17.5q-9 -12 -23 -8q-17 5 -17 23q0 8 1 14.5t3 14.5q12 55 33 108q17 46 36.5 90.5t42.5 87.5q4 8 5 12v3
q-3 0 -6.5 0.5t-6.5 -0.5q-21 -2 -41.5 -4.5t-40.5 -4.5q-13 -2 -25 -2t-24 3q-5 2 -10 3.5t-9 4.5q-21 13 -15 37q3 10 9 19q8 12 18 20q61 54 146 77q23 6 45.5 4.5t43.5 -12.5q6 2 8.5 6.5t5.5 9.5q21 32 45 62t50 59q21 24 44.5 44.5t49.5 38.5q10 8 21 14t22 11
q20 10 46 7q29 -3 41 -29q7 -15 8 -28q5 -24 4 -48t-5 -48q-6 -35 -13 -69t-13 -69q-1 -3 -1 -6t-1 -7h17q20 0 39 0.5t39 0.5q13 0 27 -3q17 -3 24 -18q5 -10 -0.5 -19.5t-16.5 -10.5q-8 -2 -13 5q-4 7 -14 7q-28 3 -56.5 2.5t-57.5 -3.5q-2 -8 -4 -14.5t-4 -13.5
q-17 -58 -35 -114t-39 -113l-18 -46t-19 -46q-2 -6 -5.5 -12t-7.5 -11q-2 -4 -5.5 -7t-6.5 -6q-11 -9 -24 -3q-11 6 -11 21q0 7 3 9q10 7 14 16.5t8 19.5q20 50 36 97q17 50 32.5 100t28.5 101q2 6 4 17zM288 411q2 -8 3.5 -16.5t3.5 -16.5t0.5 -16t0.5 -17q20 3 38.5 6
t37.5 6t37.5 5.5t37.5 5.5t37.5 4.5t38.5 6.5q4 16 7.5 31.5t6.5 31.5q8 35 15 70t10 71q1 11 1.5 22.5t-0.5 22.5q-2 20 -9.5 24.5t-26.5 -0.5q-23 -7 -45 -23q-47 -33 -86 -74q-56 -60 -102 -134q-2 -2 -3 -5t-3 -5zM41 317q15 -5 29 -4t28 3l26 2t27 3t27 4.5t27 4.5
q19 31 36 63q1 2 1 8q-6 2 -8 3q-14 4 -27 2.5t-26 -5.5q-34 -11 -65 -27.5t-59 -37.5q-5 -4 -9 -8t-7 -11zM109 19q2 3 3.5 5t3.5 4q11 17 21.5 34t19.5 34q27 54 51 108q9 21 16.5 42t15.5 43q1 2 1 5t2 7h-12l-9 -3q-15 -26 -34 -65t-35.5 -80t-28.5 -77.5t-15 -56.5z
M248 337q3 3 3 5q-1 1 -1 2q-3 -1 -4 -4l1 -1q0 -1 1 -2zM545 724q-5 0 -9.5 3.5t-5.5 8.5q-1 3 -0.5 6.5t1.5 6.5q1 5 7 13q28 43 65 76q4 6 11 9q11 5 19 -3q7 -9 1 -19q-4 -6 -6 -8q-17 -15 -30.5 -32t-26.5 -35q-5 -5 -8.5 -10t-8.5 -10q-2 -2 -4.5 -3t-4.5 -3z" />
    <glyph glyph-name="Acircumflex" unicode="&#xc2;" horiz-adv-x="725" 
d="M511 340q-9 0 -41.5 -4t-70.5 -9t-71 -10.5t-42 -8.5q-2 -4 -3 -7q-12 -34 -26 -67t-30 -65q-23 -49 -48.5 -96t-54.5 -92q-6 -9 -12 -17.5t-13 -17.5q-9 -13 -23 -8q-17 5 -17 23q0 8 1 14.5t3 14.5q5 28 13.5 55t19.5 53q17 46 36.5 90.5t42.5 87.5q4 8 5 12v3
q-4 0 -7 0.5t-7 -0.5q-20 -2 -40.5 -4.5t-40.5 -4.5q-13 -2 -25 -2t-25 3q-5 2 -9.5 3.5t-9.5 4.5q-21 13 -14 37q3 10 9 19q7 10 17 20q63 54 147 77q23 6 45.5 4.5t43.5 -12.5q6 2 8.5 6.5t5.5 9.5q21 32 45 62t50 59q41 46 94 83q10 8 21 14t22 11q20 10 46 7
q29 -3 41 -29q3 -7 4.5 -14t3.5 -14q7 -47 -2 -96q-6 -35 -12.5 -69t-13.5 -69q0 -8 -1 -13h17q20 0 39 0.5t39 0.5q13 0 27 -3q17 -3 24 -18q5 -10 -0.5 -19.5t-16.5 -10.5q-8 -2 -13 5t-14 7q-29 3 -57 2.5t-57 -3.5q-2 -8 -4 -14.5t-4 -13.5q-17 -58 -35.5 -114
t-38.5 -113q-9 -23 -18.5 -46t-18.5 -46l-6 -12t-7 -11q-2 -4 -5.5 -7t-7.5 -6q-11 -9 -23 -3t-12 21q0 7 4 9q10 7 14 16.5t8 19.5q9 24 18.5 48t17.5 49q17 50 32 100t29 101q2 6 4 17zM288 411q2 -8 3.5 -16.5t3.5 -16.5t0 -16t0 -17q20 3 38.5 6t37.5 6t38 5.5t38 5.5
q18 3 37 4.5t38 6.5l15 63q8 35 14.5 70t10.5 71q1 11 1.5 22.5t-0.5 22.5q-2 20 -9.5 24.5t-26.5 -0.5q-23 -7 -46 -23q-47 -34 -85 -74q-29 -31 -54.5 -64.5t-48.5 -69.5q-3 -5 -5 -10zM40 317q16 -5 30 -4t28 3l26 2t27 3t27 4.5t27 4.5l36 63q1 2 1 8q-6 2 -8 3
q-14 4 -27 2.5t-26 -5.5q-35 -11 -65.5 -27.5t-59.5 -37.5q-5 -4 -8.5 -8t-7.5 -11zM108 19q6 6 8 9q11 17 21.5 34t19.5 34q27 54 51 108q9 21 16.5 42t15.5 43q1 2 1 5t1 7h-11q-2 -1 -4.5 -1.5t-4.5 -1.5q-16 -26 -34.5 -65t-35 -80t-29 -77.5t-15.5 -56.5zM248 337
q1 2 1.5 2.5t1.5 2.5l-2 2q-2 -2 -3 -4l1 -1q0 -1 1 -2zM590 784q-6 -5 -9.5 -9t-7.5 -8l-36 -33q-7 -5 -18 -11q-6 -2 -12 -2q-11 0 -15 11q-1 9 7 16q4 2 7.5 4t6.5 4q23 17 43 36.5t35 44.5q5 8 10.5 12t14.5 2q17 -3 17 -24q2 -13 2 -25t1 -24q0 -21 10 -37q4 -8 4 -12
q2 -11 -7 -18q-12 -7 -20 -1q-9 5 -13 12q-11 16 -14 34q-2 6 -3 12.5t-3 15.5z" />
    <glyph glyph-name="Atilde" unicode="&#xc3;" horiz-adv-x="724" 
d="M511 340q-6 0 -23 -1.5t-40.5 -4.5t-49 -7t-49 -7.5t-40.5 -6.5t-23 -5q-2 -4 -3 -7q-12 -34 -26.5 -67t-29.5 -65q-23 -49 -48.5 -96t-54.5 -92q-6 -9 -12.5 -17.5t-12.5 -17.5q-9 -12 -24 -8q-7 2 -12 8.5t-4 14.5q0 8 1 14.5t3 14.5q5 28 13.5 55t19.5 53
q17 46 36.5 90.5t42.5 87.5q2 3 2.5 6t2.5 6v1q-1 1 -1 2q-3 0 -6 0.5t-7 -0.5q-20 -2 -40.5 -4.5t-41.5 -4.5q-12 -2 -24.5 -2t-24.5 3q-5 2 -9.5 3.5t-9.5 4.5q-21 13 -14 37q2 5 4 9.5t4 9.5q8 12 18 20q63 54 146 77q23 6 46 4.5t44 -12.5q6 2 8.5 6.5t5.5 9.5
q21 32 45 62t50 59q41 46 94 83q10 8 20.5 14t21.5 11q21 10 47 7q29 -3 41 -29q3 -7 4.5 -14t3.5 -14q7 -47 -2 -96q-6 -35 -12.5 -69t-13.5 -69q0 -3 -0.5 -6t-0.5 -7h17q20 0 39 0.5t39 0.5q14 0 26 -3q16 -3 24 -18q5 -10 0 -19.5t-16 -10.5q-8 -1 -13 5q-5 7 -14 7
q-29 3 -57 2.5t-57 -3.5q-2 -8 -4.5 -14.5t-4.5 -13.5q-16 -58 -34.5 -114t-39.5 -113q-8 -23 -17.5 -46t-18.5 -46l-6 -12t-7 -11q-6 -7 -13 -13q-11 -9 -23 -3t-12 21q0 2 1 5t3 4q10 7 14 16.5t8 19.5l18 48t17 49q17 50 32.5 100t29.5 101q1 4 1.5 8t2.5 9zM288 411
q2 -8 3.5 -16.5t3.5 -16.5t0 -16t0 -17q20 3 38.5 6t37.5 6t37.5 5.5t37.5 5.5t38 4.5t38 6.5q4 16 7.5 31.5t6.5 31.5q8 35 15 70t10 71q1 11 2 22.5t-1 22.5q-2 20 -9.5 24.5t-25.5 -0.5q-23 -7 -46 -23q-23 -17 -44 -35.5t-41 -38.5q-29 -31 -54.5 -64.5t-48.5 -69.5
q-3 -5 -5 -10zM40 317q16 -5 29.5 -4t27.5 3q14 1 27 2t26 3q14 2 27.5 4.5t26.5 4.5q10 16 19 31.5t18 31.5q1 2 0.5 4t0.5 4q-3 1 -5 1.5t-4 1.5q-13 4 -26 2.5t-26 -5.5q-35 -11 -65.5 -27.5t-59.5 -37.5q-5 -4 -8.5 -8t-7.5 -11zM108 19q2 3 4 5l4 4q11 17 21.5 34
t19.5 34q27 54 51 108l16 42t16 43q1 2 1 5t1 7h-11l-9 -3q-16 -26 -34.5 -65t-35 -80t-29 -77.5t-15.5 -56.5zM248 337q1 2 1.5 2.5t1.5 2.5l-2 2q-2 -2 -3 -4l1 -1q0 -1 1 -2zM598 739q-6 0 -15.5 3t-18.5 10q-3 2 -11 8q-18 11 -34 -2q-4 -3 -7 -6.5t-7 -6.5
q-10 -8 -21 -2q-12 7 -8 21q3 8 7 13q11 12 23.5 19.5t29.5 9.5q25 2 42 -11q6 -4 8 -6q11 -8 26 -8q11 0 21 10q2 2 5 3.5l5 2.5q11 2 17 -6t3 -18q-3 -12 -15 -21q-19 -13 -50 -13z" />
    <glyph glyph-name="Adieresis" unicode="&#xc4;" horiz-adv-x="724" 
d="M511 340q-9 0 -42 -4t-71 -9t-70.5 -10.5t-41.5 -8.5q-1 -2 -2 -3.5t-2 -3.5q-12 -34 -26 -67t-29 -65q-23 -49 -48.5 -96t-54.5 -92q-6 -9 -12.5 -17.5t-12.5 -17.5q-9 -12 -24 -8q-8 2 -12.5 8.5t-3.5 14.5q0 8 1 14.5t2 14.5q6 28 14.5 55t18.5 53q18 46 37.5 90.5
t42.5 87.5q2 3 2.5 6t2.5 6v1q-1 1 -1 2q-3 0 -6.5 0.5t-6.5 -0.5q-20 -2 -41 -4.5t-41 -4.5q-12 -2 -24.5 -2t-24.5 3t-19 8q-21 13 -14 37q3 12 8 19q8 12 18 20q63 54 146 77q23 6 45.5 4.5t44.5 -12.5q5 2 8 6.5t5 9.5q22 32 45.5 62t49.5 59q42 46 94 83q20 14 43 25
q20 10 46 7q30 -3 42 -29q5 -12 7 -28q5 -24 4 -48t-5 -48q-6 -35 -12.5 -69t-13.5 -69q-1 -4 -1 -13h17q20 0 39 0.5t39 0.5q14 0 26 -3q16 -3 24 -18q5 -10 -0.5 -19.5t-16.5 -10.5q-9 -2 -12 5q-5 7 -14 7q-29 3 -57 2.5t-57 -3.5q-2 -8 -4.5 -14.5t-4.5 -13.5
q-17 -58 -35 -114t-39 -113q-8 -23 -17.5 -46t-19.5 -46q-2 -6 -5.5 -12t-6.5 -11q-6 -7 -13 -13q-11 -9 -23 -3t-12 21q0 7 3 9q10 7 14 16.5t9 19.5l18 48t17 49q17 50 32.5 100t29.5 101q1 4 1.5 8t2.5 9zM288 411q2 -8 3.5 -16.5t2.5 -16.5q2 -8 0.5 -16t0.5 -17
q20 3 38.5 6t37.5 6t37.5 5.5t37.5 5.5t37.5 4.5t38.5 6.5q4 16 7.5 31.5t6.5 31.5q8 35 15 70t10 71q1 11 1.5 22.5t-0.5 22.5q-2 20 -9.5 24.5t-26.5 -0.5q-23 -7 -45 -23q-23 -17 -44 -35.5t-41 -38.5q-29 -31 -54.5 -64.5t-48.5 -69.5q-3 -5 -5 -10zM40 317
q16 -5 29.5 -4t27.5 3q14 1 26.5 2t26.5 3t27 4.5t27 4.5q10 16 19 31.5t18 31.5q1 2 0.5 4t-0.5 4q-2 1 -4 1.5t-4 1.5q-14 4 -26.5 2.5t-25.5 -5.5q-35 -11 -65.5 -27.5t-59.5 -37.5q-5 -4 -9 -8t-7 -11zM108 19q2 3 4 5t3 4l22 34t20 34q14 27 26.5 54t23.5 54
q9 21 17 42t16 43q1 2 1 5t1 7h-12q-6 -2 -8 -3q-16 -26 -34.5 -65t-35 -80t-29 -77.5t-15.5 -56.5zM248 337q2 4 2 5q-1 0 -1 2q-1 -1 -2 -1.5t-2 -2.5q0 -1 1 -1zM510 771q0 14 8.5 26t21.5 16q3 1 9 -1q8 -2 11.5 -7t5.5 -11q4 -13 -4.5 -28.5t-21.5 -19.5q-9 -3 -17 0.5
t-11 12.5q-2 5 -2 12zM615 751q2 4 3 8.5t3 9.5q3 10 10 14t16 5q11 1 18 -5.5t8 -17.5t-7.5 -24.5t-19.5 -18.5q-10 -5 -18.5 -0.5t-10.5 15.5q-1 3 -1 6.5t-1 7.5z" />
    <glyph glyph-name="Aring" unicode="&#xc5;" horiz-adv-x="724" 
d="M510 340q-9 0 -41.5 -4t-70.5 -9t-71 -10.5t-42 -8.5q-2 -4 -3 -7q-12 -34 -26 -67t-30 -65q-46 -99 -102 -188q-6 -9 -12.5 -17.5t-13.5 -17.5q-8 -13 -23 -8q-17 5 -17 23q1 8 1.5 14.5t2.5 14.5q6 28 14.5 55t18.5 53q17 46 36.5 90.5t43.5 87.5q2 4 4 12v3
q-3 0 -6.5 0.5t-6.5 -0.5q-21 -2 -41.5 -4.5t-40.5 -4.5q-12 -2 -24.5 -2t-24.5 3q-5 2 -10 3.5t-9 4.5q-22 13 -14 37q1 9 8 19q8 12 18 20q61 54 146 77q23 6 45.5 4.5t44.5 -12.5q5 2 7.5 6.5t5.5 9.5q21 32 45 62t50 59q21 24 44.5 44.5t49.5 38.5q10 8 21 14t22 11
q20 10 46 7q28 -3 42 -29l4 -14t3 -14q5 -24 4 -48t-5 -48q-6 -35 -13 -69t-13 -69q-1 -3 -1 -6t-1 -7h17q20 0 39.5 0.5t38.5 0.5q13 0 27 -3q17 -3 24 -18q5 -10 -0.5 -19.5t-16.5 -10.5q-8 -2 -13 5q-4 7 -14 7q-28 3 -56.5 2.5t-57.5 -3.5q-2 -8 -4 -14.5t-4 -13.5
q-17 -58 -35 -114t-39 -113l-18 -46t-19 -46q-2 -6 -5.5 -12t-7.5 -11q-2 -4 -5.5 -7t-6.5 -6q-11 -10 -23 -3q-12 6 -12 21q0 7 3 9q10 7 14 16.5t8 19.5q20 50 36 97q17 50 32.5 100t29.5 101q1 4 1.5 8t1.5 9zM287 411q2 -8 3.5 -16.5t3.5 -16.5t0.5 -16t0.5 -17
q20 3 38.5 6t37.5 6t37.5 5.5t37.5 5.5t37.5 4.5t38.5 6.5q4 16 7.5 31.5t6.5 31.5q8 35 15 70t10 71q1 11 1.5 22.5t-0.5 22.5q-2 20 -9.5 24.5t-26.5 -0.5q-23 -7 -45 -23q-48 -34 -85 -74q-29 -31 -54.5 -64.5t-48.5 -69.5q-2 -2 -3 -5t-3 -5zM40 317q15 -5 29 -4t28 3
l26 2t27 3t27 4.5t27 4.5q19 31 36 63q2 2 1.5 4t-0.5 4q-6 2 -8 3q-14 4 -27 2.5t-25 -5.5q-35 -11 -66 -27.5t-59 -37.5q-5 -4 -9 -8t-7 -11zM108 19q2 3 4 5t3 4q11 17 21.5 34t20.5 34q14 27 26 54l24 54q9 21 16.5 42t15.5 43l3 12h-12l-9 -3q-15 -26 -33.5 -65
t-35 -80t-29 -77.5t-15.5 -56.5zM248 337q2 4 2 5q-1 1 -1 2q-3 -1 -4 -4zM534 770q1 19 8.5 36t23.5 31q8 6 16.5 9.5t19.5 -0.5q3 -2 7 -1.5t9 0.5q22 0 33 -20q16 -25 4 -53q-10 -24 -27 -43q-27 -27 -61 -17q-19 6 -26 22q-3 8 -5 16.5t-2 19.5zM574 763v-5
q2 -9 8 -12.5t14 1.5l6 4t5 5q5 7 8 14t7 14q2 6 2 8q0 16 -14 21q-5 2 -12.5 -1t-10.5 -8q-6 -8 -10 -18t-3 -23z" />
    <glyph glyph-name="AE" unicode="&#xc6;" horiz-adv-x="907" 
d="M942 292q7 -8 0 -18q-5 -6 -12 -12q-25 -20 -48 -41t-46 -43q-49 -44 -101 -82.5t-109 -70.5q-30 -17 -61 -33t-63 -30q-26 -11 -51 -15q-27 -5 -50 7t-34 37q-16 36 -11 79q4 39 18 77q19 52 47 97.5t63 87.5q4 4 7.5 8t7.5 8q-19 -2 -51.5 -7.5t-66 -12t-60.5 -12
t-35 -8.5q-2 -4 -3 -7q-12 -34 -26 -67t-30 -65q-23 -49 -48.5 -96t-54.5 -92q-5 -9 -11.5 -17.5t-13.5 -17.5q-9 -12 -23 -8q-17 5 -17 23q0 8 1 14.5t3 14.5q12 55 33 108q17 46 36.5 90.5t42.5 87.5q4 8 5 12v3q-3 0 -6.5 0.5t-7.5 -0.5q-20 -2 -40.5 -4.5t-40.5 -4.5
q-13 -2 -25 -2t-24 3q-5 2 -10 3.5t-9 4.5q-22 12 -15 37q3 10 9 19q7 10 17 20q63 54 147 77q23 6 45.5 4.5t43.5 -12.5q6 2 8.5 6.5t5.5 9.5q21 32 45 62t50 59q21 24 44.5 44.5t49.5 38.5q10 8 21 14t22 11q20 10 46 7q29 -3 41 -29q3 -7 4.5 -14t3.5 -14q1 -4 1 -7t1 -7
q32 26 70 50q24 14 49.5 24.5t52.5 15.5q8 2 15 2.5t14 -1.5q44 -6 54 -48q9 -36 -1 -70q-6 -20 -14.5 -39.5t-20.5 -37.5q-8 -13 -16.5 -24.5t-17.5 -22.5l-7.5 -7.5t-8.5 -5.5q-5 -3 -11 -2t-10 5q-11 9 -2 21q4 5 8 10.5t8 10.5q26 29 45 65q6 13 11 26t6 27q2 14 -1 25
q-6 35 -41 30q-27 -4 -54 -17q-19 -8 -35 -18q-48 -30 -90 -66t-77 -80q-9 -11 -17 -22t-14 -24q-2 -4 -3 -7t-3 -7q-2 -5 -3.5 -10t2.5 -10t9 -3.5t10 2.5q22 4 43 11.5t42 15.5q4 2 7.5 3.5t7.5 2.5q11 3 18 -7q7 -11 2 -18q-3 -4 -6.5 -8t-7.5 -7q-8 -7 -17 -13.5
t-17 -13.5q-112 -98 -169 -237q-9 -23 -14.5 -47t-3.5 -50q1 -17 6 -33q10 -31 42 -25q8 2 16 3.5t16 4.5q59 23 113.5 52.5t105.5 65.5q35 24 67.5 50.5t63.5 55.5q19 17 37.5 34t38.5 34q3 4 11 10q3 2 9 4q11 3 17 -5zM151 321q14 2 27 4.5t27 4.5l36 63q1 2 1 8
q-6 2 -8 3q-14 4 -27 2.5t-26 -5.5q-34 -11 -65 -27.5t-60 -37.5l-8 -8t-8 -11q16 -5 30 -4t28 3l26 2t27 3zM240 289q1 2 1 5t1 7h-11l-9 -3q-16 -26 -34.5 -65t-35 -80t-28.5 -77.5t-15 -56.5q2 3 3.5 5t3.5 4q11 17 21.5 34t19.5 34q27 54 51 108q9 21 16.5 42t15.5 43z
M248 337q1 2 2 2.5t1 2.5l-2 2q-2 -2 -3 -4l1 -1q0 -1 1 -2zM447 368q7 1 13.5 2.5t14.5 3.5q-21 13 -21 38q0 9 2 16.5t5 15.5q16 35 36 61q15 20 31 37t33 34q0 5 1 7q1 11 1.5 22.5t-0.5 22.5q-2 20 -9.5 24.5t-26.5 -0.5q-23 -7 -46 -23q-47 -34 -85 -74
q-29 -31 -54.5 -64.5t-48.5 -69.5q-2 -2 -2.5 -5t-2.5 -5q2 -8 3.5 -16.5t3.5 -16.5t0 -16t0 -17q20 3 38.5 6t37.5 6t38 5.5t38 5.5z" />
    <glyph glyph-name="Ccedilla" unicode="&#xc7;" horiz-adv-x="522" 
d="M551 298q4 -2 5.5 -6t-0.5 -8q-7 -12 -15 -20q-10 -11 -20 -21t-20 -21q-27 -27 -53.5 -54t-54.5 -53q-37 -35 -76.5 -67t-83.5 -59q-23 -14 -47.5 -25.5t-51.5 -17.5q-8 -2 -15 -3t-15 -1q-6 -1 -10 0q-1 -5 -3 -13q3 -2 5.5 -2.5t4.5 -2.5q17 -8 26.5 -23t7.5 -33
q-6 -59 -60 -88q-9 -5 -19 -6q-10 -2 -19 1.5t-15.5 10.5t-9 16.5t0.5 19.5q2 6 5 11.5t8 10.5q3 2 6.5 3.5t6.5 3.5q7 2 15 -5q5 -8 -1 -16q-2 -3 -4.5 -6t-4.5 -6q-3 -4 -1 -9q4 -5 9 -4q3 0 9 2q17 11 28 25t13 35q1 10 -3 19q-7 12 -20 9l-4 -2t-4 -1q-8 -2 -14.5 3
t-4.5 13q2 11 5 21t5 21q-15 9 -27 24q-31 40 -34 92q-1 6 -0.5 12.5t0.5 12.5q-1 20 1.5 38.5t6.5 37.5q29 134 91.5 248t157.5 213q15 15 31 29t34 25q20 12 36 17q31 11 53 -12q9 -9 12 -21q6 -19 4 -37.5t-7 -36.5t-10 -32q-17 -44 -36 -86t-44 -83q-10 -17 -20 -31
q-2 -3 -5 -6.5t-6 -5.5q-10 -8 -21 -1q-11 8 -6 21q2 5 4.5 9t5.5 9q23 36 43.5 73t37.5 76q6 14 11 26.5t10 26.5q3 8 5 17.5t4 18.5q2 8 0.5 16t-4.5 16q-5 12 -19 8q-6 -1 -14 -7q-11 -8 -22 -15t-20 -15l-27.5 -27.5t-26.5 -27.5q-47 -54 -84.5 -111.5t-66.5 -122.5
q-42 -95 -63 -199q-8 -44 -2 -85q4 -29 22 -54q14 -22 40 -20q23 1 49 11q62 24 115 65l12 8t12 9q46 33 87 70.5t81 78.5q17 17 34 35.5t34 36.5l3 3l3 3q9 3 14 -2z" />
    <glyph glyph-name="Egrave" unicode="&#xc8;" horiz-adv-x="554" 
d="M465 757q0 -5 -1 -8q-2 -11 -12 -11q-9 0 -14 8q0 1 -0.5 2t-0.5 2q-5 21 -14.5 39.5t-21.5 35.5q-4 5 -7 13q-4 9 3 16q9 9 19 2q3 -2 8 -7q31 -35 40 -83q1 -3 1 -9zM161 372q-6 0 -10 0.5t-8 0.5q-20 0 -31 11.5t-12 31.5q0 9 2 16.5t5 15.5q16 35 36 61
q38 49 83 89.5t97 72.5q24 14 49.5 24.5t52.5 15.5q8 2 15 2.5t14 -1.5q44 -6 54 -48q9 -36 -1 -70q-12 -40 -35 -77q-8 -13 -16.5 -24.5t-17.5 -22.5l-7.5 -7.5t-8.5 -5.5q-5 -3 -11 -2t-10 5q-11 9 -2 21q4 5 7.5 10.5t8.5 10.5q26 29 45 65q7 13 11.5 26t5.5 27
q2 14 -1 25q-6 35 -42 30q-26 -4 -53 -17q-19 -8 -35 -18q-48 -30 -90 -66t-77 -80q-9 -11 -17 -22t-14 -24q-2 -4 -3 -7t-3 -7q-1 -5 -3 -10t2 -10t9 -3.5t10 2.5q22 4 43 11.5t42 15.5q4 2 7.5 3.5t7.5 2.5q11 3 18 -7q7 -11 2 -18q-3 -4 -6.5 -8t-7.5 -7q-8 -7 -17 -13.5
t-17 -13.5q-112 -98 -169 -237q-9 -23 -14.5 -47t-3.5 -50q1 -17 6 -33q10 -31 42 -25q8 2 16 3.5t16 4.5q59 23 113.5 52.5t105.5 65.5q35 24 67.5 50.5t63.5 55.5l38 34l38 34q3 4 11 10q3 2 9 4q11 3 17 -5q7 -8 0 -18q-3 -4 -11 -12q-26 -20 -49 -41t-46 -43
q-49 -44 -101 -82.5t-109 -70.5q-30 -17 -61 -33t-63 -30q-26 -11 -52 -15q-26 -5 -49 7t-34 37q-16 36 -11 79q4 39 18 77q19 52 47 97.5t63 87.5q6 7 12 13.5t12 12.5q4 6 7 10z" />
    <glyph glyph-name="Eacute" unicode="&#xc9;" horiz-adv-x="552" 
d="M437 749q-12 0 -14 11q-1 6 1 14q1 5 7 13q14 21 30 40t35 36q3 3 11 9q5 2 10 1t9 -4q7 -9 1 -20q-2 -2 -3 -3.5t-3 -3.5q-17 -15 -30.5 -32t-27.5 -35q-4 -5 -7.5 -10.5t-8.5 -10.5q-5 -3 -10 -5zM161 372q-6 0 -10 0.5t-9 0.5q-20 0 -31 11.5t-11 31.5q-1 9 1 16.5
t6 15.5q14 35 36 61q75 97 180 162q48 30 102 40q16 4 29 1q42 -6 54 -48q9 -34 -2 -70q-13 -43 -34 -77q-8 -13 -17 -24.5t-18 -22.5q-7 -8 -16 -13q-5 -3 -11 -2t-10 5q-9 9 -2 21q4 5 8 10.5t9 10.5q26 31 44 65q7 13 11.5 26t6.5 27v12.5t-1 12.5q-3 17 -14 24.5
t-28 5.5q-28 -4 -53 -17q-19 -8 -35 -18q-48 -30 -90 -66t-78 -80q-9 -11 -17 -22t-13 -24q-5 -8 -6 -14l-4 -10t2 -10q5 -5 9.5 -3.5t9.5 2.5q23 4 43.5 11.5t41.5 15.5q5 2 8.5 3.5t7.5 2.5q10 3 18 -7q6 -10 1 -18q-3 -4 -6.5 -8t-7.5 -7q-8 -7 -17 -13.5t-17 -13.5
q-113 -99 -168 -237q-10 -23 -15 -47t-3 -50q1 -8 2 -16.5t4 -16.5q10 -31 41 -25q8 2 16.5 3.5t16.5 4.5q59 23 113 52.5t106 65.5q35 24 67 50.5t63 55.5l38 34l38 34q3 3 6 5.5t5 4.5q4 2 10 4q11 4 16 -5q6 -8 1 -18l-12 -12q-25 -20 -48.5 -41t-46.5 -43
q-48 -44 -100 -82.5t-109 -70.5q-31 -17 -61.5 -33t-63.5 -30q-24 -11 -51 -15q-27 -5 -49.5 7t-33.5 37q-9 19 -11 39t0 40t6.5 39t11.5 38q18 52 46.5 97.5t63.5 87.5q5 7 11.5 13.5t11.5 12.5q2 2 3.5 4.5t4.5 5.5z" />
    <glyph glyph-name="Ecircumflex" unicode="&#xca;" horiz-adv-x="554" 
d="M448 814q-6 -5 -10 -8.5t-8 -7.5q-8 -8 -17 -16.5t-19 -16.5q-4 -4 -8 -6.5t-9 -4.5q-5 -3 -12 -3q-13 0 -15 12q-1 10 7 16q7 3 14 8q23 17 43 36.5t35 44.5q5 7 10.5 11.5t14.5 2.5q15 -3 17 -25q1 -12 1.5 -24t1.5 -25q0 -20 10 -37q2 -3 4 -11q2 -13 -8 -18
q-10 -7 -19 -2q-4 3 -7.5 6t-5.5 7q-11 16 -14 34q-2 6 -3 12.5t-3 14.5zM161 372q-6 0 -10 0.5t-8 0.5q-20 0 -31 11.5t-12 31.5q0 9 2 16.5t5 15.5q16 35 36 61q38 49 83 89.5t97 72.5q24 14 49.5 24.5t52.5 15.5q8 2 15 2.5t14 -1.5q44 -6 54 -48q9 -33 -1 -70
q-12 -40 -35 -77q-8 -13 -16.5 -24.5t-18.5 -22.5q-6 -8 -15 -13q-5 -3 -11 -2t-10 5q-11 9 -2 21q4 5 7.5 10.5t8.5 10.5q26 29 45 65q7 13 11.5 26t5.5 27q2 14 -1 25q-6 35 -42 30q-26 -4 -53 -17q-19 -8 -35 -18q-48 -30 -90 -66t-77 -80q-9 -11 -17 -22t-14 -24
q-2 -4 -3 -7t-3 -7q-2 -5 -3.5 -10t2.5 -10t9 -3.5t10 2.5q22 4 43 11.5t42 15.5q4 2 7.5 3.5t7.5 2.5q11 3 18 -7q6 -9 2 -18q-3 -4 -6.5 -8t-7.5 -7q-8 -7 -17 -13.5t-17 -13.5q-112 -98 -169 -237q-9 -23 -14.5 -47t-3.5 -50q1 -17 6 -33q10 -31 42 -25q8 2 16 3.5
t16 4.5q59 23 113.5 52.5t105.5 65.5q35 24 67.5 50.5t63.5 55.5q19 17 37.5 34t38.5 34q3 4 11 10q3 2 9 4q11 3 17 -5q6 -9 0 -18q-5 -6 -12 -12q-25 -20 -48 -41t-46 -43q-49 -44 -101 -82.5t-109 -70.5q-30 -17 -61 -33t-63 -30q-26 -11 -52 -15q-26 -5 -49 7t-34 37
q-16 36 -11 79q4 39 18 77q19 52 47 97.5t63 87.5q6 7 12 13.5t12 12.5q4 6 7 10z" />
    <glyph glyph-name="Edieresis" unicode="&#xcb;" horiz-adv-x="553" 
d="M338 793q0 15 9 27t21 15q6 1 10 0q14 -4 17 -19q4 -13 -4.5 -28.5t-21.5 -19.5q-9 -3 -17 0.5t-11 12.5q-2 4 -2 7t-1 5zM444 773l6 18q3 10 10 14t16 5q11 1 18 -5.5t8 -17.5t-7.5 -24.5t-19.5 -18.5q-10 -4 -18.5 0.5t-11.5 15.5q0 8 -1 13zM161 372q-6 0 -10 0.5
t-9 0.5q-20 0 -31 11.5t-11 31.5q-1 9 1 16.5t6 15.5q14 35 36 61q75 97 180 162q23 14 48.5 24.5t53.5 15.5q16 4 29 1q43 -6 53 -48q10 -33 -1 -70q-6 -20 -14.5 -39.5t-20.5 -37.5q-8 -13 -16.5 -24.5t-17.5 -22.5q-7 -8 -16 -13q-5 -3 -11 -2t-10 5t-5 10t3 11t8 10.5
t9 10.5q26 31 44 65q7 13 11.5 26t6.5 27v12.5t-1 12.5q-3 17 -14 24.5t-28 5.5q-27 -4 -54 -17q-9 -4 -17.5 -8.5t-17.5 -9.5q-48 -30 -89.5 -66t-77.5 -80q-9 -11 -17 -22t-13 -24q-5 -8 -6 -14l-4 -10t2 -10q5 -5 9.5 -3.5t9.5 2.5q23 4 43.5 11.5t41.5 15.5q4 2 7.5 3.5
t8.5 2.5q10 3 18 -7q6 -10 1 -18q-3 -4 -6.5 -8t-7.5 -7q-8 -7 -17 -13.5t-17 -13.5q-113 -99 -168 -237q-10 -23 -15 -47t-3 -50q0 -15 5 -33q10 -31 42 -25q8 2 16.5 3.5t16.5 4.5q59 23 113 52.5t106 65.5q35 24 67 50.5t63 55.5l38 34l38 34q7 7 11 10q3 2 9 4
q12 3 17 -5q7 -8 0 -18q-3 -4 -11 -12q-26 -20 -49 -41t-46 -43q-48 -44 -100 -82.5t-109 -70.5q-31 -17 -62 -33t-63 -30q-24 -11 -51 -15q-27 -5 -49.5 7t-33.5 37q-9 19 -11 39t0 40t6.5 39t11.5 38q18 52 46.5 97.5t63.5 87.5q5 7 11.5 13.5t11.5 12.5q4 6 8 10z" />
    <glyph glyph-name="Igrave" unicode="&#xcc;" horiz-adv-x="431" 
d="M613 670q-5 2 -8 3t-7 2q-37 5 -73.5 5t-74.5 -3q-2 -1 -3.5 -1t-3.5 -1l-30 -50t-27 -51q-20 -42 -38.5 -83.5t-37.5 -83.5q-4 -9 -6.5 -18.5t-4.5 -19.5q-18 -75 -41 -147t-52 -144q-5 -11 -11 -21t-11 -21q0 -1 -2 -7q6 -2 11.5 -1t10.5 1q21 3 41.5 3.5t41.5 -0.5
q11 0 26 -5q29 -9 18 -39q-5 -16 -18 -23q-7 -4 -12 0q-6 4 -4 11q2 4 3.5 8t3.5 9q-8 4 -11 5q-6 1 -11.5 1h-11.5q-61 -2 -119 -14t-115 -37l-15 -6q-10 -1 -16 7q-7 7 -2 17q4 7 11 12q6 4 12.5 7t13.5 6q23 10 47.5 16.5t49.5 11.5q2 1 5 1.5t7 2.5q-5 14 -2.5 28.5
t5.5 28.5q9 44 23 85t30 83q15 40 30.5 79t32.5 78q11 25 11 49q2 29 -4 54q-5 18 -15 28q-17 19 -37 33t-45 20q-16 4 -27 9q-15 8 -16.5 20.5t12.5 21.5q6 5 13 8t15 6q26 9 52.5 16.5t53.5 14.5q73 17 147 25t149 6q10 0 19 -1t18 -3q7 -1 16 -5q18 -7 21 -23.5
t-12 -30.5q-5 -5 -10 -6q-8 -3 -13 1t-4 12q0 5 1 10zM199 624q38 -14 68.5 -40t46.5 -66q3 3 3 2q17 36 31 72.5t34 71.5q0 1 -0.5 2t-0.5 2q-15 0 -42 -5t-54.5 -12t-51.5 -14t-34 -13zM492 776q0 -5 -1 -8q-2 -10 -13 -12q-8 0 -13 9l-2 4q-5 21 -14.5 39.5t-21.5 35.5
q-2 3 -3.5 6t-3.5 6q-4 10 4 17q8 8 18 2q6 -4 8 -7q30 -34 41 -84q1 -2 1 -8z" />
    <glyph glyph-name="Iacute" unicode="&#xcd;" horiz-adv-x="431" 
d="M613 670q-5 2 -8 3t-7 2q-37 5 -74 5t-74 -3q-2 -1 -3.5 -1t-3.5 -1l-30 -50t-28 -51q-19 -42 -37.5 -83.5t-37.5 -83.5q-8 -20 -11 -38q-18 -75 -41 -147t-53 -144q-5 -11 -10.5 -21t-10.5 -21q-1 -2 -1 -3.5t-1 -3.5q6 -2 11.5 -1t10.5 1q21 3 41.5 3.5t40.5 -0.5
q12 0 27 -5q29 -10 18 -39q-5 -16 -19 -23q-7 -4 -11 0q-6 4 -4 11q2 4 3 8t3 9q-3 2 -5.5 3t-5.5 2q-5 1 -11 1h-11q-61 -2 -119 -14t-115 -37l-15 -6q-11 -2 -17 7q-6 7 -1 17q4 7 11 12q6 4 12.5 7t12.5 6q24 10 48 16.5t49 11.5q8 2 13 4q-5 14 -3 28.5t5 28.5
q10 44 24 85t30 83q15 40 30.5 79t32.5 78q5 12 8 24t3 25q0 14 -1 27t-4 27q-3 15 -14 28q-17 19 -37 33t-45 20q-14 3 -28 9q-15 8 -16 20.5t13 21.5q6 5 13 8l14 6q26 9 53 16.5t54 14.5q73 17 147 25t149 6q9 0 18 -1t19 -3q5 -1 15 -5q19 -7 22 -23.5t-12 -30.5
q-4 -4 -10 -6q-8 -3 -13 1t-5 12q0 2 0.5 4zM199 624q38 -14 68 -40t46 -66q1 1 2 1t2 1q17 36 31 72.5t33 71.5q1 1 -1 4q-15 0 -41.5 -5t-54.5 -12t-51.5 -14t-33.5 -13zM416 747q-13 0 -15 11q0 10 1 14q3 8 7 13q14 20 30 39.5t35 36.5q3 3 11 9q12 5 19 -4q4 -3 4 -8.5
t-3 -10.5q-1 -2 -2.5 -4t-3.5 -4q-17 -15 -30.5 -31.5t-26.5 -34.5q-5 -5 -8.5 -10.5t-8.5 -10.5q-2 -2 -4.5 -3t-4.5 -2z" />
    <glyph glyph-name="Icircumflex" unicode="&#xce;" horiz-adv-x="430" 
d="M612 670q-10 4 -14 5q-38 5 -74.5 5t-73.5 -3q-2 -1 -3.5 -1t-3.5 -1q-16 -25 -30.5 -50t-27.5 -51q-20 -42 -38.5 -83.5t-36.5 -83.5q-5 -9 -7.5 -18.5t-4.5 -19.5q-35 -149 -93 -291q-5 -11 -10.5 -21t-10.5 -21q-2 -4 -3 -7q6 -2 12 -1t11 1q20 3 41 3.5t41 -0.5
q13 0 26 -5q28 -9 19 -39q-5 -16 -19 -23q-7 -4 -12 0t-3 11q1 4 2.5 8t3.5 9q-3 2 -5.5 3t-5.5 2q-5 1 -11 1h-11q-61 -2 -119.5 -14t-114.5 -37q-4 -2 -7.5 -3t-8.5 -3q-10 -2 -16 7q-7 8 -1 17q3 7 11 12q10 7 25 13q23 10 47.5 16.5t49.5 11.5q8 2 13 4q-6 14 -3.5 28.5
t5.5 28.5q9 44 23 85t30 83q15 40 31 79l32 78q11 24 12 49q0 14 -1 27t-4 27q-3 16 -15 28q-17 19 -36.5 33t-45.5 20q-14 3 -27 9q-15 8 -16.5 20.5t12.5 21.5q7 5 13.5 8t14.5 6q50 17 107 31q73 17 146.5 25t149.5 6q9 0 18 -1t18 -3q5 -1 8.5 -2t7.5 -3q19 -7 22 -23.5
t-12 -30.5q-4 -4 -11 -6q-8 -3 -12.5 1t-4.5 12q0 2 0.5 4t0.5 6zM198 624q39 -14 69 -40t46 -66q3 3 3 2q17 36 31 72.5t34 71.5q0 3 -1 4q-15 0 -42 -5t-54.5 -12t-51.5 -14t-34 -13zM456 819q-5 -5 -9 -8.5t-8 -7.5q-9 -8 -17.5 -16.5t-18.5 -16.5q-4 -4 -8 -6.5t-9 -4.5
q-6 -3 -12 -3q-13 0 -15 12q-3 10 7 15q3 3 6.5 5t7.5 4q23 17 43 36.5t35 44.5q5 7 10 11.5t14 2.5q16 -3 18 -24q1 -13 1 -25t1 -25q2 -21 11 -37q2 -3 4 -11q1 -12 -8 -18q-11 -7 -19 -2t-13 13q-6 8 -9.5 16.5t-5.5 17.5q-2 6 -3 12.5t-3 14.5z" />
    <glyph glyph-name="Idieresis" unicode="&#xcf;" horiz-adv-x="431" 
d="M613 670q-5 2 -8 3t-7 2q-37 5 -73.5 5t-74.5 -3q-2 -1 -3.5 -1t-3.5 -1l-30 -50t-27 -51q-20 -42 -38.5 -83.5t-37.5 -83.5q-4 -9 -6.5 -18.5t-4.5 -19.5q-35 -151 -94 -291q-5 -11 -10.5 -21t-10.5 -21q0 -1 -2 -7q6 -2 11.5 -1t11.5 1q20 3 40.5 3.5t41.5 -0.5
q11 0 26 -5q29 -9 18 -39q-5 -16 -18 -23q-7 -4 -12 0q-6 4 -4 11q2 4 3.5 8t3.5 9q-8 4 -11 5q-5 1 -11 1h-12q-61 -2 -119 -14t-115 -37l-15 -6q-10 -1 -16 7q-7 7 -2 17q4 7 11 12q6 4 12.5 7t13.5 6q23 10 47.5 16.5t49.5 11.5q2 1 5 1.5t7 2.5q-5 14 -2.5 28.5
t5.5 28.5q9 44 23 85t30 83q15 40 30.5 79t32.5 78q11 25 11 49q2 29 -4 54q-5 18 -15 28q-17 19 -37 33t-45 20q-16 4 -27 9q-15 8 -16.5 20.5t12.5 21.5q6 5 13 8t15 6q26 9 52.5 16.5t53.5 14.5q74 17 147.5 25t148.5 6q9 0 18.5 -1t18.5 -3q7 -1 16 -5q18 -7 21 -23.5
t-12 -30.5q-5 -5 -10 -6q-8 -3 -13 1t-4 12q0 5 1 10zM199 624q38 -14 68.5 -40t46.5 -66q3 3 3 2q17 36 31 72.5t34 71.5q0 1 -0.5 2t-0.5 2q-15 0 -42 -5t-54.5 -12t-51.5 -14t-34 -13zM382 802q0 15 8.5 27t21.5 15q5 2 10 0q12 -4 17 -19q3 -12 -5.5 -27.5t-21.5 -20.5
q-19 -6 -28 14q-2 8 -2 11zM482 794q2 4 3 8.5t3 9.5q6 17 27 19q23 0 26 -23q0 -11 -8.5 -24.5t-18.5 -18.5q-11 -5 -19.5 -0.5t-11.5 15.5v6t-1 8z" />
    <glyph glyph-name="Eth" unicode="&#xd0;" horiz-adv-x="664" 
d="M685 298q12 -4 10 -17q-2 -11 -15 -13h-16q-47 4 -100 -2q-33 -2 -64 -6h-6q-11 -1 -17 -2t-10 -3.5t-7.5 -8t-9.5 -14.5q-71 -124 -188 -205q-28 -20 -57.5 -34t-60.5 -27q-8 -3 -15 -4.5t-15 -3.5q-22 -4 -34.5 7t-13.5 33q0 20 10 42q7 14 15.5 27t19.5 24
q13 14 26 26.5t27 23.5q50 40 104 71.5t114 52.5q8 3 17 6t18 5q14 5 19 15q12 26 25.5 51.5t25.5 51.5q13 26 22.5 54.5t14.5 57.5q5 24 5.5 48.5t-4.5 48.5q-4 21 -15.5 37t-29.5 29q-21 15 -42.5 21.5t-45.5 8.5q-60 6 -115 -20q-14 -7 -27.5 -14.5t-27.5 -15.5
q-42 -26 -70.5 -63.5t-47.5 -82.5q-13 -33 -10 -72q0 -6 0.5 -12.5t1.5 -12.5q5 0 10 0.5t10 0.5q11 16 20.5 32t20.5 32q26 38 58 71.5t69 62.5q7 5 16 10q6 2 12 2q9 0 14 -9q4 -9 -3 -16q-2 -3 -8 -7q-32 -26 -59 -58t-51 -66q-8 -12 -16.5 -24.5t-16.5 -25.5
q22 2 44 2.5t44 -0.5q5 -1 9.5 -1t8.5 -2q13 -3 11 -16t-13 -13q-4 -1 -13 -1q-8 1 -15.5 1h-15.5h-34q-12 -1 -24 -1.5t-23 -2.5q-6 -10 -11.5 -19.5t-11.5 -20.5q-4 -8 -5 -15.5t3 -15.5q1 -2 1.5 -5t1.5 -5q7 -17 6.5 -35.5t-5.5 -35.5q-6 -26 -17 -49t-25 -46
q-7 -10 -15 -17q-17 -12 -32 4q-3 5 -5.5 9t-4.5 9q-3 11 -4 22.5t1 22.5q7 47 26 92q6 15 11.5 29.5t11.5 28.5q3 8 2.5 14t-2.5 14q-2 5 -4 13q-5 -1 -8.5 -1t-8.5 -1q-8 -1 -16 -1.5t-17 -0.5q-4 -1 -12 1t-10 12q-1 5 1 9t7 6q11 5 22 6q8 1 16.5 1.5t17.5 0.5
q-2 13 -2.5 25.5t-0.5 25.5q1 36 17 70q43 97 133 156q21 14 42.5 25t45.5 18q51 14 102.5 9.5t94.5 -30.5q60 -37 69 -105q4 -26 1.5 -52.5t-8.5 -52.5q-11 -46 -27.5 -89.5t-37.5 -85.5q-3 -5 -6 -10.5t-4 -13.5q5 0 10 0.5t9 0.5q42 5 82.5 7t81.5 0q10 0 18 -3zM104 241
q1 7 1 13.5v13.5q0 5 -4 6q-5 -6 -11 -20t-11 -31t-8.5 -34t-3.5 -28l4.5 3t2.5 2q22 37 30 75zM400 227q2 3 4 9q-3 1 -5 1q-5 -1 -8.5 -2t-7.5 -3q-122 -45 -222 -131q-9 -8 -17 -16.5t-16 -17.5q-15 -17 -25 -41q-2 -6 -3 -12.5t-2 -13.5q-2 -13 11 -9q6 1 13 2.5t12 3.5
q20 10 39.5 19.5t38.5 20.5q20 11 38.5 26t35.5 30q35 29 63 62.5t51 71.5z" />
    <glyph glyph-name="Ntilde" unicode="&#xd1;" horiz-adv-x="705" 
d="M159 43q6 3 8 7t4 7q14 28 27.5 55.5t27.5 55.5q44 85 92.5 165.5t103.5 158.5q19 27 40 51t46 45q21 19 42 29q3 2 6 2.5t6 2.5q26 11 45.5 -0.5t21.5 -40.5q2 -11 1.5 -22.5t-2.5 -22.5q-4 -23 -9.5 -46t-11.5 -46q-11 -35 -21 -70l-20 -70q-10 -38 -16.5 -75t-8.5 -75
q-2 -37 7 -70q2 -8 6 -13.5t13 -7.5q2 -1 4.5 -2t4.5 -2q9 -6 8 -14q0 -9 -10 -11q-12 -3 -20 -2q-28 3 -40 29q-7 12 -10.5 25.5t-5.5 27.5q-5 23 -4.5 46t2.5 46q3 43 12 84t21 83q9 32 18.5 63.5t18.5 63.5q4 14 6.5 28t5.5 28t1 25h-6.5t-5.5 -1q-11 -4 -20 -9.5
t-17 -12.5q-20 -17 -37 -34t-32 -37q-16 -22 -31.5 -43.5t-30.5 -44.5q-45 -69 -85.5 -139t-75.5 -145q-12 -26 -24.5 -52t-25.5 -52q-2 -6 -5 -11.5t-6 -10.5q-6 -8 -11 -13q-13 -13 -28.5 -9t-21.5 21t-4 35q1 11 2 21.5t3 21.5q6 41 17 80.5t24 78.5q25 75 51.5 149
t55.5 147q11 26 19.5 52.5t13.5 53.5q1 5 1.5 9.5t0.5 9.5q0 14 -5 18t-19 2q-17 -4 -35 -17q-38 -27 -64 -60q-27 -34 -48 -70t-38 -75q-14 -32 -25 -65t-18 -68q-3 -12 -5 -24t0 -25q0 -8 -3 -14q-5 -10 -16.5 -10t-17.5 10q-7 8 -5 22q1 6 1.5 12t2.5 12
q13 51 28.5 100.5t40.5 97.5q11 22 23.5 43t25.5 42q20 32 45.5 58.5t55.5 48.5q26 18 55 24q26 5 45 -9t22 -40q1 -7 1 -13.5v-13.5q-2 -20 -6 -39.5t-10 -39.5q-7 -20 -14 -39.5t-15 -39.5q-23 -63 -47 -124t-47 -124q-14 -39 -26 -79t-20 -81q-1 -5 -1.5 -10.5
t-1.5 -12.5zM526 709q-6 0 -15.5 3t-18.5 10q-8 6 -12 8q-18 11 -34 -2q-4 -3 -7 -6.5t-6 -6.5q-11 -8 -21 -2q-5 4 -7.5 9.5t-0.5 11.5q2 9 6 13q11 12 23.5 19.5t29.5 9.5q23 3 43 -11q2 -2 8 -6q9 -8 25 -8q13 0 21 11q5 4 11 5q10 2 16 -6t4 -18q-5 -14 -16 -21
q-10 -7 -21 -10t-28 -3z" />
    <glyph glyph-name="Ograve" unicode="&#xd2;" horiz-adv-x="599" 
d="M71 113q-3 4 -5 5q-30 20 -44 56q-26 60 -20 122q8 104 53 188t124 152q56 47 126 62q56 11 108 -7q35 -12 60 -44q33 -42 40 -91q5 -28 5 -52q0 -42 -4 -82.5t-16 -80.5q-31 -100 -86 -195q-20 -34 -44.5 -64t-53.5 -58q-27 -26 -59 -41t-68 -23q-29 -6 -52.5 4.5
t-38.5 36.5q-8 12 -12 25t-7 27q-2 8 -2.5 15t-1.5 15t-1 15t-1 15zM124 104q-2 -20 0 -38.5t9 -35.5q8 -19 20 -25.5t32 -4.5q6 0 8 1q24 6 45.5 16t40.5 26q9 8 17.5 16.5l16.5 16.5q42 47 73 99.5t54 110.5q41 104 37 216q-1 11 -2 20.5t-3 20.5q-5 21 -13.5 39.5
t-23.5 34.5q-18 21 -42 28q-41 14 -83 3q-29 -7 -53 -20.5t-47 -30.5q-30 -25 -54.5 -54t-45.5 -61q-58 -94 -64 -206q-3 -55 22 -101q2 -3 9 -10q2 5 2.5 8.5t2.5 6.5q8 30 18.5 58t26.5 54q10 17 20.5 31.5t23.5 28.5l12 10t12 9q5 2 11 4t11 2q11 0 16 -8.5t0 -19.5
q-2 -4 -5.5 -7t-6.5 -7q-5 -7 -10.5 -12.5t-10.5 -12.5q-23 -32 -40.5 -67.5t-27.5 -74.5q-2 -5 -2.5 -11t-2.5 -12q4 -1 6.5 -1t4.5 -1q5 -1 10 -1t10 -2q9 -4 11 -12t-6 -14q-10 -7 -19 -8q-5 -2 -9.5 -1.5t-10.5 -0.5zM443 751q0 -6 -1 -8q-1 -5 -4.5 -8.5t-8.5 -3.5
q-8 0 -13 8q-1 2 -1 4q-5 21 -15 39.5t-21 35.5q-6 7 -7 13q-5 9 3 17t19 1q2 -2 3.5 -3t3.5 -3q30 -36 41 -84q1 -3 1 -8z" />
    <glyph glyph-name="Oacute" unicode="&#xd3;" horiz-adv-x="599" 
d="M71 113l-3 3l-2 2q-17 11 -27 25t-18 31q-24 60 -20 122q9 104 54 188t124 152q55 47 126 62q55 11 107 -7q36 -12 61 -44q33 -42 40 -91q2 -13 3 -26t1 -26q0 -42 -3.5 -82.5t-16.5 -80.5q-16 -51 -37 -99.5t-49 -95.5q-20 -34 -44.5 -64t-52.5 -58q-27 -26 -59 -41
t-68 -23q-59 -12 -92 41q-13 24 -18 52q-2 8 -3 15t-1 15q-2 8 -2 15v15zM123 104q-1 -20 1 -38.5t9 -35.5q8 -19 20 -25.5t32 -4.5q5 0 8 1q23 6 45 16t41 26q9 8 17.5 16.5l16.5 16.5q42 47 73 99.5t54 110.5q20 53 29.5 106t7.5 110q-1 11 -2 20.5t-3 20.5q-9 43 -37 74
q-19 21 -42 28q-42 13 -84 3q-28 -7 -52.5 -20.5t-46.5 -30.5q-30 -25 -54.5 -54t-45.5 -61q-59 -94 -64 -206q-3 -55 22 -101q2 -3 9 -10q2 5 2.5 8.5t2.5 6.5q8 30 18.5 58t26.5 54q19 35 44 60q5 5 11 10t13 9q5 2 10.5 4t11.5 2q11 0 16 -8.5t-1 -19.5q-2 -4 -5 -7
t-6 -7q-5 -7 -10.5 -12.5t-10.5 -12.5q-24 -32 -41.5 -67.5t-26.5 -74.5q-2 -5 -2.5 -11t-2.5 -12q3 -1 6 -1t5 -1q5 -1 10 -1t10 -2q9 -4 10.5 -12t-6.5 -14t-18 -8q-5 -2 -9.5 -1.5t-11.5 -0.5zM365 742q-13 0 -15 11q0 10 2 14q1 4 2.5 7t3.5 6q29 43 65 76q3 2 5.5 4.5
t6.5 4.5q11 5 19 -3q7 -9 1 -19q-4 -6 -7 -8q-16 -15 -30 -32t-27 -35q-8 -11 -17 -20q-2 -2 -4.5 -3t-4.5 -3z" />
    <glyph glyph-name="Ocircumflex" unicode="&#xd4;" horiz-adv-x="600" 
d="M72 113q-4 4 -6 5q-16 11 -26 25t-18 31q-26 60 -20 122q8 104 53 188t124 152q56 47 127 62q55 11 107 -7q36 -12 61 -44q31 -39 40 -91q2 -13 3 -26t1 -26q0 -42 -4 -82.5t-16 -80.5q-16 -51 -37 -99.5t-49 -95.5q-20 -34 -44.5 -64t-53.5 -58q-26 -26 -58.5 -41
t-68.5 -23q-58 -12 -91 41q-8 12 -12 25t-7 27q-1 8 -2 15t-2 15t-1 15v15zM124 104q-1 -20 1 -38.5t9 -35.5q7 -19 19.5 -25.5t32.5 -4.5q5 0 8 1q23 6 45 16t41 26q18 16 33 33q43 47 74 99.5t54 110.5q20 53 29.5 106t6.5 110q0 11 -1 20.5t-3 20.5q-9 43 -37 74
q-19 21 -43 28q-41 14 -83 3q-28 -7 -52.5 -20.5t-47.5 -30.5q-30 -25 -54.5 -54t-44.5 -61q-59 -94 -64 -206q-3 -55 22 -101q2 -2 4 -4.5t4 -5.5q2 5 3 8.5t2 6.5q8 30 19 58t27 54q19 35 44 60q5 5 11 10t13 9q5 2 10.5 4t10.5 2q12 0 17 -8.5t-1 -19.5q-2 -4 -5 -7
l-7 -7q-5 -7 -10.5 -12.5t-10.5 -12.5q-23 -32 -40.5 -67.5t-27.5 -74.5q-1 -5 -2 -11l-2 -12q3 -1 5.5 -1t4.5 -1q5 -1 10.5 -1t10.5 -2q9 -4 10.5 -12t-6.5 -14t-18 -8q-5 -2 -10 -1.5t-11 -0.5zM418 802q-6 -6 -10 -9.5t-7 -7.5l-36 -33q-4 -4 -8.5 -6.5t-9.5 -4.5
q-2 -2 -5.5 -2h-6.5q-11 0 -15 11q-1 10 7 16q4 2 7.5 4t6.5 4q23 17 43 36.5t35 44.5q5 7 10.5 11.5t14.5 2.5q17 -3 17 -24q2 -13 2 -25t1 -24q1 -10 3 -19.5t7 -18.5q4 -6 4 -11q2 -11 -8 -18t-19 -1q-9 5 -13 12q-11 16 -14 34q-2 6 -3 12.5t-3 15.5z" />
    <glyph glyph-name="Otilde" unicode="&#xd5;" horiz-adv-x="599" 
d="M71 113q-3 4 -5 5q-30 20 -44 56q-26 60 -20 122q8 104 53 188t124 152q56 47 126 62q56 11 108 -7q35 -12 60 -44q32 -40 40 -91q5 -28 5 -52q0 -42 -4 -82.5t-16 -80.5q-31 -100 -86 -195q-20 -34 -44.5 -64t-53.5 -58q-27 -26 -59 -41t-68 -23q-29 -6 -52.5 4.5
t-38.5 36.5q-8 12 -12 25t-7 27q-2 8 -2.5 15t-1.5 15t-1 15t-1 15zM124 104q-3 -39 9 -74q8 -19 20 -25.5t32 -4.5q6 0 8 1q24 6 46 16t40 26q9 8 17.5 16.5l16.5 16.5q43 47 73.5 99.5t53.5 110.5q41 104 37 216q-1 11 -2 20.5t-3 20.5q-5 21 -13.5 39.5t-22.5 34.5
q-19 21 -43 28q-41 14 -83 3q-29 -7 -53 -20.5t-47 -30.5q-30 -25 -54.5 -54t-44.5 -61q-59 -93 -65 -206q-3 -54 23 -101q1 -3 8 -10q2 5 3 8.5t2 6.5q8 30 18.5 58t26.5 54q10 17 20.5 31.5t24.5 28.5q5 5 11 10t13 9q5 2 10.5 4t10.5 2q12 0 16.5 -8.5t-0.5 -19.5
q-2 -4 -5.5 -7t-6.5 -7q-5 -7 -10.5 -12.5t-10.5 -12.5q-23 -32 -40.5 -67.5t-27.5 -74.5q-2 -5 -2.5 -11t-2.5 -12q4 -1 6.5 -1t4.5 -1q5 -1 10 -1t10 -2q9 -4 11 -12t-6 -14q-10 -7 -19 -8q-5 -2 -9.5 -1.5t-10.5 -0.5zM432 757q-6 0 -15 3t-18 9l-12 9q-17 10 -34 -2
q-4 -3 -7 -6.5t-7 -6.5q-9 -9 -20 -2q-13 7 -8 21q1 7 6 13q11 12 23.5 19.5t29.5 9.5q25 2 43 -11q2 -2 4 -3.5t4 -3.5q10 -7 25 -7q11 0 21 10q3 4 11 6q10 2 16 -6t4 -18q-4 -14 -16 -21q-10 -7 -21.5 -10t-28.5 -3z" />
    <glyph glyph-name="Odieresis" unicode="&#xd6;" horiz-adv-x="599" 
d="M71 113l-3 3l-2 2q-16 11 -26.5 25t-18.5 31q-24 60 -20 122q9 104 54 188t124 152q56 47 126 62q55 11 107 -7q36 -12 61 -44q33 -42 40 -91q2 -13 3 -26t1 -26q0 -42 -3.5 -82.5t-16.5 -80.5q-32 -104 -85 -195q-20 -34 -45 -64t-53 -58q-27 -26 -59 -41t-68 -23
q-60 -12 -91 41q-8 12 -12 25t-7 27q-2 8 -2.5 15t-1.5 15t-1 15t-1 15zM123 104q-1 -20 1 -38.5t9 -35.5q8 -19 20 -25.5t32 -4.5q5 0 8 1q23 6 45 16t41 26q9 8 17.5 16.5l16.5 16.5q42 47 73 99.5t54 110.5q41 104 37 216q-1 11 -2 20.5t-3 20.5q-9 43 -37 74
q-17 20 -42 28q-42 13 -84 3q-28 -7 -52.5 -20.5t-46.5 -30.5q-30 -25 -54.5 -54t-45.5 -61q-59 -94 -64 -206q-3 -55 22 -101q2 -3 9 -10q2 5 2.5 8.5t2.5 6.5q8 30 18.5 58t26.5 54q10 17 20 31.5t24 28.5l12 10t12 9q5 2 10.5 4t11.5 2q11 0 16 -8.5t0 -19.5q-3 -4 -6 -7
t-6 -7q-5 -7 -10.5 -12.5t-10.5 -12.5q-49 -66 -68 -142q-2 -5 -2.5 -11t-2.5 -12q3 -1 6 -1t5 -1q5 -1 10 -1t10 -2q9 -4 10.5 -12t-6.5 -14t-18 -8q-5 -2 -9.5 -1.5t-11.5 -0.5zM330 788q-1 15 8 27t21 16q3 1 5.5 0.5t5.5 -1.5q12 -3 17 -19q3 -12 -5.5 -27.5
t-21.5 -19.5q-20 -7 -28 13q-2 8 -2 11zM435 769q2 4 3 8.5t3 9.5q5 17 27 19q11 0 18 -6t7 -17q1 -11 -7.5 -24.5t-19.5 -18.5q-10 -5 -18.5 0t-10.5 16q-1 2 -1 5.5t-1 7.5z" />
    <glyph glyph-name="Oslash" unicode="&#xd8;" horiz-adv-x="599" 
d="M484 632q11 -17 18 -36.5t11 -39.5q2 -13 3 -26t1 -26q0 -42 -4 -82.5t-16 -80.5q-16 -51 -37 -99.5t-49 -95.5q-20 -34 -44.5 -64t-52.5 -58q-27 -26 -59.5 -41t-67.5 -23q-51 -10 -84 29q-2 -6 -4 -11.5t-4 -11.5q-3 -9 -10 -20q-3 -4 -8 -6.5t-10 -0.5q-7 2 -9.5 6.5
t-3.5 10.5q-1 2 -0.5 3.5t-0.5 4.5q1 3 1.5 6.5t2.5 7.5q5 17 10.5 33t11.5 31q-1 3 -1.5 5.5t-0.5 5.5q-2 8 -3 15t-2 15t-1 15v15q-2 3 -6 5q-16 11 -26 25t-18 31q-25 57 -20 122q9 104 54 188t123 152q56 47 127 62q55 11 107 -7q24 -8 42 -24q2 3 4 5.5t5 5.5l7.5 7.5
t7.5 8.5q2 1 3.5 2t3.5 2q16 10 27 -1t0 -26q-4 -9 -11 -17q-4 -5 -8 -10.5t-9 -11.5zM76 165q2 5 3 8.5t2 6.5q8 30 19 58t27 54q19 35 44 60q5 5 11 10t13 9q5 2 10.5 4t10.5 2q12 0 17 -8.5t-1 -19.5q-2 -4 -5 -7t-6 -7q-5 -7 -11 -12.5t-11 -12.5q-23 -32 -40.5 -67.5
t-27.5 -74.5q-1 -5 -1.5 -10.5t-2.5 -11.5q12 23 24.5 46t26.5 46q11 18 29.5 48t40.5 65.5t46.5 74t47 74t41.5 65t30 47.5q3 4 5.5 8t5.5 8q-14 13 -32 17q-41 14 -83 3q-28 -7 -52.5 -20.5t-47.5 -30.5q-29 -25 -53.5 -54t-45.5 -61q-59 -94 -64 -206q-3 -55 22 -101
q2 -2 4 -4.5t4 -5.5zM440 286q20 53 29.5 106t6.5 110q0 11 -1 20.5t-3 20.5q-3 12 -7 24t-11 23q-24 -35 -52.5 -78.5t-56 -85t-50 -77t-34.5 -55.5q-22 -36 -43 -71.5t-42 -72.5q-27 -49 -49 -101q2 -5 3 -9.5t3 -9.5q8 -19 20 -25.5t32 -4.5q5 0 8 1q23 6 45 16t41 26
q18 16 33 33q43 47 74 99.5t54 110.5z" />
    <glyph glyph-name="Ugrave" unicode="&#xd9;" horiz-adv-x="787" 
d="M335 702q-9 6 -18 0q-11 -5 -21 -9.5t-20 -10.5q-75 -47 -125 -118q-32 -46 -55.5 -95.5t-40.5 -103.5q-5 -17 -8 -33.5t-5 -33.5v-10q-3 -12 -16 -15q-10 -3 -20 7q-6 10 -5 19q2 11 2.5 21t3.5 20q5 15 9.5 29.5t10.5 28.5q13 32 27.5 62t30.5 59q26 48 59.5 88.5
t75.5 76.5q17 14 36 26.5t39 22.5q9 4 17.5 6.5t18.5 3.5q28 1 43 -23q9 -17 9 -35q1 -11 -1 -21.5t-5 -21.5q-9 -31 -20.5 -61.5t-25.5 -59.5q-27 -57 -52.5 -114.5t-49.5 -117.5q-15 -36 -27.5 -73t-21.5 -75q-15 -66 -11 -131l2 -14t6 -14q4 1 7.5 1t5.5 2q9 7 17.5 13.5
t16.5 14.5q48 48 86 99q37 50 73 99.5t70 101.5q36 55 75 107.5t80 103.5q18 23 38 42.5t40 39.5q8 7 16.5 13t16.5 11q14 8 27.5 2t15.5 -23q1 -12 -2 -27q-3 -13 -7 -25.5t-9 -25.5l-54 -129q-20 -47 -39.5 -93.5t-34.5 -96.5q-7 -22 -12.5 -43.5t-7.5 -44.5q-2 -15 0 -30
q0 -5 6 -11q11 -12 3 -23q-4 -7 -11 -9.5t-14 0.5q-14 5 -20 19q-4 10 -5.5 19t-2.5 20q-2 39 7 75q11 51 28.5 98t37.5 95l57 129q6 14 11.5 29t11.5 29q1 2 1.5 5t2.5 8q-6 -5 -9.5 -7t-6.5 -5q-50 -45 -88 -95q-36 -48 -71 -96t-67 -99q-32 -49 -66 -95t-69 -92
q-20 -26 -41.5 -51t-44.5 -48q-16 -16 -31 -27q-14 -10 -25 -14q-32 -11 -50 18q-5 8 -7.5 17t-4.5 18q-4 23 -4 47t2 47q4 42 13.5 81t23.5 77q23 66 51 130.5t57 127.5q13 27 25 54.5t24 54.5q5 13 9 25.5t8 25.5q2 8 2.5 16t-4.5 15zM606 720v-8q-2 -5 -5.5 -8.5
t-7.5 -3.5q-9 0 -13 9q-2 2 -2 3q-5 21 -14.5 39.5t-21.5 36.5q-2 3 -3.5 6t-3.5 6q-2 5 -1 9.5t4 7.5q9 8 19 1q3 -1 8 -6q16 -18 26 -39.5t15 -44.5v-8z" />
    <glyph glyph-name="Uacute" unicode="&#xda;" horiz-adv-x="787" 
d="M335 702q-8 5 -18 0q-11 -5 -21 -9.5t-20 -10.5q-75 -47 -125 -118q-32 -46 -55.5 -95.5t-40.5 -103.5q-5 -17 -8 -33.5t-5 -33.5v-10q-3 -12 -15 -15t-20 7q-7 9 -6 19q1 11 2 21t4 20q5 15 9.5 29.5t10.5 28.5q13 32 27.5 62t30.5 59q26 48 59.5 88.5t75.5 76.5
q17 14 36 26.5t40 22.5q8 4 16.5 6.5t18.5 3.5q28 1 43 -23q10 -18 10 -35q0 -11 -2 -21.5t-5 -21.5q-9 -31 -20.5 -61.5t-25.5 -59.5q-27 -57 -52.5 -114.5t-49.5 -117.5q-14 -36 -27 -73t-22 -75q-15 -66 -11 -131q1 -7 2.5 -14t6.5 -14q3 1 6.5 1t5.5 2q9 7 17.5 13.5
t16.5 14.5q48 48 86 99q38 50 73.5 99.5t69.5 101.5q36 55 75 107.5t80 103.5q17 23 37.5 42.5t40.5 39.5q18 15 34 24q14 8 27 2t15 -23q2 -16 -2 -27q-3 -13 -7 -25.5t-9 -25.5q-13 -32 -26.5 -64.5t-27.5 -64.5q-20 -47 -39.5 -93.5t-34.5 -96.5q-7 -22 -12.5 -43.5
t-7.5 -44.5q-2 -15 0 -30q2 -7 6 -11q11 -12 3 -23q-4 -7 -10.5 -9.5t-14.5 0.5q-14 5 -20 19q-3 10 -5 19t-3 20q-2 39 7 75q12 51 29 98t37 95l57 129q13 31 23 58q2 2 2 5t2 8q-5 -5 -9 -7t-7 -5q-50 -45 -88 -95q-35 -48 -70.5 -96t-67.5 -99q-32 -49 -65.5 -95
t-68.5 -92q-20 -26 -42 -51t-45 -48q-16 -16 -31 -27q-14 -10 -25 -14q-32 -11 -50 18q-9 16 -12 35q-4 23 -4 47t2 47q4 42 14 81t24 77q23 66 50.5 130.5t56.5 127.5q13 27 25 54.5t24 54.5q5 13 9 25.5t8 25.5q2 8 2.5 16t-4.5 15zM569 711q-5 0 -9.5 3.5t-4.5 8.5
q-1 3 -0.5 6.5t1.5 6.5q1 5 7 13q26 41 64 77q8 6 12 8q11 5 19 -3q7 -9 1 -19q-4 -6 -6 -8q-17 -15 -31 -32t-27 -35q-8 -11 -17 -20q-2 -2 -4.5 -3t-4.5 -3z" />
    <glyph glyph-name="Ucircumflex" unicode="&#xdb;" horiz-adv-x="787" 
d="M335 702q-8 5 -18 0q-11 -5 -21 -9.5t-20 -10.5q-75 -47 -125 -118q-32 -46 -55.5 -95.5t-40.5 -103.5q-5 -17 -7.5 -33.5t-4.5 -33.5q-1 -3 -1 -10q-3 -12 -15 -15t-20 7q-7 9 -6 19q2 11 3 21t3 20q5 15 9.5 29.5t10.5 28.5q26 64 58 121q26 48 59.5 88.5t75.5 76.5
q17 14 36 26.5t40 22.5q8 4 17 6.5t18 3.5q28 1 43 -23q10 -16 10 -35q0 -11 -2 -21.5t-5 -21.5q-9 -31 -20.5 -61.5t-25.5 -59.5q-27 -57 -52.5 -114.5t-49.5 -117.5q-14 -36 -27 -73t-22 -75q-15 -66 -11 -131q1 -7 2.5 -14t6.5 -14q3 1 6.5 1t5.5 2q9 7 17.5 13.5
t16.5 14.5q48 48 86 99q38 50 73.5 99.5t70.5 101.5q35 55 74 107.5t80 103.5q17 23 37.5 42.5t41.5 39.5q7 7 15.5 13t17.5 11q14 8 27 2t15 -23q2 -16 -2 -27q-3 -13 -7 -25.5t-9 -25.5q-13 -32 -26.5 -64.5t-27.5 -64.5q-20 -47 -39.5 -93.5t-34.5 -96.5
q-7 -22 -12.5 -43.5t-7.5 -44.5q-1 -8 -0.5 -15t0.5 -15q2 -7 6 -11q11 -12 3 -23q-4 -7 -10.5 -9.5t-14.5 0.5q-14 5 -20 19q-3 10 -5 19t-3 20q0 19 1 37.5t6 37.5q12 51 29 98t37 95l57 129q7 14 12.5 29t10.5 29q1 2 1.5 5t2.5 8q-5 -5 -9 -7t-7 -5q-50 -45 -88 -95
q-35 -48 -70.5 -96t-67.5 -99q-32 -49 -65.5 -95t-68.5 -92q-20 -26 -42 -51t-45 -48q-16 -16 -31 -27q-14 -10 -25 -14q-32 -11 -50 18q-9 16 -12 35q-4 23 -4 47t2 47q4 42 14 81t23 77q24 66 51.5 130.5t56.5 127.5q13 27 25.5 54.5t23.5 54.5q5 13 9 25.5t8 25.5
q2 8 2.5 16t-4.5 15zM579 777l-17 -17q-9 -8 -17.5 -16.5t-18.5 -16.5q-8 -7 -17 -11q-4 -2 -12 -2q-13 0 -15 11q-1 10 7 16q3 2 6.5 4t7.5 5q23 17 43 36t35 44q4 7 9.5 11.5t14.5 2.5q16 -1 18 -24q1 -12 1.5 -24.5t0.5 -24.5q2 -22 11 -37q2 -4 4 -12q1 -10 -8 -18
q-10 -7 -19 -1q-9 5 -13 12q-10 14 -15 34q-2 6 -3 12.5t-3 15.5z" />
    <glyph glyph-name="Udieresis" unicode="&#xdc;" horiz-adv-x="787" 
d="M335 702q-8 5 -18 0q-11 -5 -21 -9.5t-19 -10.5q-76 -47 -126 -118q-32 -46 -55.5 -95.5t-40.5 -103.5q-5 -17 -7.5 -33.5t-4.5 -33.5q-1 -3 -1 -10q-3 -12 -15 -15t-20 7q-7 9 -6 19q2 11 3 21t3 20q5 15 9.5 29.5t10.5 28.5q13 32 27.5 62t30.5 59q26 48 59.5 88.5
t75.5 76.5q17 14 36 26.5t40 22.5q8 4 17 6.5t18 3.5q29 2 43 -23q10 -16 10 -35q0 -11 -2 -21.5t-5 -21.5q-9 -31 -20.5 -61.5t-25.5 -59.5q-27 -57 -52.5 -114.5t-48.5 -117.5q-15 -36 -28 -73t-22 -75q-15 -66 -11 -131q1 -7 2.5 -14t6.5 -14q3 1 6.5 1t6.5 2
q8 7 16.5 13.5t16.5 14.5q46 46 87 99q37 50 73 99.5t70 101.5q35 55 74 107.5t80 103.5q18 23 38 42.5t41 39.5q7 7 15.5 13t17.5 11q14 8 27 2t15 -23q2 -11 -1 -27q-4 -13 -8 -25.5t-9 -25.5q-13 -32 -26.5 -64.5t-27.5 -64.5q-20 -47 -39.5 -93.5t-34.5 -96.5
q-7 -22 -12.5 -43.5t-7.5 -44.5q-1 -8 -0.5 -15t1.5 -15q0 -3 1.5 -6t3.5 -5q11 -12 3 -23q-4 -7 -10.5 -9.5t-14.5 0.5q-14 5 -19 19q-4 10 -6 19t-2 20q-1 19 0 37.5t6 37.5q12 51 29 98t37 95l57 129q13 31 23 58q2 2 2 5t2 8q-5 -5 -9 -7t-7 -5q-24 -22 -46 -45.5
t-42 -49.5q-35 -48 -70.5 -96t-67.5 -99q-31 -49 -65 -95t-69 -92q-41 -53 -87 -99q-7 -8 -15 -14.5t-16 -12.5q-11 -9 -25 -14q-31 -10 -50 18q-9 16 -12 35q-4 23 -4 47t2 47q5 42 14.5 81t23.5 77q23 66 50.5 130.5t57.5 127.5q12 27 24.5 54.5t23.5 54.5q5 13 9 25.5
t8 25.5q2 8 2.5 16t-4.5 15zM492 755q0 15 8.5 27t21.5 15q5 2 10 0q12 -4 17 -19q4 -12 -5 -28t-22 -20q-19 -6 -28 14q-2 8 -2 11zM598 736q1 7 5 18q7 17 27 19q11 0 18 -6t8 -17t-8 -25t-19 -18q-11 -5 -19.5 -0.5t-10.5 15.5q-1 4 -1 14z" />
    <glyph glyph-name="Yacute" unicode="&#xdd;" horiz-adv-x="784" 
d="M444 642q-13 0 -15 11q0 10 1 14q3 8 7 13q14 21 30 40t35 36q2 2 5 4.5t6 4.5q12 5 19 -3q7 -9 2 -19q-4 -6 -7 -8q-17 -15 -30.5 -32t-26.5 -35q-8 -11 -17 -20q-2 -2 -4.5 -3t-4.5 -3zM561 497q-11 -3 -18 -8l-14 -10q-12 -10 -23 -19.5t-22 -20.5
q-25 -26 -49.5 -52.5t-47.5 -53.5q-34 -39 -67 -78.5t-66 -78.5q-19 -22 -39.5 -42t-43.5 -37q-17 -13 -34 -12q-17 2 -26 15q-11 17 -11 36q-2 22 -0.5 44t6.5 44q5 23 11 45.5t14 44.5q22 62 50 119t62 113q12 20 23.5 39.5t22.5 39.5q5 9 9 18.5t8 19.5q2 2 1.5 5t0.5 6
q-8 2 -14 -0.5t-12 -6.5q-8 -6 -15.5 -12t-15.5 -13q-11 -10 -20.5 -21t-18.5 -22q-53 -71 -93 -150q-14 -29 -28.5 -58.5t-28.5 -59.5q-8 -17 -14 -33.5t-8 -35.5q-2 -15 -16 -17q-6 -1 -12 3t-8 11q-5 10 -2 23q5 14 9 27.5t10 27.5q34 72 72 141t86 134q25 35 52 60
q12 11 25.5 21t29.5 15q8 3 16 5t17 0q13 -3 21 -11t9 -22q2 -17 -3 -32q-3 -11 -7 -21t-9 -20l-39 -66q-9 -16 -18.5 -31.5t-18.5 -31.5q-31 -52 -55 -107t-43 -113q-9 -28 -14.5 -56.5t-5.5 -57.5q0 -6 0.5 -12.5t6.5 -11.5q5 0 8 3q8 5 15 10.5t13 11.5q15 17 30.5 33
t29.5 33q39 46 77.5 92.5t77.5 92.5q17 20 35.5 38.5t35.5 37.5q27 27 59 50q13 8 29 15q35 11 46 -23q4 -12 4 -27q1 -17 -1 -35t-5 -35q-9 -50 -19 -98.5t-23 -96.5q-1 -3 -1 -8q5 -2 8 -0.5t6 3.5q22 10 43.5 20.5t44.5 20.5q54 25 115 37q6 2 12.5 2.5t13.5 2.5h10
q13 -3 16 -15q3 -14 -11 -20q-3 -2 -6.5 -2.5t-7.5 -1.5q-20 -5 -39.5 -8.5t-39.5 -10.5q-37 -12 -72 -28.5t-70 -33.5q-10 -5 -19 -10l-18 -10q-3 -10 -6.5 -19.5t-6.5 -20.5q-13 -40 -26 -79.5t-32 -77.5q-9 -18 -18.5 -36.5t-20.5 -35.5q-20 -32 -47 -56.5t-60 -42.5
q-11 -7 -27 -10q-32 -6 -49 22q-8 16 -10 34q0 12 2 24t5 23q14 52 47 100q17 25 36.5 48.5t41.5 45.5q23 23 47 43t51 37q7 4 13 8l12 8q10 6 13 17q6 29 13 57t13 57q8 38 16 76.5t13 76.5q2 9 2.5 18t-1.5 20zM483 123q-2 0 -3 0.5t-3 -0.5q-3 -2 -6.5 -4t-7.5 -5
q-53 -36 -93.5 -83t-70.5 -103q-6 -11 -10.5 -23t-8.5 -23q-7 -17 -7 -39q1 -4 1 -8t2 -8q5 -12 16 -8q8 3 14.5 6.5t13.5 7.5q31 22 54.5 49.5t40.5 60.5q22 41 37.5 83.5t29.5 86.5q1 2 0.5 5t0.5 5z" />
    <glyph glyph-name="Thorn" unicode="&#xde;" horiz-adv-x="343" 
d="M65 173q-6 -14 -10 -26.5t-7 -26.5q-4 -14 -6 -27.5t-5 -27.5q-2 -5 -3.5 -10.5t-4.5 -10.5q-4 -8 -11 -7.5t-11 8.5q-5 9 -5 22q2 14 3.5 27.5t3.5 27.5q3 15 7 30t8 31q-3 2 -5.5 4.5t-5.5 4.5q-6 4 -9.5 11.5t-3 16t5 16.5t13.5 13q6 3 12.5 4.5t14.5 4.5q5 15 11 31
t11 33t11.5 32.5t11.5 33.5q-5 -1 -8 -0.5t-6 -0.5q-6 -2 -12 -3.5t-12 -3.5q-8 -2 -14 -2q-11 -2 -15 8q-4 11 6 17q4 2 8.5 4.5t9.5 4.5q8 2 16.5 4.5t17.5 4.5q5 1 10.5 2t11.5 3q2 4 3.5 7.5t3.5 7.5q11 24 21.5 48t21.5 48q2 5 5 9t5 8l9 12q13 12 24 4q13 -7 7 -23
q-1 -5 -2.5 -8l-3.5 -7q-8 -18 -16.5 -36t-16.5 -35q-2 -5 -4.5 -10.5t-4.5 -11.5q5 -3 9.5 -2.5t9.5 1.5q18 3 36 3.5t36 -0.5q11 -1 22 -3l22 -4q1 0 1 -0.5t1 -0.5q29 -10 42 -32t3 -56q-7 -22 -23 -43q-32 -42 -72 -71.5t-91 -45.5q-17 -6 -35 -7t-36 -3q-10 -2 -16 -2z
M76 216q4 0 5.5 -0.5t3.5 -0.5q18 2 36.5 4.5t35.5 10.5q50 20 91 56q24 22 39 47q5 7 8 14.5t5 15.5q7 21 -14 33q-13 9 -35 11q-26 4 -51 2.5t-51 -6.5q-8 0 -11 -8q-1 -4 -5 -14q-8 -23 -16 -45.5t-16 -45.5l-12 -36t-13 -38z" />
    <glyph glyph-name="germandbls" unicode="&#xdf;" horiz-adv-x="496" 
d="M415 383q22 -34 29 -75.5t-11 -79.5q-17 -34 -46 -61.5t-65 -45t-75.5 -23.5t-76.5 3q-35 8 -58 31t-31 52.5t0 61t35 56.5q23 21 50.5 25.5t53.5 -4.5t46 -29t28 -48q2 -8 -2 -13.5t-10.5 -7.5t-13 1t-8.5 11q-6 21 -23 35.5t-37 19t-40 -2t-33 -28.5q-17 -27 -15.5 -51
t15 -41.5t37 -27.5t51.5 -9q26 1 52 7.5t49.5 19.5t43 31.5t31.5 42.5q16 32 12.5 70.5t-29.5 65.5q-29 30 -61.5 38.5t-72.5 11.5q-7 0 -11.5 5t-5 10.5t2 11t10.5 7.5q22 6 45 12.5t43 18.5q14 9 27.5 26.5t19 36t-1.5 34t-34 20.5q-33 6 -62 -3.5t-53.5 -28t-44.5 -44
t-35 -51.5q-29 -51 -51.5 -104t-36.5 -110q-1 -5 -6 -27t-8.5 -47t-2.5 -46t11 -22q8 -1 12 -6.5t4 -12.5t-4 -12t-12 -4q-25 3 -35 22.5t-10.5 45t4 51.5t7.5 41q9 42 23 87t33 88.5t43.5 83.5t56.5 70q21 20 54 39t68 25.5t66 -3.5t48 -48q11 -26 7.5 -47t-17 -38.5
t-34.5 -31.5t-43 -24q29 -6 54.5 -20.5t43.5 -40.5z" />
    <glyph glyph-name="thorn" unicode="&#xfe;" horiz-adv-x="347" 
d="M48 87q-4 -8 -4.5 -17t-2.5 -17q-2 -6 -2.5 -12.5t-1.5 -12.5q-2 -10 -8 -16q-13 -12 -23 3q-7 9 -5 24q2 14 3.5 29t4.5 30q5 19 -3 33q-7 13 -6 26t6 26q10 23 26 35q8 5 11 12t6 15q17 60 38 118t44 117q3 7 5.5 13t5.5 13q1 3 1 10q-21 -11 -32 -25q-7 -8 -13 -16.5
t-12 -16.5l-4 -6l-4 -6q-8 -10 -21 -3q-5 2 -7 8t0 11q3 8 9 16q35 50 89 74q16 7 22 22q10 23 21 41q3 5 7 8.5t8 7.5q8 6 18 1q8 -6 7 -16q0 -5 -1 -9t-3 -9t-4.5 -10.5t-4.5 -11.5q3 0 5.5 -0.5t4.5 0.5q10 1 19 0.5t18 -2.5q59 -12 76 -73q9 -32 3 -65
q-10 -68 -32.5 -130.5t-60.5 -120.5q-33 -51 -90 -83q-25 -14 -50.5 -18.5t-53.5 3.5h-9zM201 538q-2 -4 -3.5 -8t-3.5 -8q-6 -15 -12 -29.5t-12 -29.5q-32 -76 -58.5 -152.5t-48.5 -156.5q-2 -6 -3.5 -11.5t-0.5 -13.5q4 -1 7.5 -2.5t7.5 -2.5q26 -5 50 6q26 12 48 29.5
t37 42.5l12 18t11 18q50 87 67 187q2 17 3 33t-2 32q-8 39 -45 51q-14 4 -27 2.5t-27 -5.5z" />
    <glyph glyph-name="OE" unicode="&#x152;" horiz-adv-x="821" 
d="M855 296q7 -9 0 -18q-3 -4 -11 -12q-26 -20 -49 -41.5t-46 -42.5q-49 -44 -101 -82.5t-109 -70.5q-30 -17 -61 -33t-63 -30q-13 -5 -25.5 -9.5t-25.5 -6.5q-27 -4 -50 8t-34 37q-4 10 -5 15q-39 -23 -88 -34q-29 -6 -52.5 4.5t-38.5 36.5q-8 12 -12 25t-7 27
q-2 8 -2.5 15t-1.5 15t-1 15v15q-4 4 -6 5q-30 20 -44 56q-26 60 -20 122q8 104 53 188t124 152q56 47 126 62q56 11 108 -7q35 -12 60 -44q20 -25 31 -55q40 34 87 63q23 14 48.5 24.5t52.5 15.5q8 1 15 2t14 -1q44 -8 54 -48q9 -37 -1 -70q-6 -20 -14.5 -40t-20.5 -38
q-8 -12 -16.5 -23.5t-17.5 -22.5q-5 -8 -16 -13q-12 -8 -21 3q-4 4 -5 10t3 11t8 10.5t8 10.5q28 31 45 65q7 13 11.5 26t5.5 27q2 14 -1 25q-6 35 -41 29q-30 -5 -54 -16q-9 -5 -18 -9t-17 -9q-48 -30 -90 -66t-77 -80q-9 -11 -17 -22.5t-14 -24.5q-4 -8 -6 -13
q-1 -5 -3 -10t2 -10t9 -4t10 3q23 4 43.5 11.5t41.5 15.5q4 2 7.5 3.5t7.5 2.5q11 3 18 -7q6 -9 2 -18q-5 -8 -14 -15q-8 -8 -17 -14t-17 -13q-112 -98 -169 -237q-9 -23 -14.5 -47.5t-3.5 -49.5q1 -17 6 -33q5 -15 16 -21.5t26 -3.5q8 2 16 3.5t16 4.5q59 23 113.5 52.5
t105.5 65.5q35 24 67.5 50.5t63.5 55.5q19 17 37.5 34t38.5 34l5 5t6 5q2 1 4.5 2t4.5 2q11 3 17 -5zM193 17q20 5 39 13t36 21v11t1 12q5 40 18 77q19 52 47.5 97.5t63.5 87.5q5 7 11 13t12 13q4 6 7 10q-6 0 -10 0.5t-8 0.5q-20 0 -31 11.5t-12 31.5q0 8 2 16t5 16
q14 32 36 61q14 17 28 33.5t30 31.5q-9 34 -33 59q-18 21 -42 28q-41 14 -83 3q-29 -7 -53 -20.5t-47 -30.5q-30 -25 -54.5 -54t-44.5 -61q-59 -93 -65 -206q-1 -27 4 -52.5t18 -48.5q2 -3 9 -10q2 5 3 8.5t2 6.5q8 30 18.5 58t26.5 54q10 17 20.5 31.5t23.5 28.5l12 10
t13 9q5 2 10.5 4t10.5 2q12 0 16.5 -8.5t-0.5 -19.5q-2 -4 -5.5 -7t-6.5 -7q-5 -7 -10.5 -12.5t-10.5 -12.5q-23 -32 -40.5 -67.5t-27.5 -74.5q-2 -5 -2.5 -11t-2.5 -12q4 -1 6.5 -1t4.5 -1q5 -1 10 -1t10 -2q9 -4 11 -12t-6 -14t-19 -8q-5 -2 -9.5 -1.5t-10.5 -0.5
q-2 -20 0 -38.5t10 -35.5q7 -19 19 -25.5t32 -4.5q6 0 8 1z" />
    <glyph glyph-name="Scaron" unicode="&#x160;" horiz-adv-x="529" 
d="M392 790q4 2 6.5 3.5t4.5 3.5l45 39l12 8t12 7q7 5 16 3q8 -1 11 -7.5t0 -13.5q-2 -8 -13 -13q-19 -11 -35 -25t-30 -30q-5 -5 -8.5 -9.5t-8.5 -8.5q-6 -6 -14 -9t-15.5 0t-11.5 11q-2 4 -2.5 8t-2.5 8q-2 13 -5 25.5t-6 24.5q-2 10 -6 18.5t-9 17.5q-4 9 2 17q8 8 17 5
q7 -3 14 -8q4 -4 6.5 -8t4.5 -9q3 -8 6 -16.5t5 -17.5q2 -5 2.5 -10.5t2.5 -13.5zM269 134q5 -15 8.5 -29t3.5 -28q-2 -38 -21 -71q-10 -14 -20.5 -27t-24.5 -24q-19 -14 -40 -24.5t-44 -14.5q-29 -5 -54 2q-23 5 -32.5 22.5t-1.5 39.5q2 5 4.5 10.5t5.5 10.5q16 27 39 51
q45 45 100 80l15 9q-1 0 3 4q-4 6 -7 9q-15 14 -33 24.5t-36 21.5t-36.5 22t-35.5 23q-16 11 -28.5 24t-20.5 31q-24 50 -4 103q5 14 11.5 26t14.5 24q17 25 36.5 48t42.5 43q46 42 97 75t108 58q29 13 58.5 21t60.5 13q8 2 15.5 2h15.5q24 -2 37.5 -17t15.5 -38
q1 -17 -2.5 -33.5t-8.5 -33.5q-9 -29 -21 -56.5t-26 -54.5q-7 -14 -14 -27.5t-15 -27.5q-3 -5 -6.5 -9t-8.5 -9q-3 -4 -10 -6q-11 -4 -19 2.5t-7 17.5q2 10 6 15q3 6 7 11t7 10q47 64 71 138q3 11 4.5 21.5t3.5 21.5q1 4 1 14q-1 12 -6 16.5t-17 4.5q-5 0 -9 -0.5t-9 -1.5
q-48 -9 -93 -25.5t-87 -42.5q-28 -18 -55 -37t-53 -41q-24 -21 -46 -44.5t-40 -50.5q-8 -13 -14 -26t-10 -27q-11 -51 26 -85q18 -16 37.5 -29t39.5 -24q21 -11 41 -22.5t38 -27.5q5 -6 11 -11.5t12 -11.5q5 3 9 5.5t9 4.5q32 17 63 33.5t63 31.5q28 13 56 24.5t57 23.5
q15 6 32 9q4 2 14 2q12 -2 14 -13q4 -13 -8 -18q-4 -2 -8 -3.5t-9 -3.5q-69 -23 -134 -53.5t-128 -66.5q-3 -2 -11 -8zM232 112q-4 -2 -6 -2t-4 -2q-32 -19 -60.5 -40.5t-52.5 -49.5q-8 -9 -14.5 -18.5t-13.5 -19.5q-2 -4 -3 -8l-2 -8q-2 -7 6 -10q4 -2 8 -2q14 -2 27 -1
t26 7q19 8 35 18q21 13 36 30.5t23 41.5q9 33 -5 64z" />
    <glyph glyph-name="Ydieresis" unicode="&#x178;" horiz-adv-x="783" 
d="M408 691q0 15 8.5 27t21.5 15q5 2 10 0q12 -4 17 -19q4 -12 -5 -27.5t-21 -20.5q-21 -6 -29 14q-1 3 -1 6t-1 5zM514 672q1 4 2 8.5t3 9.5q7 17 27 19q11 0 18 -6.5t8 -17.5t-7.5 -24.5t-19.5 -17.5q-11 -5 -19.5 -0.5t-10.5 15.5q-1 4 -1 14zM560 497q-11 -3 -18 -8
l-14 -10q-11 -10 -22.5 -19.5t-22.5 -20.5q-25 -26 -49.5 -52.5t-47.5 -53.5q-34 -39 -66.5 -78.5t-66.5 -78.5q-19 -22 -39 -42t-43 -37q-18 -13 -35 -12q-17 2 -26 15q-11 17 -11 36q-2 22 -0.5 44t6.5 44q5 23 11 45.5t14 44.5q22 62 50 119t62 113q12 20 23.5 39.5
t22.5 39.5q5 9 9 18.5t9 19.5q1 2 0.5 5t0.5 6q-8 2 -14 -0.5t-11 -6.5l-16 -12t-16 -13q-10 -10 -20 -21t-18 -22q-53 -69 -94 -150q-14 -29 -28.5 -58.5t-28.5 -59.5q-8 -17 -14 -33.5t-8 -35.5q-2 -15 -16 -17q-6 -1 -12 3t-8 11q-5 13 -1 23q5 14 8.5 27.5t9.5 27.5
q34 72 72 141t86 134q25 35 52 60q12 11 25.5 21t29.5 15q8 3 16.5 5t16.5 0q29 -6 30 -33q2 -17 -3 -32q-3 -11 -7 -21t-9 -20l-39 -66q-9 -16 -18.5 -31.5t-18.5 -31.5q-31 -52 -55 -107t-43 -113q-9 -28 -14.5 -56.5t-5.5 -57.5q1 -6 1 -12.5t6 -11.5q5 0 8 3
q8 5 15 10.5t13 11.5q16 17 31 33t29 33q39 46 77.5 92.5t78.5 92.5q17 20 35 38.5t36 37.5q25 26 58 50q13 8 29 15q34 11 47 -23q2 -7 2.5 -13.5t1.5 -13.5q0 -17 -2 -35t-5 -35q-9 -50 -19 -98.5t-23 -96.5q0 -2 -0.5 -4t-0.5 -4q5 -2 8 -0.5t6 3.5q22 10 43.5 20.5
t44.5 20.5q54 25 115 37q6 2 12.5 2.5t13.5 2.5h10q13 -3 16 -15q3 -14 -11 -20q-3 -2 -6.5 -2.5t-7.5 -1.5q-20 -5 -39.5 -8.5t-39.5 -10.5q-37 -12 -72 -28.5t-70 -33.5q-10 -5 -19 -10l-18 -10q-3 -10 -6 -19.5t-6 -20.5q-14 -40 -27 -79.5t-32 -77.5q-9 -18 -18.5 -36.5
t-20.5 -35.5q-20 -32 -47 -56.5t-59 -42.5q-12 -7 -28 -10q-32 -6 -49 22q-8 16 -10 34q0 12 2 24t5 23q14 52 47 100q17 25 36.5 48.5t41.5 45.5q23 23 47 43t51 37q7 4 13 8l12 8q10 6 13 17q6 29 13 57t13 57q8 38 16 76.5t13 76.5q2 9 2.5 18t-1.5 20zM482 123
q-2 0 -3 0.5t-3 -0.5q-3 -2 -6.5 -4t-6.5 -5q-54 -36 -94 -83t-71 -103q-6 -11 -10.5 -23t-8.5 -23q-7 -17 -7 -39q1 -4 1 -8t2 -8q5 -13 16 -8q8 3 14.5 6.5t13.5 7.5q31 22 54.5 49.5t40.5 60.5q22 41 37.5 83.5t29.5 86.5q1 2 0.5 5t0.5 5z" />
    <glyph glyph-name="Zcaron" unicode="&#x17d;" horiz-adv-x="675" 
d="M337 765l6 4.5t4 3.5q11 10 22.5 19.5t22.5 18.5q6 5 12 9t12 7q10 4 16 3q8 -1 11 -7.5t0 -14.5q-2 -5 -5 -8t-7 -5q-20 -10 -36 -24t-30 -31q-4 -5 -8 -9l-9 -9q-7 -5 -14 -8q-8 -4 -15.5 -0.5t-11.5 11.5q-2 4 -2.5 8t-1.5 8q-3 12 -6 24.5t-6 25.5q-4 17 -15 36
q-5 9 3 17t16 4q4 -2 8 -3.5t6 -4.5q8 -8 11 -17q4 -8 6.5 -16.5t4.5 -16.5q2 -5 3 -11t3 -14zM234 340q7 4 13 7.5t12 7.5q59 36 123 49q13 3 25.5 3.5t25.5 0.5q29 -1 47 -27q8 -13 11.5 -26t1.5 -28q-2 -19 -6.5 -37t-9.5 -36q-2 -4 -3 -8t1 -9q4 2 7.5 2.5t7.5 2.5
q29 11 56 21t56 20q20 8 40 11t41 5h14q15 -2 17 -16q0 -14 -12 -18q-2 -2 -4.5 -2t-5.5 -1q-57 -6 -109 -25q-28 -11 -56 -21t-57 -20q-18 -8 -25 -25q-27 -50 -57 -95t-58.5 -83t-53.5 -67t-42 -45q-18 -18 -38 -33.5t-40 -29.5q-17 -11 -34.5 -19t-36.5 -13
q-11 -3 -23 -3.5t-23 1.5q-14 2 -25 13.5t-13 27.5q-3 18 3 35q8 23 20 41q15 24 33 44.5t39 39.5q27 25 55 48.5t58 45.5q27 20 54 39t55 38q20 14 42.5 27t45.5 24q13 5 19 20q8 20 15 40.5t12 42.5q2 6 2.5 12t1.5 12q1 11 -5 22q-8 15 -23 15q-8 0 -17 0.5t-17 -1.5
q-47 -9 -90 -30q-22 -11 -43 -23.5t-41 -26.5l-42 -32l-42 -32q-17 -13 -31 -27t-27 -29q-2 -3 -5 -6l-5 -5q-5 -5 -12.5 -6t-12.5 4q-5 4 -6 11t3 13q2 3 4.5 6t4.5 6q118 129 231 264q22 26 42 52.5t40 53.5q8 11 15.5 23t12.5 25q4 12 6 24q3 24 -22 27q-11 0 -20 -3
q-24 -6 -45 -15q-115 -51 -199 -145q-9 -10 -17.5 -19t-16.5 -20q-8 -8 -13.5 -17t-12.5 -18q-6 -9 -15 -8q-12 1 -15 13q-2 6 0 12q2 10 6 15q7 14 14 21q17 20 34 39.5t37 36.5q4 3 7.5 6.5l7.5 7.5q42 42 90.5 70.5t102.5 49.5q14 5 27 8.5t28 2.5q17 0 37 -10
q23 -14 26 -43q2 -21 -6 -41q-13 -35 -34 -62q-30 -39 -61.5 -77.5t-64.5 -76.5q-11 -11 -20 -22.5t-19 -22.5q0 -2 2 -4zM398 160q-12 -4 -16 -6q-14 -8 -29 -17l-30 -18q-33 -23 -66 -46.5t-64 -49.5q-25 -20 -48.5 -41t-46.5 -43q-30 -27 -49 -59q-4 -7 -7.5 -13
t-6.5 -13q-5 -14 -1 -27q3 -10 13 -11q14 -1 29 3q17 5 32.5 13t30.5 18q40 26 73 59q41 40 86.5 100t99.5 151z" />
    <glyph glyph-name="circumflex" unicode="&#x2c6;" horiz-adv-x="260" 
d="M149 587l-9 -9t-8 -7q-9 -9 -18 -17.5t-18 -16.5q-7 -5 -18 -11q-6 -2 -12 -2q-5 -1 -9 2.5t-6 8.5q-1 9 7 16q4 2 7.5 4t6.5 4q23 17 43 36.5t35 44.5q5 8 10.5 12t14.5 2q16 -3 18 -24q1 -13 1 -25t1 -24q1 -11 3 -20t7 -17q4 -8 4 -12q2 -12 -8 -18q-10 -7 -19 -1
q-9 5 -13 12q-11 16 -14 34q-2 6 -3 12.5t-3 15.5z" />
    <glyph glyph-name="tilde" unicode="&#x2dc;" horiz-adv-x="289" 
d="M173 552q-14 -2 -34 12q-3 3 -11 9q-19 11 -34 -3q-4 -3 -7 -6.5t-7 -6.5q-11 -8 -21 -2q-11 8 -8 22q2 3 3.5 6.5t3.5 5.5q22 26 53 29q24 3 42 -10q3 -3 9 -7q10 -7 25 -7q11 0 21 10q3 5 10 5q11 2 17 -5.5t3 -18.5q-2 -7 -6 -11.5t-9 -9.5q-10 -7 -21.5 -9.5
t-28.5 -2.5z" />
    <glyph glyph-name="endash" unicode="&#x2013;" horiz-adv-x="373" 
d="M74 300q-20 0 -23 14q-4 16 12 22q14 6 31 9q14 2 41 4t56 4.5t56 4.5t41 4q9 1 16 0q15 -1 18 -15q2 -13 -14 -18q-3 -2 -6 -2t-6 -1q-16 -2 -44.5 -4.5t-59.5 -5.5t-59 -6.5t-44 -6.5q-5 -1 -9 -1.5t-6 -1.5z" />
    <glyph glyph-name="emdash" unicode="&#x2014;" horiz-adv-x="469" 
d="M74 304q-20 0 -23 14q-3 15 13 22q8 3 15.5 4.5t15.5 3.5q9 1 31.5 2t51.5 1.5t61.5 1.5t61.5 1.5t51.5 1.5t32.5 2q9 1 16 0q14 -3 17 -16q2 -13 -15 -18q-3 -1 -6 -1t-6 -1q-11 -1 -34.5 -2t-53.5 -2t-63.5 -2t-63.5 -2.5t-53.5 -3.5t-33.5 -4q-5 -1 -9 -1.5t-6 -0.5z
" />
    <glyph glyph-name="quoteleft" unicode="&#x2018;" horiz-adv-x="173" 
d="M90 577l5 -5l4 -4q13 -14 1 -29q-14 -15 -30 -7q-9 4 -14.5 14.5t-4.5 21.5q1 9 5 20q12 29 35 49q7 7 15 8q10 2 14 -5q5 -7 -2 -15q-5 -7 -9.5 -13t-8.5 -14q-5 -7 -10 -21z" />
    <glyph glyph-name="quoteright" unicode="&#x2019;" horiz-adv-x="173" 
d="M83 598l-5 5l-4 4q-13 14 -1 29q14 15 30 7q9 -4 14.5 -14.5t4.5 -21.5q-1 -9 -5 -20q-12 -29 -35 -49q-7 -7 -15 -8q-10 -2 -14 5q-5 7 2 15q5 7 9.5 13t8.5 14q5 7 10 21z" />
    <glyph glyph-name="quotesinglbase" unicode="&#x201a;" horiz-adv-x="209" 
d="M89 168q-2 2 -4.5 3.5t-4.5 3.5q-12 17 0 34q5 8 15 11t19 0t15 -10t4 -18q-1 -17 -8 -35q-10 -26 -33 -44q-12 -8 -22 -11q-3 -2 -7 -1t-6 2q-5 2 -6.5 8t3.5 10q2 2 4.5 2.5t4.5 2.5q11 7 17.5 16.5t8.5 25.5z" />
    <glyph glyph-name="quotedblleft" unicode="&#x201c;" horiz-adv-x="247" 
d="M164 571l5 -5l4 -4q13 -14 1 -29q-14 -15 -30 -7q-9 4 -14.5 14.5t-4.5 21.5q1 9 5 20q12 29 35 49q7 7 15 8q10 2 14 -5q5 -7 -2 -15q-5 -7 -9.5 -13t-8.5 -14q-5 -7 -10 -21zM86 572q6 -5 9 -9q13 -16 -1 -30q-6 -6 -14.5 -7t-15.5 4q-14 9 -14 24q0 6 0.5 12.5
t2.5 11.5q7 19 18.5 33.5t25.5 27.5q2 2 4.5 3t4.5 3q6 2 11 -3t3 -11q-4 -8 -6 -11q-4 -7 -8 -13t-9 -13q-3 -5 -5.5 -10.5t-5.5 -11.5z" />
    <glyph glyph-name="quotedblright" unicode="&#x201d;" horiz-adv-x="247" 
d="M83 598l-5 5l-4 4q-13 14 -1 29q14 15 30 7q9 -4 14.5 -14.5t4.5 -21.5q-1 -9 -5 -20q-12 -29 -35 -49q-7 -7 -15 -8q-10 -2 -14 5q-5 7 2 15q5 7 9.5 13t8.5 14q5 7 10 21zM161 597q-6 4 -9 9q-6 8 -5.5 16t6.5 14t14.5 7t15.5 -4q14 -9 14 -24q0 -6 -0.5 -12.5
t-2.5 -11.5q-7 -19 -18.5 -33.5t-25.5 -27.5q-2 -2 -4.5 -3t-4.5 -3q-6 -2 -11 3t-3 11q4 8 6 11q4 7 8 13t9 13q3 5 5.5 10.5t5.5 11.5z" />
    <glyph glyph-name="quotedblbase" unicode="&#x201e;" horiz-adv-x="272" 
d="M83 173l-5 5l-4 4q-13 14 -1 29q14 15 30 7q9 -4 14.5 -14.5t4.5 -21.5q-1 -9 -5 -20q-12 -29 -35 -49q-7 -7 -15 -8q-10 -2 -14 5q-5 7 2 15q5 7 9.5 13t8.5 14q5 7 10 21zM161 172q-6 4 -9 9q-6 8 -5.5 16t6.5 14t14.5 7t15.5 -4q14 -9 14 -24q0 -6 -0.5 -12.5
t-2.5 -11.5q-7 -19 -18.5 -33.5t-25.5 -27.5q-2 -2 -4.5 -3t-4.5 -3q-6 -2 -11 3t-3 11q4 8 6 11q4 7 8 13t9 13q3 5 5.5 10.5t5.5 11.5z" />
    <glyph glyph-name="ellipsis" unicode="&#x2026;" horiz-adv-x="570" 
d="M50 161q0 17 8 28.5t22 20.5q9 5 19.5 1t13.5 -15q2 -7 1 -12q-3 -30 -26 -46q-12 -9 -23.5 -4t-13.5 19q0 2 -0.5 4t-0.5 4zM240 161q0 17 8 28.5t22 20.5q9 5 19.5 1t13.5 -15q2 -7 1 -12q-3 -30 -26 -46q-12 -9 -23.5 -4t-13.5 19q0 2 -0.5 4t-0.5 4zM430 161
q0 17 8 28.5t22 20.5q9 5 19.5 1t13.5 -15q2 -7 1 -12q-3 -30 -26 -46q-12 -9 -23.5 -4t-13.5 19q0 2 -0.5 4t-0.5 4z" />
    <glyph glyph-name="guilsinglleft" unicode="&#x2039;" horiz-adv-x="323" 
d="M102 341q8 -12 13.5 -22.5t12.5 -20.5q14 -21 29 -42.5t29 -42.5q2 -4 8 -12q8 -19 -7 -29q-13 -10 -28 3q-6 8 -9 11q-16 22 -32 43t-31 44q-8 11 -15 23.5t-15 25.5q-4 5 -5 11q-7 24 16 36q11 5 21 9t20 9q35 18 65 41.5t57 51.5l6 6t7 5q13 8 23 0q10 -9 3 -22
q-2 -4 -4 -7.5t-4 -7.5q-16 -22 -40 -41q-22 -17 -45.5 -32.5t-49.5 -27.5q-5 -2 -11 -5z" />
    <glyph glyph-name="guilsinglright" unicode="&#x203a;" horiz-adv-x="295" 
d="M197 340q-6 6 -10.5 11.5t-9.5 10.5q-28 29 -49 64q-7 10 -13 25q-3 12 2 20q5 10 14 11t16 -7q18 -23 37 -49q12 -16 23.5 -31t23.5 -31q1 -2 2 -2.5t2 -2.5q19 -24 -2 -45l-15 -12q-35 -29 -67.5 -61.5t-64.5 -67.5q-6 -6 -9 -8q-11 -7 -19 0q-9 5 -7 18q1 2 1.5 4
t1.5 4q4 6 6 8q20 22 38.5 43.5t38.5 42.5q9 11 19.5 19.5t20.5 18.5q5 4 9.5 8t10.5 9z" />
  </font>
</defs>
</svg>
